<svg id="svg" version="1.1" xmlns="http://www.w3.org/2000/svg" xmlns:xlink="http://www.w3.org/1999/xlink" width="400" height="225.04249291784703" viewBox="0, 0, 400,225.04249291784703"><g id="svgg"><path id="path0" d="M118.405 29.078 C 115.384 30.641,115.235 32.938,117.861 37.479 C 118.864 39.212,122.854 46.151,126.728 52.898 C 130.602 59.645,134.624 66.623,135.666 68.405 C 136.707 70.186,137.513 71.764,137.457 71.910 C 137.401 72.057,135.941 73.005,134.212 74.018 C 102.755 92.450,81.072 123.513,74.395 159.707 C 73.902 162.376,72.707 171.026,72.707 171.918 C 72.707 172.144,98.211 172.200,200.219 172.200 L 327.732 172.200 327.631 171.581 C 327.576 171.241,327.418 169.848,327.280 168.486 C 323.347 129.551,299.603 93.176,265.279 73.504 C 264.041 72.795,262.945 72.136,262.843 72.040 C 262.742 71.944,263.307 70.763,264.100 69.416 C 264.893 68.069,267.520 63.523,269.938 59.313 C 272.357 55.104,276.462 47.963,279.061 43.444 C 281.660 38.925,283.909 34.993,284.059 34.706 C 284.882 33.130,284.016 30.270,282.417 29.282 C 279.916 27.736,277.549 28.672,275.629 31.964 C 273.400 35.786,268.556 44.180,262.185 55.262 C 258.341 61.947,255.080 67.544,254.938 67.700 C 254.734 67.924,254.096 67.731,251.876 66.775 C 219.840 52.978,180.331 52.981,148.497 66.782 C 146.912 67.469,145.574 67.990,145.523 67.939 C 145.472 67.889,141.061 60.254,135.720 50.975 C 122.771 28.478,123.706 30.028,122.694 29.359 C 121.418 28.515,119.710 28.403,118.405 29.078 M143.413 114.800 C 148.649 115.771,152.480 120.728,152.105 126.047 C 151.347 136.792,136.754 139.669,132.010 130.008 C 128.154 122.155,134.858 113.214,143.413 114.800 M260.769 114.818 C 270.142 116.551,272.627 129.028,264.627 134.198 C 259.647 137.417,253.066 136.005,249.875 131.032 C 244.893 123.268,251.697 113.141,260.769 114.818 " stroke="none" fill="#3cdc84" fill-rule="evenodd"></path><path id="path1" d="M0.000 112.549 L 0.000 225.098 200.000 225.098 L 400.000 225.098 400.000 112.549 L 400.000 0.000 200.000 0.000 L 0.000 0.000 0.000 112.549 M122.406 29.014 C 123.618 29.632,123.520 29.483,129.096 39.167 C 140.018 58.136,145.624 67.755,145.757 67.755 C 145.805 67.755,146.734 67.363,147.823 66.884 C 180.042 52.719,220.468 52.796,253.027 67.086 C 253.913 67.475,254.713 67.709,254.804 67.605 C 254.965 67.423,260.446 57.950,271.126 39.392 C 277.386 28.515,277.326 28.588,280.196 28.588 C 283.016 28.588,284.779 30.686,284.565 33.788 C 284.525 34.366,281.715 39.372,273.839 52.898 C 267.143 64.397,262.878 71.845,262.955 71.907 C 262.995 71.939,263.787 72.400,264.716 72.931 C 300.368 93.324,324.405 130.612,327.657 170.569 L 327.808 172.426 200.201 172.369 L 72.594 172.313 72.668 171.075 C 73.692 153.765,81.045 131.800,91.295 115.429 C 102.270 97.901,120.373 80.697,136.579 72.395 C 136.981 72.189,137.310 71.915,137.310 71.787 C 137.310 71.545,132.562 63.238,125.228 50.647 C 116.576 35.793,115.880 34.529,115.757 33.436 C 115.368 29.980,119.246 27.401,122.406 29.014 M139.451 115.065 C 133.657 116.170,129.853 122.205,131.344 127.928 C 134.101 138.515,149.461 138.154,151.693 127.451 C 153.213 120.162,146.791 113.665,139.451 115.065 M256.862 115.029 C 246.984 117.111,245.440 130.402,254.566 134.791 C 262.819 138.760,271.843 130.355,268.692 121.635 C 267.034 117.046,261.625 114.026,256.862 115.029 " stroke="none" fill="#fbfcfb" fill-rule="evenodd"></path><path id="path2" d="" stroke="none" fill="#9cecc4" fill-rule="evenodd"></path><path id="path3" d="M194.429 56.433 C 194.707 56.487,195.163 56.487,195.442 56.433 C 195.720 56.380,195.492 56.336,194.935 56.336 C 194.378 56.336,194.150 56.380,194.429 56.433 M205.008 56.433 C 205.287 56.487,205.743 56.487,206.021 56.433 C 206.300 56.380,206.072 56.336,205.515 56.336 C 204.958 56.336,204.730 56.380,205.008 56.433 M112.197 90.096 L 111.536 90.827 112.268 90.166 C 112.670 89.802,112.999 89.473,112.999 89.435 C 112.999 89.261,112.814 89.414,112.197 90.096 M290.823 92.797 C 292.121 94.128,293.210 95.217,293.243 95.217 C 293.406 95.217,293.131 94.928,290.884 92.737 L 288.464 90.377 290.823 92.797 M251.312 118.008 L 250.422 118.965 251.379 118.075 C 252.268 117.247,252.439 117.051,252.269 117.051 C 252.232 117.051,251.801 117.482,251.312 118.008 M86.550 123.579 C 86.358 123.950,86.252 124.254,86.314 124.254 C 86.376 124.254,86.583 123.950,86.775 123.579 C 86.968 123.208,87.074 122.904,87.012 122.904 C 86.950 122.904,86.742 123.208,86.550 123.579 M248.356 125.380 C 248.356 126.185,248.397 126.514,248.446 126.111 C 248.496 125.709,248.496 125.051,248.446 124.648 C 248.397 124.246,248.356 124.575,248.356 125.380 M151.994 125.155 C 151.994 125.588,152.040 125.765,152.097 125.549 C 152.153 125.332,152.153 124.977,152.097 124.761 C 152.040 124.544,151.994 124.721,151.994 125.155 M141.083 135.894 C 141.363 135.947,141.768 135.945,141.983 135.889 C 142.199 135.833,141.970 135.789,141.474 135.791 C 140.979 135.794,140.803 135.840,141.083 135.894 M258.585 135.894 C 258.865 135.947,259.270 135.945,259.485 135.889 C 259.700 135.833,259.471 135.789,258.976 135.791 C 258.481 135.794,258.305 135.840,258.585 135.894 M72.554 171.863 C 72.600 172.312,72.766 172.313,200.172 172.313 L 327.743 172.313 200.242 172.257 C 79.058 172.203,72.734 172.180,72.624 171.806 C 72.534 171.501,72.518 171.513,72.554 171.863 " stroke="none" fill="#b4f1d3" fill-rule="evenodd"></path><path id="path4" d="M196.455 56.437 C 196.857 56.487,197.515 56.487,197.918 56.437 C 198.320 56.388,197.991 56.347,197.186 56.347 C 196.382 56.347,196.052 56.388,196.455 56.437 M202.307 56.437 C 202.710 56.487,203.368 56.487,203.770 56.437 C 204.173 56.388,203.844 56.347,203.039 56.347 C 202.234 56.347,201.905 56.388,202.307 56.437 M288.342 90.546 C 288.894 91.134,289.375 91.615,289.411 91.615 C 289.580 91.615,289.401 91.413,288.407 90.480 L 287.338 89.477 288.342 90.546 M108.829 93.472 L 107.259 95.104 108.891 93.534 C 110.407 92.077,110.626 91.840,110.461 91.840 C 110.427 91.840,109.692 92.575,108.829 93.472 M104.769 97.749 L 104.108 98.481 104.840 97.819 C 105.522 97.203,105.675 97.017,105.501 97.017 C 105.462 97.017,105.133 97.347,104.769 97.749 M140.859 114.738 C 141.264 114.788,141.872 114.787,142.210 114.736 C 142.548 114.685,142.217 114.644,141.474 114.645 C 140.732 114.646,140.455 114.688,140.859 114.738 M258.244 114.736 C 258.585 114.788,259.142 114.788,259.482 114.736 C 259.823 114.685,259.544 114.643,258.863 114.643 C 258.182 114.643,257.904 114.685,258.244 114.736 M251.198 117.895 L 250.422 118.739 251.266 117.964 C 252.052 117.242,252.214 117.051,252.042 117.051 C 252.004 117.051,251.624 117.431,251.198 117.895 M248.111 125.380 C 248.111 125.813,248.157 125.990,248.214 125.774 C 248.270 125.557,248.270 125.203,248.214 124.986 C 248.157 124.769,248.111 124.947,248.111 125.380 M148.888 132.864 L 148.227 133.596 148.959 132.935 C 149.361 132.571,149.690 132.242,149.690 132.203 C 149.690 132.029,149.505 132.182,148.888 132.864 " stroke="none" fill="#94ecbc" fill-rule="evenodd"></path></g></svg>