<svg id="svg" version="1.1" xmlns="http://www.w3.org/2000/svg" xmlns:xlink="http://www.w3.org/1999/xlink" width="400" height="400" viewBox="0, 0, 400,400"><g id="svgg"><path id="path0" d="M179.854 143.374 C 161.108 144.607,145.527 159.288,143.070 178.032 C 142.624 181.434,142.628 228.552,143.074 231.972 C 145.370 249.564,158.637 263.172,176.582 266.343 C 178.914 266.755,231.209 266.985,235.637 266.603 C 254.518 264.973,269.544 250.601,271.955 231.867 C 272.336 228.913,272.427 182.324,272.059 178.947 C 270.076 160.743,256.381 146.582,237.891 143.616 C 235.600 143.248,184.972 143.038,179.854 143.374 M238.379 152.704 C 252.539 155.916,262.126 166.808,263.296 181.011 C 263.646 185.257,263.420 229.775,263.039 231.738 C 260.466 244.989,251.658 254.202,238.627 257.273 C 236.463 257.783,182.617 258.085,178.711 257.609 C 164.488 255.876,153.251 244.243,151.769 229.716 C 151.499 227.073,151.493 182.869,151.762 180.273 C 153.304 165.387,164.460 154.162,179.590 152.274 C 179.912 152.234,192.832 152.215,208.301 152.231 L 236.426 152.261 238.379 152.704 M239.791 163.743 C 232.300 166.897,234.463 177.832,242.578 177.832 C 250.332 177.832,252.717 167.417,245.755 163.960 C 244.124 163.150,241.431 163.052,239.791 163.743 M203.711 169.653 C 179.110 172.700,164.848 198.357,175.488 220.425 C 186.634 243.543,218.200 247.510,234.701 227.868 C 252.025 207.244,241.039 175.779,214.564 170.195 C 212.259 169.708,205.847 169.388,203.711 169.653 M212.681 178.903 C 233.567 183.160,241.362 208.780,226.341 223.802 C 211.873 238.270,187.078 231.647,181.761 211.895 C 177.457 195.909,188.320 180.452,205.273 178.436 C 206.713 178.265,210.820 178.524,212.681 178.903 " stroke="none" fill="#fbfafb" fill-rule="evenodd"></path><path id="path1" d="M106.836 181.790 C 106.836 182.057,106.985 182.394,107.502 183.301 C 107.686 183.623,107.885 184.041,107.945 184.229 C 108.005 184.417,108.112 184.570,108.183 184.570 C 108.405 184.570,108.414 185.618,108.198 186.143 C 107.924 186.806,106.737 187.551,104.912 188.205 C 103.139 188.840,102.344 189.347,102.344 189.841 C 102.344 191.292,101.412 191.191,97.737 189.341 C 93.496 187.207,90.999 187.424,92.821 189.769 C 93.578 190.744,93.991 190.970,95.996 191.510 C 100.919 192.834,101.708 195.202,98.100 197.826 C 96.425 199.045,95.994 199.801,95.730 201.991 C 95.425 204.515,95.196 204.742,92.628 205.061 C 90.989 205.264,90.022 205.753,89.755 206.515 C 89.391 207.548,89.723 207.715,92.139 207.715 C 94.936 207.715,95.708 208.369,96.017 211.000 C 96.155 212.173,95.912 212.497,94.667 212.804 C 93.957 212.978,93.512 213.672,93.590 214.482 C 93.675 215.355,94.496 215.611,95.795 215.169 C 96.440 214.949,96.839 214.914,97.187 215.046 C 97.665 215.228,97.796 215.463,98.536 217.475 C 98.733 218.009,99.270 218.848,99.730 219.340 C 100.858 220.546,101.013 221.015,100.731 222.363 C 100.443 223.733,100.634 224.098,101.680 224.183 C 102.628 224.260,102.695 224.327,102.986 225.498 C 103.245 226.538,103.311 226.581,105.669 227.228 C 106.954 227.581,108.094 228.496,108.992 229.895 C 109.676 230.961,110.161 231.250,111.266 231.250 L 111.960 231.250 111.825 232.694 C 111.631 234.765,112.213 234.926,114.019 233.303 C 115.495 231.976,115.484 232.245,114.004 233.661 C 110.085 237.410,113.996 239.762,118.459 236.341 C 120.389 234.862,121.083 234.814,122.466 236.063 C 123.501 236.998,123.463 237.317,122.060 239.453 C 120.925 241.182,120.864 241.240,120.511 240.921 C 120.309 240.738,120.189 240.470,120.244 240.326 C 120.529 239.584,117.019 239.457,116.056 240.173 C 114.864 241.061,115.050 242.175,116.568 243.249 C 117.303 243.769,117.370 243.873,117.079 244.043 C 112.523 246.705,109.642 250.197,110.343 252.208 C 111.235 254.768,113.016 254.151,117.585 249.701 C 120.347 247.009,122.782 245.238,122.364 246.223 C 121.746 247.679,122.244 249.689,123.138 249.346 C 123.604 249.167,124.565 247.519,124.713 246.647 C 124.856 245.797,124.802 245.807,126.270 246.365 C 127.265 246.744,128.064 246.753,129.075 246.396 C 131.043 245.702,130.710 248.558,128.558 250.842 C 127.931 251.507,126.986 252.578,126.456 253.223 C 125.927 253.867,125.074 254.865,124.559 255.440 C 123.633 256.476,122.354 258.881,121.668 260.875 C 121.283 261.993,121.395 262.321,122.255 262.594 C 122.478 262.665,122.657 262.927,122.693 263.236 C 122.883 264.861,125.059 264.437,129.008 262.005 C 130.456 261.114,131.641 260.410,131.641 260.441 C 131.641 260.473,131.247 261.346,130.766 262.383 C 128.761 266.703,128.732 270.216,130.680 272.676 C 131.434 273.629,131.396 273.686,129.128 274.988 C 125.972 276.800,125.674 277.222,127.330 277.536 C 131.383 278.305,133.802 282.630,132.171 286.193 C 131.635 287.363,130.992 287.928,129.134 288.857 C 126.353 290.247,125.277 292.237,126.701 293.356 C 127.681 294.128,128.611 293.606,130.382 291.292 C 132.765 288.179,136.197 287.766,138.443 290.323 C 139.620 291.665,139.697 291.967,139.331 293.830 C 139.016 295.434,139.018 295.500,139.402 296.276 L 139.797 297.074 139.122 298.195 C 138.751 298.812,138.230 299.602,137.964 299.951 C 136.319 302.110,136.862 303.313,139.177 302.640 C 140.488 302.259,141.296 301.479,142.350 299.577 C 143.997 296.604,144.715 296.193,144.336 298.437 C 144.057 300.091,144.105 300.175,145.009 299.616 L 145.703 299.187 145.703 299.886 C 145.703 300.857,147.218 300.554,147.830 299.460 C 147.989 299.175,148.056 299.179,148.563 299.501 C 149.910 300.358,150.003 300.528,149.646 301.489 C 149.255 302.546,149.461 302.999,150.373 303.089 C 150.751 303.127,150.968 303.243,150.920 303.382 C 150.876 303.509,150.958 303.954,151.103 304.370 C 151.249 304.787,151.367 305.411,151.367 305.758 C 151.367 307.938,153.803 308.110,156.944 306.152 C 160.480 303.948,162.579 304.107,163.804 306.670 C 165.121 309.424,167.471 309.032,168.756 305.845 C 169.601 303.747,169.399 303.806,172.663 304.713 C 175.493 305.499,176.713 305.597,178.259 305.160 C 178.627 305.056,178.714 305.147,178.897 305.826 C 179.617 308.497,183.715 308.428,185.046 305.722 C 185.396 305.008,185.534 304.900,186.097 304.892 C 187.026 304.879,187.449 304.613,188.784 303.205 L 189.970 301.953 191.345 301.953 C 193.057 301.953,193.027 301.976,196.198 298.336 C 200.673 293.200,203.244 291.935,206.112 293.457 C 208.301 294.618,209.139 294.266,209.535 292.019 C 209.781 290.623,209.593 289.678,208.885 288.750 L 208.355 288.056 208.687 286.850 C 208.870 286.187,209.193 285.343,209.406 284.975 L 209.793 284.306 201.060 275.572 L 192.327 266.837 185.470 266.744 C 178.029 266.644,176.574 266.496,172.489 265.428 C 158.457 261.758,147.336 250.446,143.876 236.321 C 142.888 232.289,142.777 230.566,142.728 218.496 C 142.703 212.351,142.658 209.564,142.627 212.301 L 142.571 217.277 124.704 199.411 C 114.876 189.584,106.836 181.655,106.836 181.790 M85.547 216.004 C 83.890 216.534,82.531 217.412,82.461 217.998 C 82.319 219.192,83.835 219.323,85.872 218.291 C 89.367 216.520,89.131 214.858,85.547 216.004 M151.608 222.001 C 151.533 231.423,152.218 235.314,154.887 240.633 C 159.997 250.817,170.878 257.804,181.640 257.811 L 183.300 257.813 167.531 242.041 L 151.763 226.270 151.708 221.289 L 151.653 216.309 151.608 222.001 M97.668 228.387 C 97.567 228.652,97.391 228.926,97.276 228.997 C 96.780 229.304,96.304 230.679,96.526 231.167 C 97.161 232.559,99.505 230.074,99.180 228.354 C 99.071 227.780,97.889 227.805,97.668 228.387 M104.692 228.706 C 103.225 230.295,103.222 231.184,104.683 230.969 C 106.126 230.757,106.995 229.538,106.401 228.557 C 105.924 227.766,105.528 227.801,104.692 228.706 M110.238 242.407 C 109.467 242.619,109.180 243.254,109.180 244.749 C 109.180 246.814,110.563 245.954,110.937 243.658 C 111.154 242.325,111.071 242.178,110.238 242.407 M119.531 252.721 C 119.155 252.811,118.533 252.941,118.149 253.008 C 115.184 253.527,116.871 256.978,119.888 256.565 C 121.428 256.353,124.219 254.582,124.219 253.816 C 124.219 253.120,120.997 252.367,119.531 252.721 M130.748 254.799 C 131.459 255.510,130.929 257.501,129.856 258.151 C 128.806 258.787,128.226 258.916,128.418 258.470 C 128.542 258.179,129.251 256.242,129.784 254.736 C 129.903 254.400,130.379 254.431,130.748 254.799 M107.401 278.538 C 106.302 278.941,106.037 280.924,107.056 281.128 C 109.651 281.647,111.821 280.162,110.458 278.800 C 109.937 278.279,108.453 278.152,107.401 278.538 M213.086 287.820 C 213.086 288.071,214.028 288.966,214.157 288.837 C 214.210 288.784,213.991 288.489,213.670 288.182 C 213.349 287.874,213.086 287.711,213.086 287.820 M212.877 293.076 C 212.351 293.238,211.654 293.676,211.176 294.144 C 208.045 297.213,213.203 300.759,216.625 297.891 C 217.604 297.070,218.196 294.608,217.479 294.336 C 217.234 294.242,217.002 294.086,216.964 293.988 C 216.620 293.104,214.395 292.608,212.877 293.076 M223.179 303.400 C 223.121 303.551,222.782 303.737,222.425 303.814 C 219.887 304.361,218.968 307.130,221.004 308.096 C 223.786 309.416,227.715 305.997,225.635 304.067 C 224.776 303.270,223.374 302.889,223.179 303.400 M211.927 307.214 C 211.111 308.029,210.878 310.200,211.531 310.901 C 212.289 311.714,214.453 311.053,214.453 310.008 C 214.453 309.838,214.595 309.542,214.769 309.349 C 215.773 308.241,212.990 306.150,211.927 307.214 M149.805 312.495 C 148.383 313.053,147.707 315.625,148.982 315.625 C 150.164 315.625,151.239 314.839,151.617 313.699 C 152.148 312.097,151.654 311.769,149.805 312.495 M189.788 314.823 C 189.382 314.888,189.058 315.029,189.069 315.137 C 189.079 315.244,189.210 315.307,189.358 315.277 C 189.547 315.238,189.489 315.473,189.165 316.058 C 187.986 318.189,188.813 319.113,190.971 318.076 C 192.868 317.165,193.248 315.692,191.783 314.934 C 191.208 314.637,191.013 314.626,189.788 314.823 M178.848 315.118 C 175.881 315.929,175.360 319.142,178.195 319.140 C 180.079 319.139,181.131 317.955,181.016 315.965 C 180.948 314.776,180.597 314.639,178.848 315.118 " stroke="none" fill="#dc1b9a" fill-rule="evenodd"></path><path id="path2" d="M193.340 76.951 C 190.172 78.626,190.295 82.862,193.650 87.598 C 194.215 88.396,194.516 89.050,194.592 89.648 C 194.779 91.101,194.960 91.797,195.153 91.797 C 195.253 91.797,195.287 91.875,195.228 91.971 C 195.134 92.123,195.442 93.223,195.835 94.141 C 195.904 94.302,195.946 94.500,195.929 94.580 C 195.912 94.661,195.992 94.727,196.105 94.727 C 196.219 94.727,196.258 94.814,196.191 94.922 C 196.125 95.029,196.164 95.117,196.278 95.117 C 196.391 95.117,196.484 95.331,196.484 95.592 C 196.484 95.852,196.622 96.204,196.791 96.373 C 196.960 96.542,197.056 96.680,197.004 96.680 C 196.952 96.680,202.505 102.209,209.344 108.966 C 216.182 115.724,221.802 121.229,221.832 121.199 C 221.863 121.170,220.676 119.909,219.196 118.396 C 217.715 116.884,216.475 115.532,216.440 115.392 C 216.406 115.251,216.295 115.107,216.195 115.071 C 216.095 115.035,216.062 114.927,216.121 114.831 C 216.180 114.735,216.118 114.457,215.983 114.213 C 215.848 113.969,215.756 113.704,215.779 113.623 C 215.802 113.542,215.727 113.477,215.613 113.477 C 215.500 113.477,215.451 113.405,215.504 113.318 C 215.558 113.231,215.353 112.666,215.048 112.061 C 214.743 111.457,214.530 110.925,214.576 110.880 C 214.621 110.835,214.524 110.687,214.360 110.551 C 214.196 110.415,214.063 110.214,214.063 110.104 C 214.063 109.795,212.818 107.993,211.865 106.921 C 210.862 105.794,208.249 100.567,205.621 94.434 C 203.063 88.463,202.934 87.993,202.932 84.641 C 202.929 80.923,202.565 79.980,200.775 79.048 C 200.187 78.742,199.443 78.238,199.121 77.929 C 197.730 76.592,194.919 76.117,193.340 76.951 M242.646 94.346 C 241.679 94.711,240.239 100.693,240.463 103.418 C 240.524 104.158,240.564 104.202,241.221 104.258 C 242.569 104.371,243.359 103.345,243.749 100.977 C 243.881 100.171,244.111 99.215,244.260 98.853 C 244.594 98.041,244.602 98.111,244.162 97.996 C 243.829 97.909,243.813 97.813,243.999 97.000 C 244.371 95.374,243.653 93.965,242.646 94.346 M243.699 104.157 C 242.600 104.823,242.043 105.806,241.527 107.989 C 240.923 110.544,240.359 111.464,238.513 112.908 C 236.305 114.634,235.911 115.032,234.917 116.540 C 233.578 118.573,232.658 118.770,230.619 117.460 C 228.100 115.841,226.159 117.967,226.965 121.462 C 227.350 123.134,226.918 124.900,226.280 124.261 C 226.209 124.190,226.074 124.256,225.981 124.407 C 225.840 124.635,225.758 124.638,225.503 124.426 C 225.334 124.286,225.194 124.248,225.192 124.341 C 225.191 124.435,225.108 124.382,225.008 124.224 C 224.908 124.066,224.781 123.982,224.727 124.036 C 224.375 124.388,246.198 145.689,247.440 146.207 C 257.540 150.421,265.789 158.809,269.610 168.750 C 269.879 169.448,270.102 169.932,270.108 169.825 C 270.113 169.718,275.114 174.627,281.222 180.733 C 289.657 189.167,292.356 191.758,292.451 191.511 C 292.519 191.332,292.657 191.237,292.757 191.299 C 293.730 191.900,294.187 188.757,293.372 187.068 C 292.844 185.973,292.790 185.724,292.976 185.234 C 293.095 184.923,293.185 184.646,293.178 184.619 C 293.018 184.051,294.170 183.521,295.453 183.573 C 296.519 183.615,297.067 183.424,297.803 182.754 C 298.671 181.963,298.246 181.326,296.365 180.599 C 294.369 179.828,294.312 178.519,296.215 177.153 C 297.538 176.202,297.781 175.546,297.493 173.694 C 297.083 171.055,295.847 169.030,294.377 168.590 C 292.793 168.115,292.596 167.003,293.964 166.251 C 295.516 165.398,295.787 164.888,295.279 163.774 C 294.877 162.892,294.044 162.896,291.740 163.790 C 289.473 164.669,289.136 163.172,290.797 159.600 C 292.986 154.894,292.968 153.516,290.717 153.516 C 289.796 153.516,288.937 154.014,286.724 155.832 C 284.932 157.305,283.063 157.579,284.481 156.162 C 285.175 155.468,285.104 154.317,284.344 153.954 C 283.651 153.624,282.864 153.924,282.699 154.583 C 282.462 155.528,281.055 154.975,281.055 153.937 C 281.055 153.702,281.368 152.742,281.751 151.804 C 283.016 148.701,282.882 147.549,281.257 147.573 C 279.724 147.595,279.297 148.108,279.297 149.927 C 279.297 152.782,278.065 153.584,276.729 151.598 C 275.278 149.440,274.628 149.171,273.340 150.195 C 272.509 150.856,272.366 150.881,271.680 150.488 C 270.687 149.921,268.466 150.239,267.798 151.044 C 267.600 151.283,267.206 151.367,266.285 151.367 L 265.039 151.367 265.039 150.697 C 265.039 150.230,265.143 149.993,265.381 149.918 C 265.938 149.741,267.405 148.207,267.339 147.870 C 267.286 147.599,266.814 147.557,263.725 147.547 C 260.615 147.536,260.124 147.492,259.791 147.191 C 258.413 145.944,259.580 143.603,262.832 141.092 C 263.777 140.362,266.177 138.482,268.164 136.914 C 270.151 135.346,272.656 133.399,273.730 132.586 C 277.203 129.960,278.125 128.693,278.125 126.549 C 278.125 123.890,275.728 123.176,272.754 124.950 C 270.936 126.035,270.139 126.294,266.926 126.847 C 262.780 127.560,262.201 127.908,259.018 131.611 C 256.731 134.271,254.085 134.515,252.950 132.170 C 252.003 130.214,252.203 128.728,253.921 124.968 C 255.323 121.898,255.424 120.602,254.304 120.023 C 253.395 119.553,252.790 119.654,252.017 120.404 C 250.267 122.104,249.228 118.772,248.929 110.504 C 248.860 108.596,248.695 106.848,248.532 106.299 C 247.884 104.118,245.506 103.064,243.699 104.157 M307.011 128.100 C 304.406 129.492,303.968 131.836,306.313 131.836 C 308.317 131.836,310.174 130.199,309.889 128.683 C 309.657 127.447,308.625 127.238,307.011 128.100 M180.911 143.304 C 181.208 143.349,181.647 143.348,181.887 143.302 C 182.128 143.255,181.885 143.218,181.348 143.220 C 180.811 143.221,180.614 143.259,180.911 143.304 M233.841 143.304 C 234.137 143.349,234.577 143.348,234.817 143.302 C 235.057 143.255,234.814 143.218,234.277 143.220 C 233.740 143.221,233.544 143.259,233.841 143.304 M281.431 144.936 C 280.618 145.022,279.371 145.227,278.660 145.392 C 277.520 145.657,277.302 145.658,276.818 145.406 C 275.590 144.765,274.090 145.185,273.629 146.299 C 273.498 146.616,273.268 146.875,273.119 146.875 C 272.970 146.875,272.700 147.048,272.518 147.260 C 272.294 147.522,272.046 147.609,271.739 147.532 C 270.366 147.187,269.067 148.677,269.961 149.570 C 270.471 150.080,272.132 149.558,272.368 148.814 C 272.448 148.561,272.849 148.464,274.255 148.358 C 278.862 148.010,284.928 145.763,283.573 144.905 C 283.423 144.810,283.213 144.743,283.105 144.756 C 282.998 144.768,282.245 144.849,281.431 144.936 M289.633 148.422 C 288.980 149.076,288.828 150.259,289.371 150.467 C 290.760 151.000,292.202 150.236,292.153 148.993 C 292.104 147.734,290.651 147.404,289.633 148.422 M234.033 152.283 C 234.221 152.332,234.529 152.332,234.717 152.283 C 234.905 152.234,234.751 152.194,234.375 152.194 C 233.999 152.194,233.845 152.234,234.033 152.283 M154.385 154.932 L 153.613 155.762 154.443 154.990 C 155.215 154.272,155.363 154.102,155.215 154.102 C 155.184 154.102,154.810 154.475,154.385 154.932 M254.199 161.328 C 254.945 162.080,255.600 162.695,255.654 162.695 C 255.707 162.695,255.141 162.080,254.395 161.328 C 253.648 160.576,252.994 159.961,252.940 159.961 C 252.886 159.961,253.453 160.576,254.199 161.328 M242.041 163.226 C 242.336 163.271,242.820 163.271,243.115 163.226 C 243.411 163.181,243.169 163.144,242.578 163.144 C 241.987 163.144,241.746 163.181,242.041 163.226 M247.656 165.332 C 248.021 165.708,248.363 166.016,248.416 166.016 C 248.470 166.016,248.216 165.708,247.852 165.332 C 247.487 164.956,247.145 164.648,247.091 164.648 C 247.038 164.648,247.292 164.956,247.656 165.332 M296.489 167.183 C 296.050 167.622,295.803 168.414,295.969 168.847 C 296.228 169.523,298.376 169.008,298.829 168.162 C 299.410 167.076,297.426 166.245,296.489 167.183 M207.180 169.474 C 207.423 169.521,207.775 169.519,207.961 169.470 C 208.148 169.421,207.949 169.383,207.520 169.385 C 207.090 169.387,206.937 169.427,207.180 169.474 M206.104 178.455 C 206.292 178.504,206.599 178.504,206.787 178.455 C 206.975 178.406,206.821 178.366,206.445 178.366 C 206.069 178.366,205.916 178.406,206.104 178.455 M208.252 178.455 C 208.440 178.504,208.748 178.504,208.936 178.455 C 209.124 178.406,208.970 178.366,208.594 178.366 C 208.218 178.366,208.064 178.406,208.252 178.455 M263.376 205.078 C 263.376 217.808,263.399 223.015,263.428 216.650 C 263.456 210.286,263.456 199.871,263.428 193.506 C 263.399 187.141,263.376 192.349,263.376 205.078 M272.356 190.820 C 272.356 195.708,272.381 197.708,272.412 195.264 C 272.443 192.820,272.443 188.821,272.412 186.377 C 272.381 183.933,272.356 185.933,272.356 190.820 M294.150 192.373 C 293.994 192.472,293.806 192.515,293.733 192.470 C 293.659 192.424,293.482 192.540,293.339 192.727 C 293.196 192.914,293.148 193.010,293.231 192.941 C 293.314 192.872,293.785 193.245,294.277 193.771 C 294.768 194.296,295.241 194.727,295.327 194.727 C 295.519 194.727,295.484 193.887,295.286 193.746 C 295.207 193.691,295.113 193.427,295.076 193.160 C 294.954 192.269,294.681 192.037,294.150 192.373 M297.559 197.070 C 299.084 198.608,299.113 198.626,298.943 197.949 C 298.834 197.512,298.880 197.461,299.389 197.461 C 300.191 197.461,300.869 196.872,300.695 196.326 C 300.504 195.723,299.734 195.588,298.827 195.997 C 298.357 196.209,297.934 196.280,297.716 196.186 C 297.522 196.101,297.260 196.048,297.134 196.068 C 297.008 196.088,296.849 196.014,296.781 195.904 C 296.712 195.793,296.554 195.703,296.429 195.703 C 296.304 195.703,296.812 196.318,297.559 197.070 M243.014 203.320 C 243.014 203.696,243.054 203.850,243.103 203.662 C 243.153 203.474,243.153 203.167,243.103 202.979 C 243.054 202.791,243.014 202.944,243.014 203.320 M243.014 206.641 C 243.014 207.017,243.054 207.170,243.103 206.982 C 243.153 206.794,243.153 206.487,243.103 206.299 C 243.054 206.111,243.014 206.265,243.014 206.641 M308.691 206.709 C 308.477 206.832,308.182 207.011,308.036 207.104 C 307.837 207.233,308.214 207.721,309.556 209.068 C 310.538 210.053,311.272 210.940,311.188 211.039 C 311.104 211.137,311.277 211.001,311.572 210.736 C 313.691 208.836,311.154 205.290,308.691 206.709 " stroke="none" fill="#fb7154" fill-rule="evenodd"></path><path id="path3" d="M174.512 83.672 C 172.196 84.694,172.710 87.859,175.337 88.754 C 179.178 90.063,181.821 86.158,178.258 84.438 C 177.701 84.170,177.026 83.827,176.758 83.677 C 176.149 83.337,175.276 83.335,174.512 83.672 M197.070 96.940 C 197.070 97.225,197.922 98.957,198.526 99.902 C 198.907 100.497,199.219 101.055,199.219 101.141 C 199.219 101.228,199.754 102.259,200.409 103.433 C 203.480 108.938,204.502 111.305,203.991 111.729 C 203.392 112.226,203.110 113.118,202.826 115.415 C 202.108 121.217,199.668 125.519,196.673 126.265 C 196.257 126.369,195.948 126.178,194.720 125.059 C 192.092 122.662,182.882 115.091,181.403 114.110 C 181.003 113.845,180.625 113.467,180.563 113.270 C 180.301 112.446,178.309 110.914,177.580 110.976 C 176.741 111.048,176.154 111.750,176.132 112.709 C 176.121 113.179,175.921 113.597,175.461 114.112 C 173.365 116.454,175.918 120.612,181.303 123.629 C 181.923 123.977,182.517 124.422,182.622 124.618 C 182.969 125.266,182.846 127.837,182.416 128.953 C 182.183 129.554,181.939 130.871,181.827 132.129 C 181.536 135.386,181.339 135.384,177.904 132.094 C 175.826 130.103,174.583 129.584,173.139 130.107 L 172.519 130.331 173.125 130.905 C 173.458 131.220,173.607 131.414,173.456 131.334 C 173.275 131.239,173.229 131.266,173.321 131.415 C 173.398 131.539,173.574 131.641,173.712 131.641 C 173.850 131.641,174.108 131.801,174.286 131.998 C 174.464 132.194,175.049 132.561,175.586 132.813 C 176.123 133.064,176.563 133.343,176.563 133.432 C 176.563 133.521,176.687 133.594,176.839 133.594 C 176.991 133.594,177.145 133.675,177.181 133.774 C 177.217 133.874,177.364 133.984,177.508 134.019 C 178.624 134.289,180.279 136.719,179.348 136.719 C 179.142 136.719,180.272 137.984,182.227 139.941 L 185.445 143.164 209.918 143.164 C 237.898 143.164,238.258 143.182,244.039 144.901 L 245.959 145.472 235.472 134.983 C 229.704 129.215,225.054 124.425,225.139 124.340 C 225.224 124.256,225.161 124.215,225.000 124.251 C 224.839 124.287,224.729 124.207,224.756 124.072 C 224.783 123.938,224.735 123.828,224.650 123.828 C 224.383 123.828,222.168 121.693,222.168 121.436 C 222.168 121.301,222.036 121.187,221.875 121.183 C 221.714 121.178,221.606 121.061,221.636 120.924 C 221.665 120.786,221.611 120.722,221.515 120.782 C 221.324 120.900,220.644 120.241,220.798 120.087 C 220.851 120.034,220.610 119.734,220.262 119.419 L 219.629 118.848 220.212 119.531 C 220.533 119.907,220.291 119.734,219.675 119.147 C 218.527 118.053,218.128 117.525,219.092 118.374 L 219.629 118.848 219.161 118.317 C 218.904 118.024,218.633 117.823,218.560 117.868 C 218.351 117.997,216.378 115.914,216.548 115.744 C 216.631 115.661,216.590 115.622,216.457 115.658 C 216.324 115.693,211.908 111.475,206.643 106.283 C 201.378 101.091,197.070 96.887,197.070 96.940 M156.104 108.990 C 155.090 109.398,157.198 112.117,158.519 112.106 C 159.797 112.096,159.061 110.392,157.232 109.124 C 156.688 108.747,156.704 108.749,156.104 108.990 M168.398 110.195 C 167.953 110.640,168.462 111.455,169.389 111.783 C 169.739 111.907,170.508 111.326,170.508 110.938 C 170.508 110.217,168.932 109.662,168.398 110.195 M206.701 117.871 C 208.835 125.400,207.903 129.559,203.939 130.193 L 203.155 130.319 202.732 128.978 C 201.691 125.677,202.727 121.608,205.998 116.149 C 206.140 115.913,206.159 115.961,206.701 117.871 M197.700 122.765 C 197.151 123.149,197.060 124.609,197.584 124.609 C 198.080 124.609,199.185 123.852,199.322 123.418 C 199.589 122.579,198.558 122.164,197.700 122.765 M169.382 123.860 C 169.210 124.032,169.295 124.245,169.734 124.745 C 170.087 125.147,170.313 125.622,170.313 125.962 C 170.313 126.682,170.727 126.833,171.584 126.425 C 172.397 126.037,172.676 125.400,172.161 125.105 C 171.967 124.993,171.483 124.617,171.086 124.268 C 170.334 123.607,169.770 123.472,169.382 123.860 M177.578 128.945 C 177.239 129.285,177.288 130.210,177.653 130.350 C 178.183 130.554,179.240 130.480,179.452 130.224 C 179.960 129.613,178.148 128.376,177.578 128.945 M203.223 160.901 L 212.012 169.640 214.258 170.082 C 228.897 172.963,240.684 185.140,242.723 199.489 L 242.865 200.488 253.078 210.645 L 263.292 220.801 263.226 199.902 C 263.162 179.501,263.151 178.959,262.749 177.128 C 259.757 163.495,248.782 153.673,235.059 152.347 C 233.951 152.240,224.737 152.159,213.770 152.160 L 194.434 152.161 203.223 160.901 M245.584 163.829 C 250.360 166.063,251.473 172.129,247.785 175.817 C 244.904 178.698,239.742 178.606,237.092 175.628 C 231.760 169.633,238.367 160.451,245.584 163.829 M205.908 169.471 C 206.096 169.520,206.404 169.520,206.592 169.471 C 206.780 169.421,206.626 169.381,206.250 169.381 C 205.874 169.381,205.720 169.421,205.908 169.471 M208.447 169.471 C 208.635 169.520,208.943 169.520,209.131 169.471 C 209.319 169.421,209.165 169.381,208.789 169.381 C 208.413 169.381,208.259 169.421,208.447 169.471 M270.203 170.020 C 272.395 176.273,272.493 177.942,272.332 206.412 L 272.201 229.719 283.199 240.719 C 291.833 249.353,294.118 251.739,293.827 251.817 C 293.624 251.871,293.848 251.879,294.326 251.834 C 295.737 251.700,296.839 250.642,297.575 248.716 C 297.948 247.739,298.039 247.694,298.535 248.242 C 299.575 249.391,301.173 247.864,300.446 246.417 C 300.192 245.913,300.086 245.868,299.309 245.930 L 298.452 245.998 298.516 244.727 C 298.598 243.077,298.873 243.031,301.367 244.253 C 306.983 247.002,309.998 247.300,311.818 245.285 C 313.910 242.969,311.340 240.507,307.343 240.995 C 304.867 241.298,304.490 241.166,303.819 239.763 C 302.478 236.961,303.063 235.157,305.566 234.373 C 306.647 234.035,306.871 233.829,306.637 233.391 C 306.088 232.365,306.503 231.952,308.301 231.733 C 311.542 231.340,311.618 229.649,308.480 227.714 C 306.114 226.255,305.567 225.025,305.944 222.007 C 306.117 220.623,306.588 220.355,308.025 220.825 C 309.687 221.369,311.333 220.761,311.692 219.471 C 312.059 218.150,311.023 217.379,308.610 217.179 C 307.257 217.067,306.544 216.892,305.565 216.434 C 304.862 216.105,303.959 215.776,303.559 215.703 C 302.620 215.531,301.172 214.504,301.172 214.010 C 301.172 213.242,303.318 211.910,304.551 211.913 C 305.104 211.915,306.111 211.335,306.591 210.738 L 307.030 210.194 307.622 210.747 C 308.308 211.388,309.060 211.598,310.083 211.435 C 311.545 211.203,311.507 211.027,309.579 209.091 C 308.146 207.652,307.854 207.263,308.054 207.062 C 308.253 206.861,308.243 206.835,307.998 206.928 C 307.831 206.991,307.577 207.207,307.432 207.408 C 307.181 207.757,307.111 207.742,305.782 207.055 C 304.173 206.224,303.356 206.125,301.465 206.534 C 299.649 206.926,297.975 206.928,297.651 206.537 C 297.515 206.373,296.892 205.923,296.266 205.536 C 295.381 204.990,295.038 204.634,294.718 203.931 C 294.493 203.434,294.226 202.875,294.127 202.688 C 293.820 202.115,293.920 201.953,294.580 201.952 C 296.193 201.949,297.932 200.813,298.726 199.242 L 299.060 198.581 297.631 197.143 C 296.605 196.110,296.104 195.735,295.855 195.815 C 295.540 195.914,295.406 195.656,295.477 195.091 C 295.486 195.022,295.021 194.494,294.444 193.917 L 293.394 192.868 292.173 194.202 C 291.196 195.269,290.870 195.512,290.544 195.414 C 289.036 194.962,287.902 195.218,287.704 196.056 L 287.598 196.504 286.719 196.033 C 284.631 194.915,285.784 193.822,290.254 192.684 C 291.681 192.320,292.780 191.740,292.762 191.360 C 292.755 191.209,292.661 191.246,292.519 191.455 C 292.314 191.757,290.974 190.488,281.177 180.713 C 275.066 174.617,270.128 169.805,270.203 170.020 M226.172 186.230 C 226.864 186.929,227.474 187.500,227.528 187.500 C 227.581 187.500,227.059 186.929,226.367 186.230 C 225.675 185.532,225.065 184.961,225.011 184.961 C 224.958 184.961,225.480 185.532,226.172 186.230 M298.244 201.799 C 295.978 202.953,295.927 205.019,298.174 204.597 C 299.339 204.379,301.336 201.854,300.622 201.504 C 300.144 201.270,299.006 201.411,298.244 201.799 M315.820 224.239 C 315.444 224.330,314.829 224.454,314.453 224.513 C 312.215 224.868,312.523 227.536,314.803 227.538 C 316.749 227.541,318.377 225.392,317.221 224.347 C 316.833 223.996,316.825 223.995,315.820 224.239 M291.990 250.972 C 292.103 251.184,292.391 251.462,292.629 251.590 C 292.978 251.776,292.948 251.701,292.479 251.204 C 291.801 250.486,291.705 250.440,291.990 250.972 M298.727 256.246 C 300.764 258.286,301.910 259.301,302.035 259.176 C 302.160 259.051,302.145 258.903,301.992 258.750 C 301.863 258.621,301.758 258.383,301.758 258.221 C 301.758 257.839,300.154 256.368,299.294 255.959 C 298.927 255.786,298.064 255.077,297.375 254.384 C 296.685 253.692,296.007 253.125,295.866 253.125 C 295.725 253.125,297.013 254.530,298.727 256.246 M303.201 259.090 C 302.373 259.894,302.371 259.873,303.361 260.881 C 303.813 261.342,304.062 261.719,303.914 261.719 C 303.767 261.719,303.697 261.770,303.759 261.832 C 304.101 262.174,305.794 260.703,305.967 259.915 C 306.265 258.559,304.339 257.985,303.201 259.090 M307.093 261.701 C 305.562 262.655,305.801 264.280,307.475 264.306 C 308.883 264.327,309.446 263.855,309.323 262.756 C 309.170 261.399,308.264 260.971,307.093 261.701 " stroke="none" fill="#fc5b57" fill-rule="evenodd"></path><path id="path4" d="M172.461 130.659 C 172.461 130.764,172.747 130.995,173.096 131.172 L 173.730 131.495 173.257 130.982 C 172.768 130.452,172.461 130.327,172.461 130.659 M158.449 131.388 C 157.661 131.540,156.926 132.491,156.653 133.713 C 156.155 135.938,155.325 136.712,154.796 135.445 C 154.246 134.129,152.811 134.675,150.506 137.077 L 149.743 137.873 149.268 137.141 C 148.303 135.653,146.924 135.151,146.128 135.999 C 145.324 136.855,145.712 138.082,147.271 139.617 L 148.303 140.633 147.858 141.106 C 147.207 141.800,146.326 142.156,144.703 142.383 C 143.910 142.494,142.828 142.797,142.298 143.057 C 141.402 143.497,141.316 143.507,141.073 143.201 C 140.166 142.054,139.800 140.659,140.028 139.215 L 140.176 138.281 139.570 138.282 C 137.498 138.284,137.083 139.723,138.095 143.394 C 139.043 146.828,137.019 146.985,134.864 143.645 C 133.790 141.980,133.090 141.406,132.135 141.406 C 131.256 141.406,131.771 142.714,133.619 145.177 C 135.309 147.428,135.348 148.021,133.906 149.577 C 132.818 150.752,132.737 150.922,132.148 153.245 C 131.476 155.896,130.804 157.332,129.678 158.524 C 129.156 159.076,128.681 159.757,128.622 160.037 C 128.564 160.318,128.469 160.769,128.413 161.040 C 127.874 163.632,121.558 165.379,112.563 165.425 L 111.551 165.430 110.624 163.916 C 106.626 157.389,104.713 155.890,101.465 156.741 C 98.919 157.408,97.937 158.665,98.091 161.061 C 98.362 165.283,103.831 172.023,108.923 174.409 C 111.239 175.494,113.181 176.896,112.876 177.263 C 112.699 177.477,112.724 177.939,112.986 179.286 C 113.541 182.144,112.704 184.258,111.061 184.148 C 110.684 184.122,110.417 184.037,110.465 183.959 C 110.514 183.880,110.474 183.767,110.377 183.707 C 110.281 183.647,110.139 183.181,110.062 182.671 C 109.814 181.014,109.142 180.273,107.888 180.273 C 107.061 180.273,106.641 180.616,106.641 181.289 C 106.641 181.626,106.703 181.839,106.779 181.763 C 106.855 181.687,114.926 189.634,124.716 199.423 L 142.514 217.220 142.644 209.848 C 142.715 205.793,142.773 197.455,142.773 191.320 C 142.773 184.730,142.857 179.488,142.978 178.511 C 145.487 158.211,162.510 143.179,183.006 143.166 L 185.445 143.164 182.235 139.949 C 179.762 137.473,178.966 136.783,178.770 136.946 C 178.630 137.062,178.516 137.089,178.516 137.006 C 178.516 136.922,178.347 137.048,178.142 137.285 C 177.839 137.634,177.802 137.836,177.946 138.339 C 178.362 139.789,178.287 139.876,176.745 139.731 L 175.365 139.601 174.524 140.503 C 173.794 141.288,173.584 141.404,172.926 141.391 C 171.914 141.372,170.695 140.940,171.154 140.764 C 172.176 140.372,170.347 139.412,168.369 139.302 C 165.886 139.165,163.924 140.245,166.151 140.524 L 167.264 140.663 166.298 141.137 C 165.178 141.687,164.508 141.639,163.054 140.902 C 160.691 139.704,159.963 138.163,159.813 134.033 C 159.702 130.971,159.784 131.130,158.449 131.388 M179.697 152.361 C 166.384 153.643,155.377 163.330,152.423 176.366 C 151.562 180.165,151.503 182.223,151.611 204.957 L 151.711 226.222 167.506 242.021 L 183.301 257.820 209.961 257.760 L 236.621 257.700 238.499 257.269 C 250.945 254.415,260.038 245.316,262.715 233.039 C 263.057 231.474,263.142 230.270,263.219 225.977 L 263.311 220.801 253.159 210.664 L 243.007 200.528 243.107 203.731 C 244.030 233.181,210.759 251.005,186.816 233.886 C 163.946 217.535,168.340 182.236,194.531 171.900 C 199.616 169.893,208.242 168.725,211.570 169.593 C 211.942 169.690,209.420 167.064,203.269 160.947 L 194.434 152.161 187.891 152.181 C 184.292 152.193,180.605 152.273,179.697 152.361 M122.852 166.885 C 127.120 167.531,129.057 168.710,128.632 170.403 C 128.487 170.984,126.686 172.266,126.015 172.266 C 125.061 172.266,124.036 173.154,124.028 173.987 C 124.015 175.280,124.935 175.532,126.593 174.692 C 127.703 174.129,128.205 174.165,129.019 174.866 C 129.780 175.520,129.748 176.835,128.982 176.406 C 128.629 176.208,127.734 176.473,127.734 176.775 C 127.734 176.858,127.334 177.126,126.845 177.370 C 126.356 177.614,125.556 178.241,125.068 178.763 C 124.234 179.654,124.164 179.690,123.894 179.357 C 123.035 178.298,121.218 175.330,120.388 173.628 C 119.414 171.631,119.168 171.418,118.513 172.010 C 118.191 172.301,112.847 167.557,113.152 167.252 C 113.778 166.625,119.666 166.403,122.852 166.885 M203.125 178.804 C 181.919 182.394,173.464 208.411,188.548 223.658 C 202.377 237.636,226.055 232.340,232.593 213.806 C 239.243 194.959,222.832 175.467,203.125 178.804 M117.106 181.423 C 117.927 182.322,117.995 182.455,117.578 182.331 C 116.880 182.124,116.239 181.442,116.018 180.672 C 115.913 180.306,115.899 180.089,115.987 180.189 C 116.074 180.289,116.578 180.845,117.106 181.423 M129.854 181.164 C 129.892 181.197,129.790 181.415,129.627 181.647 C 129.332 182.068,129.331 182.069,129.119 181.673 C 128.738 180.961,129.235 180.617,129.854 181.164 M272.008 232.203 C 270.121 245.646,261.082 257.842,249.102 263.107 L 247.677 263.733 247.545 264.826 C 247.473 265.426,247.295 266.209,247.149 266.565 L 246.884 267.213 245.952 266.571 C 245.439 266.219,244.828 265.723,244.594 265.471 L 244.168 265.011 242.738 265.411 C 238.085 266.715,238.831 266.678,214.501 266.791 L 192.381 266.895 201.135 275.647 C 209.608 284.118,209.905 284.392,210.386 284.173 C 211.438 283.693,212.633 284.883,212.825 286.601 C 212.890 287.176,213.106 287.599,213.590 288.098 C 213.962 288.481,214.224 288.836,214.174 288.886 C 213.931 289.129,215.924 289.019,216.421 288.762 C 217.177 288.371,217.496 287.827,217.773 286.456 C 217.985 285.410,218.026 285.347,218.272 285.697 C 218.652 286.241,219.588 286.578,220.481 286.493 L 221.247 286.419 221.481 287.497 C 222.060 290.173,223.938 292.657,225.296 292.543 C 226.362 292.453,226.667 291.899,227.143 289.192 C 227.920 284.762,228.824 283.947,234.550 282.517 C 236.798 281.956,237.762 281.531,238.442 280.801 C 238.817 280.400,239.026 280.332,239.635 280.414 C 240.861 280.578,241.990 279.552,241.991 278.271 C 241.993 277.097,243.918 277.960,245.272 279.742 C 246.066 280.786,246.113 280.914,245.916 281.479 C 245.326 283.172,246.933 284.508,248.358 283.510 C 248.880 283.145,250.583 284.158,250.590 284.838 C 250.605 286.222,252.554 286.979,253.675 286.035 C 253.994 285.767,254.489 285.547,254.774 285.547 C 255.943 285.547,256.585 284.886,256.926 283.332 C 257.045 282.788,257.066 282.780,258.065 282.906 C 259.791 283.124,260.378 283.409,261.740 284.688 C 263.924 286.739,265.036 286.601,266.716 284.070 C 267.503 282.883,267.711 282.806,268.331 283.465 L 268.760 283.923 268.269 284.979 C 267.132 287.422,268.088 289.610,270.375 289.800 C 273.356 290.047,275.102 286.526,272.789 284.930 C 272.447 284.694,272.139 284.480,272.103 284.455 C 271.941 284.338,274.092 281.836,274.354 281.836 C 275.696 281.836,276.401 282.878,276.238 284.623 C 276.030 286.849,277.610 287.697,279.834 286.552 C 280.769 286.071,280.833 285.831,280.271 284.917 C 278.787 282.502,279.721 280.739,283.139 279.502 C 285.109 278.789,285.155 278.786,285.161 279.346 C 285.186 281.986,288.863 284.573,291.741 283.976 C 293.561 283.598,292.466 282.170,289.414 280.941 C 287.297 280.089,286.967 279.431,287.691 277.498 C 288.652 274.931,290.425 273.830,292.434 274.550 C 293.542 274.947,294.010 274.677,294.010 273.641 C 294.010 272.790,293.328 272.168,291.979 271.789 C 290.688 271.427,290.648 271.365,291.228 270.628 C 291.786 269.919,292.603 269.531,293.538 269.531 C 295.617 269.531,295.111 267.554,292.698 266.249 C 290.809 265.228,290.441 264.648,291.682 264.648 C 293.560 264.648,295.003 261.916,293.439 261.321 C 292.335 260.902,291.386 261.135,290.381 262.072 L 289.844 262.573 289.844 261.771 C 289.844 261.331,289.668 260.560,289.453 260.059 C 288.725 258.359,288.968 257.749,290.625 257.122 C 293.070 256.196,292.809 253.090,290.327 253.564 C 289.885 253.649,289.860 253.625,290.100 253.343 C 290.584 252.778,290.613 252.382,290.209 251.868 C 289.650 251.157,289.564 249.747,290.053 249.304 C 290.291 249.088,290.430 249.050,290.430 249.200 C 290.430 249.330,290.512 249.387,290.612 249.325 C 290.712 249.263,290.849 249.303,290.918 249.414 C 290.987 249.525,291.115 249.571,291.204 249.516 C 291.292 249.462,291.417 249.614,291.480 249.855 C 291.712 250.734,292.999 251.854,293.803 251.875 C 294.207 251.886,294.512 251.886,294.478 251.875 C 294.445 251.864,289.450 246.906,283.377 240.857 L 272.337 229.858 272.008 232.203 M294.043 253.273 C 292.293 254.174,292.850 256.370,295.482 258.944 C 297.454 260.873,301.078 261.206,301.970 259.539 C 302.090 259.315,302.107 259.182,302.009 259.243 C 301.910 259.304,300.386 257.908,298.622 256.142 C 295.265 252.780,295.145 252.705,294.043 253.273 M288.484 255.643 C 287.885 257.281,287.109 257.849,287.109 256.650 C 287.109 255.788,287.480 255.137,288.156 254.809 C 288.931 254.434,288.928 254.428,288.484 255.643 M302.631 260.863 C 302.666 261.280,302.703 261.678,302.714 261.748 C 302.737 261.893,303.843 261.847,303.995 261.695 C 304.050 261.641,303.751 261.260,303.331 260.851 L 302.568 260.105 302.631 260.863 M301.713 266.745 C 301.145 267.100,300.667 268.128,300.942 268.403 C 301.681 269.142,303.906 268.548,303.906 267.612 C 303.906 266.629,302.677 266.142,301.713 266.745 M246.973 272.266 C 247.394 272.480,247.962 272.658,248.235 272.659 C 249.556 272.667,249.396 273.536,248.033 273.752 C 247.182 273.888,245.518 272.627,245.916 272.147 C 246.191 271.816,246.062 271.801,246.973 272.266 M305.472 279.536 C 304.117 280.255,304.591 281.398,306.463 281.923 C 308.444 282.479,309.691 281.691,308.968 280.341 C 308.505 279.476,306.470 279.008,305.472 279.536 M281.721 282.094 C 281.104 282.625,281.159 283.665,281.835 284.277 C 282.641 285.006,284.375 284.210,284.375 283.110 C 284.375 281.805,282.771 281.191,281.721 282.094 M293.115 286.344 C 292.203 286.875,292.861 288.867,293.948 288.867 C 295.413 288.867,296.012 287.144,294.718 286.656 C 294.400 286.536,294.141 286.369,294.141 286.285 C 294.141 286.071,293.523 286.106,293.115 286.344 M239.295 291.219 C 238.443 292.012,239.005 293.555,240.146 293.555 C 240.738 293.555,241.602 292.755,241.602 292.206 C 241.602 290.885,240.266 290.314,239.295 291.219 M261.523 295.842 C 260.149 296.347,260.489 298.426,261.947 298.435 C 262.733 298.439,263.071 298.252,263.390 297.634 C 264.077 296.305,263.021 295.291,261.523 295.842 " stroke="none" fill="#fc336a" fill-rule="evenodd"></path></g></svg>