<svg id="svg" version="1.1" xmlns="http://www.w3.org/2000/svg" xmlns:xlink="http://www.w3.org/1999/xlink" width="400" height="400" viewBox="0, 0, 400,400"><g id="svgg"><path id="path0" d="M54.512 149.569 C 52.347 150.188,51.636 150.666,49.053 153.240 C 44.132 158.145,44.617 153.060,44.491 201.158 L 44.382 242.917 45.810 245.758 C 47.451 249.022,49.056 250.589,52.564 252.352 L 55.048 253.600 165.640 253.600 L 276.232 253.600 279.016 252.161 C 282.659 250.277,283.578 249.359,285.336 245.850 L 286.800 242.927 286.800 232.121 L 286.800 221.316 288.069 220.952 C 288.766 220.752,289.426 220.321,289.534 219.994 C 289.699 219.495,289.628 219.484,289.093 219.926 C 286.464 222.095,282.398 220.667,281.800 217.365 C 281.042 213.173,277.562 210.800,272.170 210.800 C 269.644 210.800,269.600 210.881,269.600 215.556 C 269.600 219.715,269.299 220.235,266.600 220.738 C 265.500 220.943,265.005 221.131,265.500 221.155 C 266.557 221.208,266.938 231.702,265.920 232.720 C 265.407 233.233,70.179 233.452,67.100 232.943 L 65.600 232.695 65.600 201.348 L 65.600 170.000 165.753 170.000 L 265.907 170.000 266.148 170.900 C 266.281 171.395,266.395 173.150,266.403 174.800 C 266.413 176.859,266.654 178.321,267.171 179.459 L 267.924 181.119 265.895 181.683 C 264.606 182.042,263.635 182.600,263.233 183.213 L 262.600 184.179 264.047 183.289 C 265.937 182.128,276.017 181.930,277.233 183.030 C 277.615 183.376,278.890 183.795,280.064 183.962 C 281.735 184.198,282.542 184.582,283.772 185.726 C 284.637 186.531,285.447 187.087,285.571 186.962 C 285.696 186.837,285.304 186.374,284.699 185.934 C 284.095 185.494,283.600 184.873,283.600 184.554 C 283.600 184.236,283.318 183.867,282.973 183.734 C 282.456 183.536,282.550 183.275,283.510 182.247 C 284.150 181.561,284.914 180.370,285.208 179.600 C 285.502 178.830,285.980 177.845,286.271 177.411 C 286.669 176.818,286.800 174.481,286.800 167.988 L 286.800 159.354 285.429 156.629 C 283.624 153.042,282.382 151.805,278.938 150.164 L 276.077 148.800 166.538 148.828 C 62.773 148.855,56.869 148.895,54.512 149.569 M276.892 158.707 L 278.200 160.014 278.337 166.278 C 278.549 175.947,277.768 179.482,275.923 177.204 C 275.292 176.425,275.200 175.484,275.200 169.803 L 275.200 163.295 273.827 162.247 L 272.453 161.200 165.869 161.200 L 59.285 161.200 58.042 162.360 L 56.800 163.521 56.800 201.423 L 56.800 239.324 57.820 240.662 L 58.841 242.000 165.440 242.000 C 282.142 242.000,273.899 242.169,274.817 239.755 C 275.028 239.201,275.200 235.110,275.200 230.663 C 275.200 222.503,275.484 220.800,276.843 220.800 C 278.795 220.800,279.180 242.478,277.256 244.036 C 276.331 244.784,273.997 244.800,165.962 244.800 L 55.613 244.800 54.306 243.633 L 53.000 242.466 53.000 201.516 L 53.000 160.566 54.400 159.141 C 55.170 158.357,56.070 157.613,56.400 157.488 C 56.730 157.363,106.182 157.292,166.292 157.330 L 275.585 157.400 276.892 158.707 M275.600 212.379 C 276.460 212.637,276.320 212.722,274.600 212.982 C 273.500 213.149,272.015 213.620,271.300 214.029 L 270.000 214.773 270.000 213.387 L 270.000 212.000 272.300 212.040 C 273.565 212.062,275.050 212.215,275.600 212.379 " stroke="none" fill="#b65687" fill-rule="evenodd"></path><path id="path1" d="M55.100 159.572 L 53.600 161.118 53.600 201.415 L 53.600 241.713 54.900 242.885 L 56.200 244.056 165.854 244.033 C 226.164 244.020,275.786 243.903,276.126 243.773 C 277.495 243.248,278.451 224.765,277.211 222.803 C 276.325 221.403,276.047 223.382,275.926 231.936 C 275.801 240.774,275.790 240.880,274.856 241.636 C 273.874 242.430,58.914 242.884,57.777 242.094 C 55.929 240.811,56.000 242.440,56.002 201.411 L 56.004 163.000 57.222 161.700 L 58.441 160.400 165.920 160.402 L 273.400 160.404 274.600 161.363 L 275.800 162.323 276.041 169.461 C 276.317 177.646,276.251 177.109,276.900 176.461 C 277.255 176.107,277.438 173.765,277.531 168.398 L 277.662 160.835 276.244 159.418 L 274.827 158.000 165.713 158.013 L 56.600 158.027 55.100 159.572 M264.820 184.703 C 263.958 185.402,263.951 185.521,263.822 202.274 L 263.692 219.141 264.825 219.611 C 267.545 220.737,268.173 219.901,268.418 214.823 C 268.689 209.207,268.832 209.042,273.200 209.326 C 278.679 209.682,282.141 212.405,282.681 216.785 C 282.986 219.259,283.056 219.386,284.300 219.743 C 287.787 220.743,289.201 218.720,287.665 214.928 C 287.236 213.868,286.658 212.401,286.381 211.669 C 286.104 210.937,285.448 210.056,284.922 209.712 C 282.903 208.389,283.140 205.707,285.434 203.901 C 285.965 203.484,286.400 202.966,286.400 202.752 C 286.400 202.537,286.760 201.616,287.200 200.706 C 290.070 194.766,285.109 185.962,278.038 184.446 C 274.522 183.692,265.861 183.860,264.820 184.703 M87.467 184.667 C 87.320 184.813,87.200 192.743,87.200 202.289 L 87.200 219.644 89.100 219.522 L 91.000 219.400 91.109 212.341 C 91.246 203.510,90.573 204.200,99.041 204.200 C 107.228 204.200,106.551 203.491,106.800 212.319 L 107.000 219.400 108.800 219.400 L 110.600 219.400 110.711 202.800 C 110.838 183.840,110.889 184.400,109.041 184.400 C 107.020 184.400,106.891 184.830,106.740 192.080 C 106.565 200.454,107.220 199.800,99.000 199.800 C 90.777 199.800,91.432 200.454,91.272 192.088 C 91.197 188.204,90.968 185.202,90.723 184.907 C 90.284 184.378,87.929 184.204,87.467 184.667 M146.681 184.890 C 145.946 185.429,147.224 189.473,148.350 190.169 C 148.565 190.302,148.958 191.084,149.221 191.906 C 149.485 192.728,149.934 193.670,150.218 194.000 C 150.912 194.806,153.407 199.549,153.795 200.800 C 153.965 201.350,154.486 202.340,154.952 203.000 C 155.724 204.092,155.818 204.885,156.000 211.800 L 156.200 219.400 158.000 219.400 L 159.800 219.400 160.016 212.000 L 160.231 204.600 162.533 200.134 C 163.799 197.678,165.088 195.459,165.397 195.202 C 165.706 194.946,166.171 194.075,166.430 193.268 C 166.689 192.461,167.136 191.530,167.422 191.200 C 167.708 190.870,168.301 189.765,168.738 188.744 C 169.176 187.723,169.729 186.768,169.967 186.620 C 170.205 186.473,170.400 186.007,170.400 185.584 C 170.400 183.968,166.084 184.072,165.299 185.706 C 163.487 189.478,162.400 191.916,162.400 192.206 C 162.400 192.394,162.070 192.920,161.667 193.374 C 161.263 193.828,160.619 195.053,160.235 196.096 C 158.687 200.299,156.934 198.711,152.619 189.200 C 150.598 184.745,148.731 183.390,146.681 184.890 M206.300 184.676 C 205.207 184.962,205.171 185.609,205.289 203.000 L 205.400 219.400 213.400 219.499 C 219.850 219.578,221.594 219.483,222.400 219.009 C 222.950 218.686,223.981 218.146,224.690 217.809 C 225.400 217.473,226.260 216.658,226.601 215.999 C 226.942 215.339,227.360 214.800,227.530 214.800 C 228.539 214.800,229.294 208.586,228.564 206.286 C 228.262 205.336,226.162 202.493,225.205 201.740 C 224.682 201.328,224.689 201.184,225.265 200.536 C 226.211 199.474,228.000 195.015,228.000 193.722 C 228.000 192.314,226.007 187.200,225.459 187.200 C 225.230 187.200,224.559 186.736,223.967 186.168 C 222.361 184.629,210.357 183.615,206.300 184.676 M325.068 184.989 C 324.450 185.607,324.400 187.139,324.496 202.533 L 324.600 219.400 326.600 219.400 L 328.600 219.400 328.714 214.824 C 328.854 209.177,328.837 209.200,332.998 209.200 C 338.868 209.200,342.087 211.446,343.384 216.445 C 344.165 219.457,344.575 219.784,347.245 219.529 L 348.600 219.400 348.485 217.267 C 348.351 214.782,346.182 209.725,345.100 209.373 C 343.336 208.801,343.456 206.496,345.359 204.400 C 350.766 198.445,349.091 190.193,341.600 185.883 C 338.843 184.297,326.431 183.626,325.068 184.989 M221.333 189.995 C 222.932 191.398,223.422 193.637,222.631 195.921 C 221.459 199.308,213.393 201.055,210.818 198.480 C 209.302 196.963,208.929 190.398,210.300 189.357 C 211.865 188.169,219.774 188.626,221.333 189.995 M277.640 189.254 C 284.477 191.535,284.481 202.291,277.646 204.339 C 274.969 205.141,269.741 204.941,268.800 204.000 C 267.572 202.772,267.919 190.001,269.203 189.189 C 270.039 188.661,276.000 188.707,277.640 189.254 M340.534 190.254 C 341.560 191.053,342.400 191.734,342.400 191.767 C 342.400 191.801,342.768 192.876,343.218 194.156 L 344.037 196.485 343.204 198.987 C 341.773 203.288,339.238 204.800,333.454 204.800 C 328.549 204.800,328.800 205.243,328.800 196.587 C 328.800 187.990,328.259 188.800,334.001 188.800 L 338.669 188.800 340.534 190.254 M221.429 204.305 C 227.873 207.782,223.752 215.616,215.494 215.587 C 210.188 215.569,209.600 214.920,209.600 209.088 C 209.600 205.212,209.843 204.578,211.600 203.859 C 212.579 203.459,220.529 203.819,221.429 204.305 " stroke="none" fill="#f3eef2" fill-rule="evenodd"></path><path id="path2" d="M55.600 136.811 C 54.610 136.978,53.080 137.396,52.200 137.740 C 51.320 138.084,49.936 138.373,49.124 138.382 C 48.312 138.392,47.534 138.583,47.396 138.806 C 47.259 139.029,46.429 139.577,45.554 140.023 C 40.016 142.849,34.432 149.690,33.884 154.324 C 33.751 155.442,33.318 156.952,32.921 157.678 C 31.887 159.573,31.567 241.390,32.584 243.824 C 32.923 244.635,33.200 245.745,33.200 246.291 C 33.200 248.758,34.489 252.208,36.078 253.993 C 43.113 261.898,45.049 263.360,49.600 264.212 C 51.690 264.603,53.602 265.078,53.849 265.268 C 54.457 265.735,276.770 265.719,277.351 265.252 C 277.598 265.053,278.610 264.771,279.600 264.624 C 283.566 264.038,285.479 263.362,287.650 261.779 C 288.887 260.877,290.434 259.917,291.086 259.647 C 291.803 259.350,292.550 258.571,292.972 257.678 C 293.357 256.865,294.345 255.300,295.168 254.200 C 296.654 252.215,298.000 248.363,298.000 246.095 C 298.000 245.481,298.276 244.584,298.613 244.103 C 299.477 242.869,299.528 222.210,298.671 220.508 C 298.364 219.898,297.798 217.749,297.413 215.731 L 296.713 212.062 292.456 207.648 C 289.182 204.252,288.361 203.192,288.900 203.054 C 289.465 202.910,289.591 202.462,289.554 200.737 C 289.508 198.617,289.506 198.612,289.206 200.167 C 289.040 201.029,288.638 201.929,288.313 202.167 C 287.989 202.405,287.432 203.163,287.076 203.852 C 286.721 204.540,286.177 205.200,285.868 205.319 C 284.727 205.756,284.802 207.653,286.000 208.661 C 286.612 209.176,287.236 210.093,287.386 210.699 C 287.536 211.304,288.051 212.219,288.530 212.731 C 289.284 213.539,289.400 214.121,289.400 217.114 L 289.400 220.565 288.100 220.940 L 286.800 221.316 286.800 232.121 L 286.800 242.927 285.336 245.850 C 283.578 249.359,282.659 250.277,279.016 252.161 L 276.232 253.600 165.640 253.600 L 55.048 253.600 52.564 252.352 C 49.056 250.589,47.451 249.022,45.810 245.758 L 44.382 242.917 44.491 201.158 C 44.617 153.062,44.133 158.144,49.050 153.244 C 54.037 148.273,40.086 148.800,166.730 148.800 L 276.077 148.800 278.938 150.164 C 282.382 151.805,283.624 153.042,285.429 156.629 L 286.800 159.354 286.800 167.988 C 286.800 174.481,286.669 176.818,286.271 177.411 C 285.980 177.845,285.502 178.830,285.208 179.600 C 284.914 180.370,284.150 181.561,283.510 182.247 C 282.550 183.275,282.456 183.536,282.973 183.734 C 283.318 183.867,283.600 184.246,283.600 184.578 C 283.600 184.910,284.050 185.476,284.600 185.837 C 285.150 186.197,285.600 186.713,285.600 186.984 C 285.600 187.255,285.960 187.802,286.400 188.200 C 286.840 188.598,287.200 189.142,287.200 189.408 C 287.200 189.674,287.605 190.404,288.100 191.029 C 288.703 191.791,289.146 193.161,289.444 195.183 L 289.888 198.200 289.944 195.739 C 289.998 193.383,290.051 193.260,291.202 192.859 C 291.938 192.603,292.568 192.005,292.827 191.320 C 293.059 190.704,294.019 189.210,294.959 188.000 C 296.645 185.831,298.000 182.001,298.000 179.404 C 298.000 178.836,298.268 177.963,298.596 177.462 C 299.470 176.129,299.515 159.699,298.649 158.097 C 297.862 156.640,297.200 154.491,297.200 153.391 C 297.200 151.483,293.093 145.322,290.361 143.132 C 289.447 142.399,287.957 141.151,287.050 140.357 C 285.369 138.887,285.059 138.761,281.200 137.982 C 279.990 137.738,278.190 137.281,277.200 136.967 C 275.213 136.337,59.308 136.185,55.600 136.811 M65.600 201.348 L 65.600 232.695 67.100 232.943 C 70.179 233.452,265.407 233.233,265.920 232.720 C 266.247 232.393,266.400 230.490,266.400 226.765 L 266.400 221.289 264.907 221.009 C 261.746 220.416,262.000 222.036,262.000 202.479 L 262.000 184.986 262.955 183.580 C 263.696 182.490,264.363 182.058,265.923 181.658 L 267.935 181.143 267.176 179.471 C 266.654 178.320,266.413 176.867,266.403 174.800 C 266.395 173.150,266.281 171.395,266.148 170.900 L 265.907 170.000 165.753 170.000 L 65.600 170.000 65.600 201.348 M85.929 183.945 L 86.057 185.289 86.729 183.945 C 87.701 181.997,89.701 181.865,91.505 183.629 C 93.031 185.120,92.919 184.476,92.807 191.130 C 92.687 198.325,92.750 198.400,98.938 198.400 C 105.003 198.400,104.800 198.649,104.800 191.205 L 104.800 185.333 106.267 183.867 C 108.394 181.739,111.440 182.253,111.653 184.775 C 111.682 185.119,111.817 184.770,111.953 184.000 L 112.200 182.600 127.900 182.495 L 143.600 182.391 143.600 184.222 C 143.600 186.291,144.148 187.600,145.014 187.600 C 145.336 187.600,145.600 187.810,145.600 188.067 C 145.600 188.323,145.718 188.415,145.863 188.271 C 146.007 188.126,145.631 187.549,145.026 186.989 C 144.356 186.368,144.019 185.728,144.163 185.352 C 144.293 185.012,144.400 184.492,144.400 184.196 C 144.400 181.449,150.232 181.880,151.663 184.733 C 152.028 185.460,152.594 186.358,152.922 186.728 C 153.249 187.097,153.605 187.760,153.712 188.200 C 153.862 188.815,153.918 188.750,153.954 187.916 C 153.979 187.315,153.659 186.512,153.237 186.116 C 152.817 185.722,152.412 184.770,152.337 184.000 L 152.200 182.600 157.900 182.489 L 163.600 182.378 163.632 184.289 C 163.661 186.042,163.696 186.109,164.063 185.105 C 164.501 183.908,167.319 182.400,169.119 182.400 C 171.631 182.400,172.449 185.494,170.600 188.000 C 169.233 189.852,169.368 190.110,170.816 188.415 C 171.467 187.653,172.000 186.610,172.000 186.097 C 172.000 185.584,172.450 184.714,173.000 184.164 C 173.550 183.614,174.000 182.992,174.000 182.782 C 174.000 182.546,179.670 182.400,188.800 182.400 L 203.600 182.400 203.663 185.900 L 203.726 189.400 203.963 186.713 C 204.323 182.635,204.341 182.626,212.243 182.465 C 217.694 182.354,218.978 182.436,219.530 182.930 C 219.898 183.259,221.065 183.657,222.123 183.813 C 223.501 184.017,224.219 184.363,224.659 185.033 C 224.996 185.548,225.606 186.075,226.015 186.205 C 226.424 186.335,226.875 186.805,227.016 187.251 C 227.355 188.318,227.633 188.014,227.341 186.896 C 227.216 186.418,226.784 185.922,226.382 185.794 C 225.980 185.667,225.594 185.166,225.525 184.681 C 225.430 184.008,225.087 183.770,224.076 183.673 C 223.276 183.596,222.814 183.359,222.909 183.073 C 223.118 182.445,254.256 182.183,255.003 182.802 C 255.275 183.028,255.801 184.293,256.171 185.612 C 256.701 187.499,257.299 188.483,258.982 190.234 L 261.120 192.459 261.402 196.019 C 261.931 202.706,261.452 204.990,258.916 207.878 C 257.241 209.787,256.595 210.903,256.136 212.682 C 255.808 213.957,255.283 215.399,254.970 215.886 C 254.656 216.373,254.400 217.398,254.400 218.163 C 254.400 220.762,254.192 220.800,240.098 220.800 L 227.574 220.800 227.236 219.900 C 227.046 219.395,227.051 218.941,227.249 218.867 C 227.442 218.793,227.600 218.327,227.600 217.831 C 227.600 217.256,227.963 216.763,228.600 216.473 C 229.259 216.172,229.589 215.708,229.568 215.109 C 229.548 214.531,229.454 214.411,229.309 214.779 C 228.999 215.565,225.635 218.896,224.201 219.837 C 223.167 220.515,222.087 220.615,214.501 220.735 C 203.871 220.902,204.095 220.992,203.897 216.502 L 203.761 213.400 203.680 217.100 L 203.600 220.800 183.448 220.800 L 163.296 220.800 162.796 216.300 C 162.521 213.825,162.371 209.942,162.463 207.671 C 162.555 205.401,162.501 203.871,162.343 204.271 C 162.185 204.672,162.044 208.264,162.028 212.254 L 162.000 219.509 160.640 220.154 C 158.047 221.385,155.800 220.943,154.971 219.040 L 154.431 217.800 154.416 219.300 L 154.400 220.800 133.400 220.800 L 112.400 220.800 112.384 219.300 L 112.369 217.800 111.829 219.040 C 111.002 220.940,108.753 221.385,106.170 220.159 L 104.818 219.517 104.709 212.492 C 104.627 207.188,104.475 205.441,104.090 205.363 C 103.810 205.306,103.765 205.351,103.990 205.463 C 104.544 205.738,104.514 212.323,103.936 217.023 L 103.472 220.800 98.977 220.800 L 94.483 220.800 93.983 217.300 C 93.708 215.375,93.342 211.910,93.169 209.600 C 92.910 206.142,92.883 206.609,93.019 212.245 C 93.215 220.392,93.132 220.577,89.267 220.591 C 87.073 220.600,86.978 220.555,86.301 219.200 L 85.601 217.800 85.601 219.300 L 85.600 220.800 83.060 220.800 C 81.663 220.800,79.953 220.602,79.260 220.361 L 78.000 219.922 78.000 201.428 C 78.000 191.256,78.126 182.807,78.281 182.653 C 78.435 182.498,80.190 182.423,82.181 182.486 L 85.800 182.600 85.929 183.945 M103.781 182.770 C 104.321 183.644,104.530 196.762,104.013 197.384 C 103.608 197.872,102.567 198.000,99.013 198.000 C 92.498 198.000,92.694 198.484,93.853 185.300 L 94.107 182.400 98.830 182.400 C 101.428 182.400,103.656 182.567,103.781 182.770 M323.760 183.760 L 322.400 185.120 322.400 202.098 L 322.400 219.076 323.300 219.838 C 324.199 220.599,324.199 220.599,323.500 219.769 C 322.858 219.005,322.800 217.552,322.800 202.099 L 322.800 185.262 324.031 184.031 L 325.262 182.800 331.151 182.800 C 335.296 182.800,337.206 182.948,337.601 183.300 C 338.078 183.725,338.082 183.696,337.632 183.100 C 337.169 182.488,336.348 182.400,331.111 182.400 L 325.120 182.400 323.760 183.760 M344.800 186.116 C 344.800 186.190,345.352 186.779,346.026 187.424 C 346.745 188.113,347.144 188.320,346.992 187.923 C 346.772 187.350,344.800 185.724,344.800 186.116 M162.414 187.174 C 161.708 188.494,161.959 188.960,162.800 187.891 C 163.688 186.762,163.789 186.400,163.214 186.400 C 163.002 186.400,162.642 186.748,162.414 187.174 M228.162 189.142 C 229.009 190.095,229.200 190.182,229.200 189.614 C 229.200 189.402,228.795 189.016,228.300 188.756 C 227.405 188.286,227.404 188.288,228.162 189.142 M154.000 189.822 C 154.000 189.966,154.450 190.619,155.000 191.273 C 155.550 191.927,156.000 192.294,156.000 192.089 C 156.000 191.884,155.550 191.231,155.000 190.638 C 154.450 190.044,154.000 189.677,154.000 189.822 M219.549 190.278 C 219.799 190.760,220.195 191.273,220.429 191.418 C 221.225 191.910,221.045 191.402,220.068 190.400 C 219.185 189.494,219.136 189.483,219.549 190.278 M269.797 190.063 C 269.141 191.774,269.803 203.790,270.562 203.936 C 278.110 205.386,284.937 197.704,280.264 193.019 C 277.469 190.217,270.494 188.247,269.797 190.063 M337.340 189.903 C 337.496 190.156,338.191 190.767,338.884 191.260 C 339.577 191.754,340.017 191.950,339.860 191.697 C 339.704 191.444,339.009 190.833,338.316 190.340 C 337.623 189.846,337.183 189.650,337.340 189.903 M211.281 193.251 C 211.214 196.125,211.317 196.794,211.900 197.251 C 212.515 197.733,212.541 197.725,212.117 197.180 C 211.852 196.839,211.574 195.039,211.499 193.180 L 211.363 189.800 211.281 193.251 M229.334 193.600 C 229.334 195.250,229.405 195.925,229.491 195.100 C 229.578 194.275,229.578 192.925,229.491 192.100 C 229.405 191.275,229.334 191.950,229.334 193.600 M160.241 192.063 C 159.294 193.415,159.462 193.883,160.446 192.633 C 160.911 192.042,161.199 191.466,161.086 191.353 C 160.974 191.240,160.593 191.560,160.241 192.063 M221.693 193.600 C 221.693 194.370,221.775 194.685,221.876 194.300 C 221.976 193.915,221.976 193.285,221.876 192.900 C 221.775 192.515,221.693 192.830,221.693 193.600 M275.296 198.188 C 276.441 198.759,276.700 198.745,278.683 198.003 C 281.338 197.010,281.200 196.999,281.200 198.200 C 281.200 198.925,280.985 199.200,280.420 199.200 C 279.991 199.200,279.470 199.503,279.263 199.874 C 278.910 200.504,278.815 200.502,277.815 199.846 C 276.867 199.225,276.643 199.211,275.863 199.722 C 275.379 200.039,274.176 200.425,273.191 200.579 C 272.206 200.733,271.085 200.947,270.700 201.056 C 270.098 201.226,270.000 200.963,270.000 199.171 L 270.000 197.089 272.027 197.329 C 273.143 197.461,274.613 197.847,275.296 198.188 M341.600 199.186 C 341.600 199.472,340.925 200.346,340.100 201.129 C 338.632 202.521,338.627 202.536,339.866 201.810 C 341.083 201.096,342.261 199.327,341.815 198.882 C 341.697 198.763,341.600 198.900,341.600 199.186 M331.712 203.895 C 332.764 203.977,334.384 203.976,335.312 203.892 C 336.240 203.808,335.380 203.741,333.400 203.742 C 331.420 203.743,330.660 203.812,331.712 203.895 M347.200 203.933 C 347.200 204.190,346.858 204.742,346.439 205.161 C 346.021 205.579,345.552 206.344,345.397 206.861 C 345.242 207.377,345.697 206.937,346.407 205.883 C 347.117 204.828,347.586 203.853,347.449 203.716 C 347.312 203.579,347.200 203.677,347.200 203.933 M211.680 205.280 C 210.941 206.019,211.050 212.008,211.823 213.111 C 212.499 214.077,218.852 214.487,219.400 213.600 C 219.558 213.344,218.273 213.200,215.831 213.200 C 211.367 213.200,211.484 213.335,211.681 208.395 L 211.800 205.400 215.800 205.177 L 219.800 204.955 215.980 204.877 C 213.447 204.826,211.998 204.962,211.680 205.280 M222.171 209.455 C 222.171 210.747,222.289 211.353,222.458 210.926 C 222.851 209.928,222.869 207.690,222.486 207.453 C 222.313 207.346,222.171 208.247,222.171 209.455 M230.408 208.637 C 230.647 209.697,230.607 210.363,230.277 210.786 C 229.857 211.327,229.885 211.333,230.518 210.836 C 231.242 210.267,231.166 208.281,230.389 207.451 C 230.209 207.259,230.218 207.793,230.408 208.637 M329.867 211.067 C 329.720 211.213,329.603 211.528,329.606 211.767 C 329.610 212.038,329.727 212.020,329.918 211.719 C 330.096 211.438,331.465 211.180,333.212 211.099 L 336.200 210.959 333.167 210.879 C 331.498 210.836,330.013 210.920,329.867 211.067 M270.000 213.387 L 270.000 214.773 271.300 214.029 C 272.015 213.620,273.500 213.149,274.600 212.982 C 277.108 212.602,275.888 212.102,272.300 212.040 L 270.000 212.000 270.000 213.387 M341.062 214.000 C 341.316 214.330,341.606 215.050,341.707 215.600 L 341.891 216.600 341.946 215.549 C 341.976 214.970,341.686 214.252,341.300 213.949 C 340.691 213.471,340.660 213.478,341.062 214.000 " stroke="none" fill="#90547e" fill-rule="evenodd"></path><path id="path3" d="M0.000 200.000 L 0.000 400.000 200.000 400.000 L 400.000 400.000 400.000 200.000 L 400.000 0.000 200.000 0.000 L 0.000 0.000 0.000 200.000 M277.200 136.967 C 278.190 137.281,279.990 137.738,281.200 137.982 C 285.059 138.761,285.369 138.887,287.050 140.357 C 287.957 141.151,289.447 142.399,290.361 143.132 C 293.093 145.322,297.200 151.483,297.200 153.391 C 297.200 154.491,297.862 156.640,298.649 158.097 C 299.515 159.699,299.470 176.129,298.596 177.462 C 298.268 177.963,298.000 178.836,298.000 179.404 C 298.000 182.001,296.645 185.831,294.959 188.000 C 294.019 189.210,293.059 190.704,292.827 191.320 C 292.574 191.991,291.940 192.602,291.245 192.844 L 290.085 193.248 289.796 198.074 C 289.557 202.046,289.390 202.929,288.853 203.067 C 288.379 203.188,289.367 204.444,292.456 207.648 L 296.713 212.062 297.413 215.731 C 297.798 217.749,298.364 219.898,298.671 220.508 C 299.528 222.210,299.477 242.869,298.613 244.103 C 298.276 244.584,298.000 245.481,298.000 246.095 C 298.000 248.363,296.654 252.215,295.168 254.200 C 294.345 255.300,293.357 256.865,292.972 257.678 C 292.550 258.571,291.803 259.350,291.086 259.647 C 290.434 259.917,288.887 260.877,287.650 261.779 C 285.479 263.362,283.566 264.038,279.600 264.624 C 278.610 264.771,277.598 265.053,277.351 265.252 C 276.770 265.719,54.457 265.735,53.849 265.268 C 53.602 265.078,51.690 264.603,49.600 264.212 C 45.049 263.360,43.113 261.898,36.078 253.993 C 34.489 252.208,33.200 248.758,33.200 246.291 C 33.200 245.745,32.923 244.635,32.584 243.824 C 31.567 241.390,31.887 159.573,32.921 157.678 C 33.318 156.952,33.751 155.442,33.884 154.324 C 34.432 149.690,40.016 142.849,45.554 140.023 C 46.429 139.577,47.259 139.029,47.396 138.806 C 47.534 138.583,48.312 138.392,49.124 138.382 C 49.936 138.373,51.320 138.084,52.200 137.740 C 53.080 137.396,54.610 136.978,55.600 136.811 C 59.308 136.185,275.213 136.337,277.200 136.967 M78.281 182.653 C 78.126 182.807,78.000 191.256,78.000 201.428 L 78.000 219.922 79.260 220.361 C 79.953 220.602,81.647 220.800,83.026 220.800 L 85.532 220.800 85.787 217.900 C 85.927 216.305,85.988 207.710,85.921 198.800 L 85.800 182.600 82.181 182.486 C 80.190 182.423,78.435 182.498,78.281 182.653 M93.853 185.300 C 92.694 198.484,92.498 198.000,99.013 198.000 C 104.907 198.000,104.590 198.487,104.267 189.954 C 103.954 181.654,104.491 182.400,98.830 182.400 L 94.107 182.400 93.853 185.300 M112.267 182.667 C 111.928 183.005,111.921 215.885,112.259 218.700 L 112.511 220.800 133.400 220.800 L 154.289 220.800 154.541 218.700 C 155.242 212.859,154.855 205.291,153.800 204.236 C 153.172 203.609,152.800 202.784,152.800 202.022 C 152.800 201.234,152.515 200.630,151.990 200.303 C 151.544 200.027,150.986 199.085,150.750 198.211 C 150.514 197.337,149.889 196.108,149.360 195.480 C 148.832 194.852,148.286 193.857,148.147 193.269 C 148.009 192.681,147.581 191.840,147.197 191.400 C 146.813 190.960,146.282 189.925,146.018 189.100 C 145.754 188.275,145.288 187.600,144.983 187.600 C 144.147 187.600,143.600 186.266,143.600 184.226 L 143.600 182.400 128.067 182.400 C 119.523 182.400,112.413 182.520,112.267 182.667 M152.286 182.647 C 151.849 183.084,152.491 185.377,153.258 186.116 C 153.696 186.538,154.000 187.390,154.000 188.195 C 154.000 189.097,154.340 189.926,155.006 190.644 C 155.559 191.241,156.120 192.407,156.252 193.235 C 156.681 195.917,159.574 196.387,159.594 193.778 C 159.597 193.325,160.031 192.371,160.558 191.657 C 161.084 190.944,161.719 189.551,161.967 188.563 C 162.216 187.576,162.685 186.665,163.010 186.541 C 163.419 186.384,163.600 185.713,163.600 184.357 L 163.600 182.400 158.067 182.400 C 155.023 182.400,152.422 182.511,152.286 182.647 M174.000 182.782 C 174.000 182.992,173.550 183.614,173.000 184.164 C 172.450 184.714,172.000 185.581,172.000 186.091 C 172.000 186.601,171.484 187.644,170.854 188.409 C 170.223 189.174,169.579 190.385,169.422 191.100 C 169.265 191.814,168.822 192.624,168.437 192.900 C 168.052 193.175,167.527 194.010,167.270 194.755 C 167.014 195.500,166.559 196.310,166.259 196.555 C 165.960 196.800,165.407 197.799,165.030 198.776 C 164.654 199.752,164.105 200.742,163.811 200.976 C 162.451 202.054,161.989 209.899,162.864 217.023 L 163.328 220.800 183.402 220.800 L 203.476 220.800 203.738 215.337 C 204.073 208.353,204.072 194.080,203.737 187.500 L 203.477 182.400 188.738 182.400 C 179.647 182.400,174.000 182.546,174.000 182.782 M223.067 182.667 C 222.508 183.225,222.845 183.554,224.100 183.675 C 225.087 183.770,225.430 184.012,225.525 184.681 C 225.594 185.166,225.981 185.667,226.386 185.795 C 226.790 185.924,227.239 186.517,227.384 187.114 C 227.530 187.711,228.043 188.505,228.524 188.877 C 229.870 189.917,229.840 196.664,228.484 198.109 C 226.937 199.759,226.889 201.654,228.357 203.156 C 229.041 203.855,229.600 204.831,229.600 205.325 C 229.600 205.818,229.847 206.577,230.149 207.011 C 231.074 208.340,231.314 210.207,230.634 210.772 C 230.294 211.054,229.913 212.316,229.760 213.670 C 229.535 215.663,229.330 216.140,228.545 216.498 C 227.958 216.765,227.600 217.271,227.600 217.831 C 227.600 218.327,227.442 218.793,227.249 218.867 C 227.051 218.941,227.046 219.395,227.236 219.900 L 227.574 220.800 240.098 220.800 C 254.192 220.800,254.400 220.762,254.400 218.163 C 254.400 217.398,254.656 216.373,254.970 215.886 C 255.283 215.399,255.808 213.957,256.136 212.682 C 256.595 210.903,257.241 209.787,258.916 207.878 C 261.452 204.990,261.931 202.706,261.402 196.019 L 261.120 192.459 258.993 190.246 C 257.365 188.552,256.709 187.489,256.195 185.716 C 255.826 184.442,255.339 183.175,255.113 182.900 C 254.669 182.360,223.600 182.134,223.067 182.667 M337.563 182.955 C 337.817 183.261,338.981 183.630,340.151 183.777 C 342.735 184.099,346.258 186.517,347.237 188.639 C 347.588 189.399,348.218 190.271,348.637 190.577 C 350.018 191.585,350.014 201.255,348.632 202.536 C 348.064 203.062,347.597 203.651,347.593 203.846 C 347.589 204.041,347.041 205.003,346.376 205.985 C 345.198 207.723,345.188 207.778,345.989 208.074 C 346.442 208.242,346.998 208.878,347.226 209.489 C 347.454 210.100,348.037 210.905,348.521 211.277 C 349.299 211.876,349.416 212.399,349.541 215.852 C 349.707 220.433,349.459 220.804,346.224 220.794 C 342.928 220.784,342.255 220.226,341.882 217.188 C 341.640 215.210,341.333 214.384,340.582 213.684 C 340.042 213.180,339.600 212.610,339.600 212.417 C 339.600 211.873,335.855 211.200,332.823 211.200 C 329.540 211.200,329.600 211.106,329.600 216.219 C 329.600 220.606,329.259 221.023,325.938 220.704 C 322.187 220.343,322.400 221.465,322.400 202.098 L 322.400 185.120 323.760 183.760 L 325.120 182.400 331.111 182.400 C 335.735 182.400,337.207 182.527,337.563 182.955 M211.867 189.867 C 211.387 190.346,211.571 196.611,212.080 197.120 C 213.190 198.230,219.755 197.390,220.885 195.994 C 223.340 192.963,220.497 189.600,215.480 189.600 C 213.639 189.600,212.013 189.720,211.867 189.867 M329.867 189.867 C 329.720 190.013,329.600 193.163,329.600 196.867 L 329.600 203.600 333.600 203.600 C 335.800 203.600,337.600 203.435,337.600 203.233 C 337.600 203.031,338.249 202.464,339.041 201.975 C 340.976 200.779,341.997 199.002,341.999 196.828 C 342.000 195.009,341.265 192.400,340.750 192.400 C 340.591 192.400,339.636 191.770,338.627 191.000 C 336.834 189.632,330.873 188.860,329.867 189.867 M270.000 199.171 C 270.000 200.963,270.098 201.226,270.700 201.056 C 271.085 200.947,272.206 200.733,273.191 200.579 C 274.176 200.425,275.379 200.039,275.863 199.722 C 276.643 199.211,276.867 199.225,277.815 199.846 C 278.815 200.502,278.910 200.504,279.263 199.874 C 279.470 199.503,279.991 199.200,280.420 199.200 C 280.985 199.200,281.200 198.925,281.200 198.200 C 281.200 196.999,281.338 197.010,278.683 198.003 C 276.700 198.745,276.441 198.759,275.296 198.188 C 274.613 197.847,273.143 197.461,272.027 197.329 L 270.000 197.089 270.000 199.171 M93.638 205.568 C 92.993 205.977,93.192 212.219,94.026 217.700 L 94.497 220.800 98.985 220.800 L 103.472 220.800 103.936 217.023 C 104.639 211.300,104.558 205.746,103.767 205.443 C 102.781 205.064,94.267 205.170,93.638 205.568 M211.867 205.467 C 211.533 205.800,211.513 211.709,211.843 212.567 C 212.101 213.241,218.637 213.444,220.787 212.845 C 222.559 212.351,222.814 207.614,221.158 205.958 C 220.390 205.190,212.557 204.776,211.867 205.467 " stroke="none" fill="#4c5474" fill-rule="evenodd"></path><path id="path4" d="M56.400 157.488 C 56.070 157.613,55.170 158.357,54.400 159.141 L 53.000 160.566 53.000 201.516 L 53.000 242.466 54.306 243.633 L 55.613 244.800 165.962 244.800 C 273.997 244.800,276.331 244.784,277.256 244.036 C 279.180 242.478,278.795 220.800,276.843 220.800 C 275.484 220.800,275.200 222.503,275.200 230.663 C 275.200 235.110,275.028 239.201,274.817 239.755 C 273.899 242.169,282.142 242.000,165.440 242.000 L 58.841 242.000 57.820 240.662 L 56.800 239.324 56.800 201.423 L 56.800 163.521 58.042 162.360 L 59.285 161.200 165.869 161.200 L 272.453 161.200 273.827 162.247 L 275.200 163.295 275.200 169.803 C 275.200 175.484,275.292 176.425,275.923 177.204 C 277.768 179.482,278.549 175.947,278.337 166.278 L 278.200 160.014 276.892 158.707 L 275.585 157.400 166.292 157.330 C 106.182 157.292,56.730 157.363,56.400 157.488 M276.244 159.418 L 277.662 160.835 277.531 168.398 C 277.438 173.765,277.255 176.107,276.900 176.461 C 276.251 177.109,276.317 177.646,276.041 169.461 L 275.800 162.323 274.600 161.363 L 273.400 160.404 165.920 160.402 L 58.441 160.400 57.222 161.700 L 56.004 163.000 56.002 201.411 C 56.000 242.440,55.929 240.811,57.777 242.094 C 58.914 242.884,273.874 242.430,274.856 241.636 C 275.790 240.880,275.801 240.774,275.926 231.936 C 276.047 223.382,276.325 221.403,277.211 222.803 C 278.451 224.765,277.495 243.248,276.126 243.773 C 275.786 243.903,226.164 244.020,165.854 244.033 L 56.200 244.056 54.900 242.885 L 53.600 241.713 53.600 201.415 L 53.600 161.118 55.100 159.572 L 56.600 158.027 165.713 158.013 L 274.827 158.000 276.244 159.418 M86.909 183.482 C 86.263 184.468,86.190 186.084,86.088 201.733 C 85.956 221.817,85.815 221.014,89.433 220.714 C 93.158 220.405,93.227 220.240,92.930 212.369 L 92.676 205.646 93.638 205.408 C 94.167 205.276,96.850 205.221,99.600 205.284 L 104.600 205.400 104.709 212.459 L 104.818 219.517 106.170 220.159 C 108.050 221.051,110.217 220.983,111.200 220.000 C 112.078 219.122,112.474 186.898,111.633 184.688 C 110.608 181.991,108.470 181.663,106.267 183.867 L 104.800 185.333 104.800 191.205 C 104.800 198.649,105.003 198.400,98.938 198.400 C 92.750 198.400,92.687 198.325,92.807 191.130 C 92.919 184.479,93.028 185.118,91.524 183.647 C 89.835 181.996,87.928 181.927,86.909 183.482 M145.029 183.029 C 144.683 183.374,144.400 183.900,144.400 184.196 C 144.400 184.492,144.293 185.012,144.163 185.352 C 144.022 185.719,144.322 186.341,144.904 186.885 C 145.442 187.388,146.098 188.461,146.361 189.268 C 146.625 190.075,147.093 190.945,147.400 191.200 C 147.707 191.455,148.174 192.325,148.437 193.132 C 148.701 193.939,149.340 195.109,149.858 195.731 C 150.376 196.353,150.800 197.299,150.800 197.833 C 150.800 198.368,151.238 199.186,151.773 199.651 C 152.330 200.136,152.856 201.146,153.002 202.013 C 153.143 202.847,153.605 203.843,154.029 204.226 C 154.735 204.866,154.800 205.522,154.800 212.062 C 154.800 220.988,155.841 222.431,160.640 220.154 L 162.000 219.509 162.000 212.490 C 162.000 205.140,162.537 201.938,164.050 200.272 C 164.414 199.872,164.809 199.057,164.928 198.461 C 165.047 197.864,165.591 196.895,166.137 196.306 C 166.682 195.718,167.246 194.703,167.389 194.051 C 167.532 193.400,167.886 192.776,168.176 192.664 C 168.466 192.553,168.986 191.633,169.331 190.620 C 169.676 189.607,170.328 188.309,170.779 187.735 C 171.827 186.404,171.873 183.971,170.869 183.062 C 169.164 181.519,164.762 183.079,163.971 185.506 C 163.703 186.328,163.150 187.429,162.742 187.954 C 162.334 188.479,162.000 189.126,162.000 189.392 C 162.000 190.030,160.850 192.322,160.386 192.609 C 160.185 192.733,159.827 193.555,159.590 194.437 C 158.986 196.680,156.750 196.105,156.192 193.563 C 156.049 192.913,155.521 191.890,155.018 191.290 C 154.515 190.691,153.970 189.570,153.807 188.800 C 153.644 188.030,153.244 187.097,152.918 186.728 C 152.593 186.358,152.028 185.460,151.663 184.733 C 150.559 182.532,146.554 181.503,145.029 183.029 M206.104 182.682 C 204.012 183.085,204.000 183.196,204.000 202.080 L 204.000 219.582 204.983 220.225 C 206.544 221.249,222.541 220.925,224.201 219.837 C 227.030 217.982,229.203 215.296,229.609 213.150 C 229.825 212.011,230.171 210.875,230.378 210.626 C 230.606 210.352,230.615 209.625,230.401 208.786 C 229.428 204.966,229.039 203.913,228.528 203.717 C 226.657 202.999,226.613 198.985,228.461 197.677 C 229.571 196.892,229.551 190.442,228.437 189.433 C 228.017 189.053,227.457 188.221,227.194 187.584 C 226.930 186.948,226.389 186.324,225.993 186.198 C 225.596 186.072,224.993 185.544,224.653 185.024 C 224.196 184.328,223.509 184.008,222.037 183.805 C 220.939 183.654,219.829 183.276,219.571 182.965 C 219.117 182.417,208.620 182.197,206.104 182.682 M264.000 183.291 C 263.230 183.774,262.468 184.356,262.306 184.585 C 262.144 184.813,262.009 192.763,262.006 202.251 C 261.999 222.082,261.685 220.600,265.894 220.600 C 269.290 220.600,269.600 220.178,269.600 215.556 C 269.600 210.881,269.644 210.800,272.170 210.800 C 277.562 210.800,281.042 213.173,281.800 217.365 C 282.390 220.628,286.467 222.102,289.028 219.977 C 290.168 219.031,289.522 213.163,288.223 212.664 C 287.936 212.554,287.582 211.830,287.437 211.056 C 287.281 210.225,286.704 209.254,286.030 208.687 C 284.804 207.655,284.712 205.762,285.868 205.319 C 286.177 205.200,286.703 204.575,287.036 203.930 C 287.370 203.285,287.966 202.434,288.362 202.038 C 289.983 200.417,289.836 193.102,288.142 191.069 C 287.624 190.447,287.200 189.732,287.200 189.480 C 287.200 188.123,282.195 184.247,280.064 183.953 C 278.890 183.792,277.615 183.376,277.233 183.030 C 276.026 181.938,265.838 182.139,264.000 183.291 M324.031 184.031 L 322.800 185.262 322.800 202.169 C 322.800 221.214,322.614 220.105,325.904 220.631 C 329.025 221.130,329.552 220.387,329.686 215.300 L 329.800 211.000 332.200 210.868 C 338.269 210.535,342.000 212.827,342.000 216.891 C 342.000 220.161,345.782 222.083,348.593 220.241 C 350.299 219.123,349.901 212.885,348.011 211.124 C 347.565 210.709,347.200 210.187,347.200 209.965 C 347.200 209.743,346.742 209.138,346.183 208.619 C 345.191 207.700,345.087 205.600,346.033 205.600 C 346.224 205.600,346.676 205.026,347.039 204.324 C 347.402 203.622,348.058 202.757,348.497 202.402 C 350.021 201.168,349.952 192.352,348.407 190.807 C 348.006 190.406,347.564 189.715,347.422 189.271 C 347.281 188.826,346.409 187.811,345.483 187.014 C 344.557 186.218,343.515 185.304,343.166 184.983 C 342.818 184.662,341.468 184.195,340.166 183.944 C 338.865 183.693,337.629 183.333,337.420 183.144 C 337.211 182.955,334.390 182.800,331.151 182.800 L 325.262 182.800 324.031 184.031 M278.038 184.446 C 285.109 185.962,290.070 194.766,287.200 200.706 C 286.760 201.616,286.400 202.537,286.400 202.752 C 286.400 202.966,285.965 203.484,285.434 203.901 C 283.140 205.707,282.903 208.389,284.922 209.712 C 285.448 210.056,286.104 210.937,286.381 211.669 C 286.658 212.401,287.236 213.868,287.665 214.928 C 289.201 218.720,287.787 220.743,284.300 219.743 C 283.056 219.386,282.986 219.259,282.681 216.785 C 282.141 212.405,278.679 209.682,273.200 209.326 C 268.832 209.042,268.689 209.207,268.418 214.823 C 268.173 219.901,267.545 220.737,264.825 219.611 L 263.692 219.141 263.822 202.274 C 263.978 181.980,263.204 184.000,270.825 184.000 C 273.649 184.000,276.896 184.201,278.038 184.446 M90.723 184.907 C 90.968 185.202,91.197 188.204,91.272 192.088 C 91.432 200.454,90.777 199.800,99.000 199.800 C 107.220 199.800,106.565 200.454,106.740 192.080 C 106.891 184.830,107.020 184.400,109.041 184.400 C 110.889 184.400,110.838 183.840,110.711 202.800 L 110.600 219.400 108.800 219.400 L 107.000 219.400 106.800 212.319 C 106.551 203.491,107.228 204.200,99.041 204.200 C 90.573 204.200,91.246 203.510,91.109 212.341 L 91.000 219.400 89.100 219.522 L 87.200 219.644 87.200 202.289 C 87.200 192.743,87.320 184.813,87.467 184.667 C 87.929 184.204,90.284 184.378,90.723 184.907 M151.250 186.600 C 151.853 187.700,152.470 188.870,152.619 189.200 C 156.934 198.711,158.687 200.299,160.235 196.096 C 160.619 195.053,161.263 193.828,161.667 193.374 C 162.070 192.920,162.400 192.394,162.400 192.206 C 162.400 191.916,163.487 189.478,165.299 185.706 C 166.084 184.072,170.400 183.968,170.400 185.584 C 170.400 186.007,170.205 186.473,169.967 186.620 C 169.729 186.768,169.176 187.723,168.738 188.744 C 168.301 189.765,167.708 190.870,167.422 191.200 C 167.136 191.530,166.689 192.461,166.430 193.268 C 166.171 194.075,165.706 194.946,165.397 195.202 C 165.088 195.459,163.799 197.678,162.533 200.134 L 160.231 204.600 160.016 212.000 L 159.800 219.400 158.000 219.400 L 156.200 219.400 156.000 211.800 C 155.818 204.885,155.724 204.092,154.952 203.000 C 154.486 202.340,153.965 201.350,153.795 200.800 C 153.407 199.549,150.912 194.806,150.218 194.000 C 149.934 193.670,149.485 192.728,149.221 191.906 C 148.958 191.084,148.565 190.302,148.350 190.169 C 147.224 189.473,145.946 185.429,146.681 184.890 C 148.243 183.747,150.057 184.426,151.250 186.600 M221.345 184.777 C 222.194 184.975,223.374 185.600,223.967 186.168 C 224.559 186.736,225.230 187.200,225.459 187.200 C 226.007 187.200,228.000 192.314,228.000 193.722 C 228.000 195.015,226.211 199.474,225.265 200.536 C 224.689 201.184,224.682 201.328,225.205 201.740 C 226.162 202.493,228.262 205.336,228.564 206.286 C 229.294 208.586,228.539 214.800,227.530 214.800 C 227.360 214.800,226.942 215.339,226.601 215.999 C 226.260 216.658,225.400 217.473,224.690 217.809 C 223.981 218.146,222.950 218.686,222.400 219.009 C 221.594 219.483,219.850 219.578,213.400 219.499 L 205.400 219.400 205.289 203.000 C 205.171 185.609,205.207 184.962,206.300 184.676 C 207.606 184.335,219.791 184.417,221.345 184.777 M341.600 185.883 C 349.091 190.193,350.766 198.445,345.359 204.400 C 343.456 206.496,343.336 208.801,345.100 209.373 C 346.182 209.725,348.351 214.782,348.485 217.267 L 348.600 219.400 347.245 219.529 C 344.575 219.784,344.165 219.457,343.384 216.445 C 342.087 211.446,338.868 209.200,332.998 209.200 C 328.837 209.200,328.854 209.177,328.714 214.824 L 328.600 219.400 326.600 219.400 L 324.600 219.400 324.496 202.533 C 324.400 187.139,324.450 185.607,325.068 184.989 C 326.431 183.626,338.843 184.297,341.600 185.883 M210.300 189.357 C 208.929 190.398,209.302 196.963,210.818 198.480 C 213.393 201.055,221.459 199.308,222.631 195.921 C 223.422 193.637,222.932 191.398,221.333 189.995 C 219.774 188.626,211.865 188.169,210.300 189.357 M269.203 189.189 C 267.919 190.001,267.572 202.772,268.800 204.000 C 269.741 204.941,274.969 205.141,277.646 204.339 C 284.481 202.291,284.477 191.535,277.640 189.254 C 276.000 188.707,270.039 188.661,269.203 189.189 M329.067 189.067 C 328.563 189.571,328.762 203.802,329.280 204.320 C 329.872 204.912,336.688 204.975,338.195 204.402 C 340.563 203.502,342.342 201.578,343.204 198.987 L 344.037 196.485 343.218 194.156 C 342.768 192.876,342.400 191.801,342.400 191.767 C 342.400 191.734,341.560 191.053,340.534 190.254 L 338.669 188.800 334.001 188.800 C 331.434 188.800,329.213 188.920,329.067 189.067 M220.664 191.100 C 222.112 192.727,222.253 193.443,221.524 195.459 C 220.913 197.148,219.625 197.600,215.420 197.600 C 211.320 197.600,211.200 197.479,211.200 193.353 C 211.200 189.500,210.987 189.674,215.765 189.632 L 219.329 189.600 220.664 191.100 M277.424 190.525 C 281.717 194.265,281.758 194.337,281.642 197.909 C 281.530 201.387,275.204 204.828,270.562 203.936 C 269.804 203.791,269.141 191.774,269.796 190.066 C 270.119 189.223,276.362 189.599,277.424 190.525 M338.815 190.784 C 339.577 191.435,340.396 191.975,340.636 191.984 C 341.852 192.029,342.544 197.982,341.577 200.081 C 340.547 202.316,336.734 204.044,333.113 203.916 L 329.800 203.800 329.690 197.215 C 329.551 188.936,329.201 189.600,333.703 189.600 C 337.254 189.600,337.496 189.656,338.815 190.784 M211.600 203.859 C 208.921 204.955,208.605 213.121,211.165 215.087 C 212.584 216.177,218.974 215.731,221.153 214.391 C 225.223 211.887,225.372 206.433,221.429 204.305 C 220.529 203.819,212.579 203.459,211.600 203.859 M220.374 205.152 C 223.080 205.907,223.516 212.226,220.918 213.035 C 220.523 213.158,219.887 213.425,219.505 213.629 C 217.974 214.447,212.500 214.078,211.823 213.111 C 211.050 212.008,210.941 206.019,211.680 205.280 C 212.198 204.762,218.639 204.667,220.374 205.152 " stroke="none" fill="#9c94a4" fill-rule="evenodd"></path></g></svg>