<svg id="svg" version="1.1" xmlns="http://www.w3.org/2000/svg" xmlns:xlink="http://www.w3.org/1999/xlink" width="400" height="171.42857142857142" viewBox="0, 0, 400,171.42857142857142"><g id="svgg"><path id="path0" d="M0.000 85.727 L 0.000 171.453 200.000 171.453 L 400.000 171.453 400.000 85.727 L 400.000 0.000 200.000 0.000 L 0.000 0.000 0.000 85.727 M294.985 21.403 C 299.218 22.500,302.163 25.173,302.953 28.633 C 303.071 29.151,303.255 29.769,303.363 30.004 C 303.498 30.301,303.574 33.094,303.611 39.091 C 303.678 49.785,303.637 50.036,301.414 52.659 C 299.745 54.630,294.062 54.431,292.146 52.335 C 291.680 51.826,291.299 51.296,291.299 51.159 C 291.299 51.022,291.187 50.738,291.049 50.529 C 290.393 49.527,290.275 48.146,290.273 41.396 C 290.271 36.448,290.218 34.800,290.056 34.580 C 289.821 34.262,44.516 34.113,44.199 34.430 C 43.969 34.660,44.026 119.508,44.256 119.785 C 44.571 120.165,289.620 120.128,290.001 119.748 C 290.239 119.510,290.270 118.429,290.270 110.446 L 290.270 101.414 290.777 99.640 C 291.304 97.796,291.392 97.627,292.242 96.838 C 294.819 94.444,300.830 94.898,302.169 97.589 C 302.254 97.760,302.430 97.900,302.558 97.900 C 302.721 97.900,302.761 98.027,302.689 98.314 C 302.611 98.625,302.674 98.777,302.943 98.920 C 303.198 99.057,303.300 99.279,303.300 99.695 C 303.300 100.015,303.377 100.478,303.470 100.724 C 303.826 101.661,303.699 123.231,303.330 124.307 C 303.154 124.824,302.953 125.546,302.885 125.912 C 302.337 128.873,299.183 131.790,295.328 132.904 L 293.956 133.300 167.767 133.347 C 42.888 133.395,41.559 133.392,39.843 133.058 C 36.443 132.397,33.921 130.755,32.686 128.398 C 32.420 127.890,32.059 127.244,31.884 126.961 C 31.709 126.678,31.368 125.675,31.125 124.732 L 30.685 123.018 30.730 76.725 L 30.776 30.433 31.183 29.147 C 31.922 26.813,33.197 24.701,34.423 23.781 C 35.724 22.804,37.249 21.934,37.946 21.770 C 38.340 21.677,39.280 21.452,40.034 21.269 C 41.385 20.942,43.282 20.937,167.424 20.970 L 293.442 21.003 294.985 21.403 M39.867 26.798 C 38.392 27.319,36.894 28.851,36.473 30.268 C 36.003 31.855,36.003 122.454,36.473 124.036 C 36.887 125.425,38.385 126.981,39.835 127.527 L 40.836 127.904 167.225 127.904 C 290.343 127.904,293.635 127.895,294.459 127.583 C 295.728 127.101,297.005 125.884,297.630 124.561 L 298.157 123.445 298.157 112.301 L 298.157 101.157 297.138 101.157 C 296.512 101.157,296.066 101.240,295.981 101.372 C 295.905 101.489,295.804 106.491,295.757 112.486 L 295.671 123.386 295.258 123.989 C 295.030 124.320,294.573 124.778,294.241 125.005 L 293.639 125.418 167.779 125.470 C 34.985 125.525,40.630 125.558,39.727 124.720 C 38.556 123.634,38.668 128.335,38.612 77.933 C 38.555 27.624,38.494 30.937,39.493 29.888 C 40.607 28.718,31.550 28.791,168.195 28.843 L 293.270 28.890 293.956 29.248 C 294.333 29.445,294.874 29.934,295.156 30.334 L 295.671 31.062 295.718 39.406 C 295.771 48.872,295.650 48.178,297.247 48.178 L 298.157 48.178 298.157 39.468 C 298.157 34.678,298.089 30.685,298.006 30.596 C 297.923 30.506,297.765 30.150,297.655 29.804 C 297.337 28.808,296.203 27.661,294.922 27.041 L 293.785 26.489 167.338 26.463 L 40.892 26.436 39.867 26.798 M80.888 57.189 L 81.269 57.456 81.269 66.095 C 81.269 72.817,81.316 74.764,81.483 74.872 C 81.875 75.126,96.736 75.142,96.897 74.889 C 96.974 74.767,97.038 70.722,97.040 65.899 C 97.042 58.063,97.071 57.119,97.314 57.026 C 97.857 56.818,102.964 56.912,103.269 57.137 C 103.541 57.337,103.557 58.765,103.516 78.440 L 103.472 99.529 100.300 99.529 L 97.128 99.529 97.042 90.441 L 96.957 81.354 89.156 81.354 L 81.354 81.354 81.310 90.254 C 81.279 96.479,81.208 99.223,81.075 99.384 C 80.816 99.696,74.927 99.719,74.616 99.408 C 74.459 99.251,74.411 94.336,74.411 78.329 L 74.411 57.456 74.792 57.189 C 75.097 56.976,75.703 56.922,77.840 56.922 C 79.976 56.922,80.582 56.976,80.888 57.189 M149.414 57.392 C 149.654 57.651,149.850 57.988,149.850 58.143 C 149.850 58.297,149.966 58.520,150.107 58.637 C 150.249 58.754,150.364 58.923,150.364 59.011 C 150.364 59.213,151.116 60.769,151.736 61.852 C 151.831 62.017,151.989 62.345,152.088 62.580 C 152.187 62.816,152.422 63.318,152.611 63.695 C 152.927 64.328,153.091 64.637,153.478 65.324 C 153.558 65.465,153.702 65.774,153.798 66.009 C 153.895 66.245,154.203 66.883,154.484 67.426 C 154.764 67.970,154.994 68.520,154.994 68.648 C 154.994 68.777,155.102 68.972,155.234 69.082 C 155.366 69.191,155.524 69.480,155.585 69.723 C 155.646 69.967,155.808 70.278,155.945 70.414 C 156.082 70.551,156.194 70.803,156.194 70.973 C 156.194 71.143,156.309 71.379,156.451 71.496 C 156.592 71.613,156.708 71.845,156.708 72.010 C 156.708 72.176,156.819 72.403,156.954 72.515 C 157.090 72.628,157.250 72.946,157.311 73.222 C 157.371 73.499,157.484 73.725,157.560 73.725 C 157.637 73.725,157.751 73.928,157.813 74.176 L 157.926 74.627 158.253 74.276 C 158.433 74.083,158.629 73.729,158.690 73.489 C 158.750 73.249,158.907 72.963,159.040 72.854 C 159.172 72.744,159.280 72.519,159.280 72.353 C 159.280 72.188,159.396 71.956,159.537 71.839 C 159.679 71.721,159.794 71.553,159.794 71.464 C 159.794 71.211,160.655 69.456,160.834 69.346 C 160.922 69.291,160.994 69.106,160.994 68.935 C 160.994 68.764,161.110 68.527,161.252 68.410 C 161.393 68.292,161.510 68.071,161.511 67.917 C 161.513 67.764,161.621 67.445,161.752 67.210 C 161.884 66.974,162.158 66.434,162.362 66.009 C 162.566 65.585,162.799 65.122,162.879 64.981 C 163.078 64.631,164.355 62.043,164.487 61.723 C 164.545 61.582,164.670 61.350,164.765 61.209 C 164.860 61.067,165.016 60.759,165.112 60.523 C 165.208 60.287,165.478 59.754,165.712 59.339 C 165.946 58.923,166.138 58.525,166.138 58.454 C 166.138 58.383,166.347 58.005,166.603 57.614 L 167.069 56.903 170.539 56.956 C 174.101 57.010,174.674 57.119,174.226 57.659 C 174.053 57.866,173.741 58.442,172.393 61.037 C 172.046 61.706,172.016 61.764,171.336 63.095 C 171.071 63.613,170.757 64.140,170.639 64.264 C 170.521 64.389,170.424 64.635,170.424 64.811 C 170.424 64.988,170.342 65.183,170.242 65.244 C 170.142 65.306,169.988 65.523,169.900 65.726 C 169.812 65.929,169.662 66.211,169.567 66.352 C 169.473 66.494,169.318 66.802,169.224 67.038 C 169.130 67.274,168.982 67.583,168.894 67.724 C 168.806 67.865,168.689 68.097,168.632 68.238 C 168.576 68.380,168.228 69.036,167.860 69.696 C 167.491 70.356,166.856 71.552,166.449 72.353 C 166.042 73.155,165.668 73.849,165.617 73.896 C 165.566 73.943,165.181 74.676,164.760 75.525 C 164.339 76.374,163.898 77.130,163.781 77.205 C 163.663 77.281,163.563 77.474,163.559 77.634 C 163.555 77.794,163.363 78.234,163.132 78.611 C 162.901 78.988,162.635 79.490,162.539 79.726 C 162.444 79.961,162.290 80.270,162.197 80.411 C 161.408 81.613,161.428 81.373,161.337 90.699 L 161.252 99.529 158.178 99.575 C 156.374 99.603,155.037 99.554,154.940 99.458 C 154.838 99.356,154.788 96.011,154.808 90.699 L 154.842 82.105 154.103 80.615 C 153.697 79.796,153.324 79.087,153.274 79.040 C 153.223 78.993,152.932 78.453,152.626 77.840 C 152.319 77.227,151.690 76.031,151.227 75.182 C 150.121 73.153,149.507 71.903,149.507 71.678 C 149.507 71.578,149.431 71.496,149.339 71.496 C 149.246 71.496,149.123 71.306,149.065 71.074 C 149.007 70.842,148.851 70.563,148.719 70.453 C 148.587 70.344,148.478 70.114,148.478 69.944 C 148.478 69.774,148.381 69.532,148.262 69.408 C 148.143 69.283,147.951 68.988,147.835 68.753 C 147.719 68.517,147.551 68.208,147.463 68.067 C 147.375 67.925,147.136 67.462,146.932 67.038 C 146.729 66.614,146.147 65.495,145.640 64.552 C 145.132 63.609,144.478 62.357,144.187 61.769 C 143.895 61.182,143.584 60.657,143.495 60.602 C 143.407 60.547,143.335 60.384,143.335 60.240 C 143.335 60.095,143.180 59.781,142.992 59.541 C 142.803 59.301,142.649 58.969,142.649 58.804 C 142.649 58.638,142.543 58.462,142.414 58.412 C 142.285 58.363,142.136 58.104,142.082 57.837 C 141.913 56.995,142.204 56.922,145.761 56.922 L 148.979 56.922 149.414 57.392 M232.314 57.308 C 232.547 57.473,232.955 57.608,233.220 57.608 C 233.490 57.608,233.745 57.721,233.800 57.865 C 233.854 58.007,234.025 58.123,234.180 58.123 C 234.948 58.125,238.491 61.167,238.491 61.824 C 238.491 61.957,238.561 62.066,238.647 62.066 C 238.797 62.066,239.077 62.593,239.848 64.328 C 240.045 64.771,240.206 65.354,240.206 65.623 C 240.206 65.892,240.300 66.206,240.414 66.321 C 240.763 66.670,240.815 69.813,240.482 70.480 C 240.330 70.785,240.206 71.206,240.206 71.415 C 240.206 71.769,239.608 73.187,239.124 73.982 C 238.709 74.665,238.229 75.354,237.977 75.628 C 237.835 75.783,237.498 76.153,237.228 76.452 L 236.736 76.995 237.399 77.546 C 238.468 78.434,240.020 80.097,240.141 80.483 C 240.202 80.680,240.305 80.879,240.369 80.926 C 240.586 81.084,241.226 82.557,241.341 83.159 C 241.403 83.487,241.535 83.857,241.634 83.983 C 241.884 84.301,241.992 87.859,241.783 88.898 C 240.864 93.462,238.418 96.710,234.430 98.664 C 233.941 98.904,233.432 99.100,233.299 99.100 C 233.166 99.100,232.795 99.232,232.474 99.394 C 231.557 99.857,213.523 100.021,213.073 99.571 C 212.791 99.289,212.773 98.043,212.773 78.277 C 212.773 58.465,212.790 57.272,213.073 57.103 C 213.656 56.755,231.806 56.949,232.314 57.308 M299.306 57.308 C 299.607 57.473,300.084 57.608,300.365 57.608 C 300.646 57.608,300.991 57.724,301.133 57.865 C 301.274 58.007,301.509 58.123,301.654 58.123 C 301.898 58.123,303.040 58.623,303.643 58.994 C 303.785 59.081,304.074 59.227,304.286 59.319 C 304.498 59.411,304.672 59.565,304.672 59.661 C 304.672 59.758,304.790 59.837,304.935 59.837 C 305.079 59.837,305.242 59.953,305.296 60.094 C 305.350 60.236,305.485 60.351,305.596 60.351 C 305.943 60.351,308.486 63.171,308.844 63.952 C 308.909 64.093,309.115 64.441,309.301 64.724 C 309.488 65.006,309.686 65.354,309.742 65.495 C 309.798 65.637,309.991 66.069,310.172 66.457 C 310.353 66.844,310.502 67.356,310.502 67.595 C 310.502 67.833,310.617 68.249,310.758 68.519 C 310.958 68.903,311.014 69.702,311.014 72.182 C 311.014 74.662,310.958 75.461,310.758 75.845 C 310.617 76.115,310.502 76.486,310.502 76.669 C 310.502 76.995,309.965 78.362,309.638 78.868 C 309.547 79.010,309.390 79.317,309.290 79.551 C 309.190 79.785,309.051 80.016,308.982 80.065 C 308.912 80.114,308.689 80.427,308.486 80.761 C 308.020 81.529,305.450 83.970,304.872 84.194 C 304.695 84.263,304.866 84.487,305.462 84.964 C 307.400 86.518,308.528 87.889,309.470 89.841 C 310.352 91.668,310.502 92.045,310.502 92.454 C 310.502 92.691,310.619 93.167,310.763 93.512 C 310.968 94.002,311.014 94.722,310.977 96.833 L 310.930 99.529 307.728 99.575 C 304.022 99.629,304.318 99.801,304.394 97.643 C 304.425 96.769,304.362 96.106,304.219 95.817 C 304.097 95.568,303.944 95.037,303.880 94.638 C 303.485 92.167,300.188 88.598,297.918 88.182 C 297.625 88.129,297.217 87.981,297.012 87.853 C 296.729 87.677,295.598 87.609,292.382 87.574 L 288.127 87.527 288.082 93.433 C 288.048 97.897,287.985 99.373,287.825 99.474 C 287.464 99.703,281.795 99.644,281.560 99.408 C 281.179 99.027,281.271 57.332,281.655 57.103 C 282.231 56.757,298.647 56.948,299.306 57.308 M369.601 57.308 C 369.903 57.473,370.380 57.608,370.661 57.608 C 370.942 57.608,371.287 57.724,371.429 57.865 C 371.570 58.007,371.805 58.123,371.950 58.123 C 372.194 58.123,373.336 58.623,373.939 58.994 C 374.081 59.081,374.370 59.227,374.582 59.319 C 374.794 59.411,374.968 59.565,374.968 59.661 C 374.968 59.758,375.086 59.837,375.230 59.837 C 375.375 59.837,375.537 59.953,375.592 60.094 C 375.646 60.236,375.781 60.351,375.892 60.351 C 376.239 60.351,378.782 63.171,379.140 63.952 C 379.205 64.093,379.411 64.441,379.597 64.724 C 379.784 65.006,379.983 65.354,380.040 65.495 C 380.097 65.637,380.291 66.114,380.471 66.556 C 380.650 66.997,380.797 67.506,380.797 67.687 C 380.797 67.867,380.918 68.255,381.064 68.550 C 381.414 69.250,381.367 75.965,381.012 76.083 C 380.894 76.122,380.797 76.344,380.797 76.577 C 380.797 76.811,380.654 77.325,380.480 77.721 C 380.305 78.116,380.111 78.556,380.049 78.697 C 379.987 78.838,379.784 79.186,379.598 79.468 C 379.412 79.751,379.180 80.165,379.083 80.387 C 378.985 80.609,378.232 81.451,377.408 82.258 C 375.552 84.076,375.425 84.183,375.125 84.186 C 374.991 84.187,375.213 84.495,375.618 84.871 C 376.023 85.247,376.399 85.555,376.453 85.555 C 376.580 85.555,377.883 86.856,377.883 86.983 C 377.883 87.036,378.152 87.373,378.482 87.732 C 378.811 88.090,379.081 88.511,379.082 88.666 C 379.082 88.821,379.198 88.992,379.340 89.046 C 379.481 89.100,379.597 89.292,379.597 89.472 C 379.597 89.652,379.713 89.895,379.854 90.013 C 379.996 90.130,380.114 90.313,380.117 90.420 C 380.120 90.526,380.272 90.922,380.454 91.299 C 380.637 91.676,380.788 92.187,380.791 92.435 C 380.795 92.683,380.915 93.167,381.059 93.512 C 381.264 94.002,381.310 94.722,381.273 96.833 L 381.226 99.529 378.054 99.529 L 374.882 99.529 374.792 97.814 C 374.742 96.871,374.615 95.945,374.509 95.757 C 374.403 95.568,374.261 95.050,374.195 94.605 C 374.128 94.160,373.966 93.707,373.835 93.598 C 373.704 93.489,373.596 93.298,373.596 93.174 C 373.596 92.549,372.283 90.844,370.853 89.610 C 370.281 89.117,368.734 88.278,368.224 88.185 C 367.925 88.130,367.504 87.975,367.287 87.839 C 366.858 87.572,359.233 87.405,358.637 87.650 C 358.360 87.764,358.337 88.207,358.337 93.488 C 358.337 97.704,358.283 99.257,358.131 99.408 C 357.842 99.698,352.145 99.698,351.856 99.408 C 351.474 99.027,351.567 57.332,351.950 57.102 C 352.526 56.756,368.942 56.948,369.601 57.308 M219.500 68.624 L 219.546 74.153 224.089 74.200 C 229.846 74.259,230.546 74.118,232.105 72.579 C 232.600 72.090,233.005 71.586,233.005 71.460 C 233.005 71.333,233.138 71.039,233.301 70.806 C 233.731 70.193,233.733 67.305,233.305 66.700 C 233.140 66.467,233.005 66.157,233.005 66.011 C 233.005 65.728,231.553 64.123,231.296 64.123 C 231.212 64.123,231.041 64.025,230.917 63.906 C 230.357 63.368,227.884 63.093,223.615 63.094 L 219.455 63.095 219.500 68.624 M288.044 71.959 C 288.045 76.843,288.104 80.931,288.175 81.042 C 288.514 81.575,297.312 81.257,298.436 80.670 C 298.707 80.529,299.063 80.413,299.228 80.413 C 299.393 80.412,299.529 80.340,299.529 80.252 C 299.529 80.164,299.702 80.037,299.913 79.970 C 300.447 79.800,301.922 78.461,302.443 77.672 C 302.585 77.458,302.785 77.194,302.889 77.085 C 302.992 76.976,303.172 76.600,303.288 76.249 C 303.404 75.898,303.555 75.611,303.624 75.611 C 303.693 75.611,303.836 75.167,303.941 74.625 C 304.046 74.083,304.206 73.302,304.297 72.891 C 304.425 72.308,304.391 71.853,304.140 70.833 C 303.964 70.113,303.818 69.401,303.817 69.251 C 303.816 69.101,303.622 68.638,303.387 68.222 C 303.152 67.807,302.876 67.261,302.775 67.009 C 302.674 66.757,302.480 66.509,302.345 66.457 C 302.211 66.405,302.100 66.245,302.100 66.101 C 302.100 65.956,302.040 65.838,301.967 65.838 C 301.894 65.838,301.601 65.626,301.315 65.366 C 301.030 65.107,300.377 64.678,299.863 64.413 C 299.349 64.147,298.813 63.866,298.671 63.788 C 298.022 63.427,295.691 63.201,292.027 63.142 L 288.041 63.077 288.044 71.959 M358.337 71.911 C 358.337 76.759,358.384 80.848,358.441 80.998 C 358.660 81.567,367.555 81.284,368.732 80.670 C 369.003 80.529,369.351 80.413,369.506 80.413 C 369.661 80.412,369.832 80.296,369.886 80.154 C 369.941 80.013,370.125 79.897,370.295 79.897 C 370.466 79.897,370.725 79.762,370.872 79.597 C 371.019 79.432,371.441 79.015,371.810 78.670 C 372.702 77.836,373.027 77.399,373.476 76.425 C 373.682 75.977,373.910 75.611,373.981 75.611 C 374.052 75.611,374.111 75.437,374.113 75.225 C 374.114 75.013,374.261 74.241,374.441 73.511 C 374.762 72.204,374.762 72.159,374.441 70.853 C 374.261 70.122,374.114 69.360,374.113 69.159 C 374.111 68.959,373.995 68.699,373.853 68.581 C 373.712 68.464,373.596 68.266,373.596 68.141 C 373.596 67.803,372.894 66.674,372.356 66.144 C 372.095 65.888,371.882 65.598,371.882 65.501 C 371.882 65.403,371.764 65.324,371.619 65.324 C 371.475 65.324,371.312 65.208,371.258 65.066 C 371.204 64.925,371.062 64.809,370.943 64.809 C 370.825 64.809,370.532 64.655,370.292 64.466 C 370.052 64.278,369.742 64.123,369.604 64.123 C 369.465 64.123,369.256 64.008,369.138 63.866 C 369.021 63.725,368.722 63.609,368.474 63.609 C 368.227 63.609,367.484 63.495,366.824 63.355 C 365.982 63.177,364.536 63.100,361.980 63.098 L 358.337 63.095 358.337 71.911 M219.544 80.797 C 219.492 81.009,219.471 83.845,219.498 87.098 L 219.546 93.013 225.032 93.013 C 229.982 93.013,230.560 92.984,230.943 92.713 C 231.176 92.548,231.504 92.413,231.671 92.413 C 231.839 92.413,231.978 92.355,231.980 92.285 C 231.982 92.214,232.324 91.927,232.741 91.648 C 233.158 91.368,233.545 91.021,233.602 90.876 C 233.761 90.470,234.305 89.534,234.562 89.224 C 234.956 88.750,234.868 84.940,234.446 84.183 C 233.540 82.561,233.118 82.097,232.027 81.516 C 231.594 81.286,231.155 81.033,231.051 80.955 C 230.636 80.640,227.532 80.411,223.687 80.411 L 219.638 80.411 219.544 80.797 " stroke="none" fill="#f4f1f2" fill-rule="evenodd"></path><path id="path1" d="M40.892 24.175 C 40.703 24.256,40.225 24.328,39.830 24.334 C 39.435 24.341,39.070 24.413,39.020 24.495 C 38.969 24.576,38.649 24.688,38.309 24.744 C 37.095 24.940,34.297 28.134,34.285 29.336 C 34.281 29.657,34.168 30.111,34.033 30.347 C 33.641 31.034,33.655 122.905,34.048 124.288 C 34.881 127.219,36.538 128.953,39.399 129.887 L 40.678 130.304 167.060 130.300 C 254.434 130.297,293.654 130.241,294.128 130.117 C 294.505 130.018,295.006 129.892,295.242 129.837 C 296.048 129.647,298.671 127.906,298.671 127.560 C 298.671 127.383,298.812 127.137,298.985 127.014 C 299.375 126.734,300.214 124.921,300.214 124.357 C 300.214 124.127,300.291 123.795,300.384 123.621 C 300.553 123.306,300.639 103.332,300.480 101.296 C 300.306 99.046,299.212 98.223,296.519 98.315 C 293.330 98.423,293.344 98.363,293.301 112.338 C 293.272 121.750,293.251 122.425,292.964 122.711 C 292.614 123.062,42.157 123.288,41.504 122.938 C 40.998 122.668,40.988 121.768,41.007 78.354 C 41.029 28.220,41.007 31.965,41.286 31.685 C 41.422 31.548,42.183 31.419,43.257 31.351 C 47.422 31.088,292.150 31.192,292.662 31.457 C 293.311 31.793,293.319 31.895,293.319 40.806 C 293.320 48.439,293.326 48.515,294.097 50.005 C 294.883 51.524,298.917 51.410,299.881 49.842 C 300.536 48.777,300.572 48.212,300.559 39.389 C 300.547 31.061,300.472 29.507,300.063 29.099 C 299.958 28.993,299.871 28.770,299.871 28.602 C 299.871 28.435,299.679 28.171,299.443 28.017 C 299.207 27.862,299.014 27.606,299.014 27.447 C 299.014 27.135,297.793 25.834,297.184 25.496 C 296.978 25.382,296.438 25.067,295.983 24.795 C 295.529 24.523,294.809 24.258,294.385 24.207 C 293.086 24.048,41.259 24.016,40.892 24.175 M294.977 26.556 C 296.117 27.105,297.474 28.499,298.045 29.706 L 298.512 30.694 298.463 39.599 C 298.408 49.601,298.532 48.875,296.907 48.741 C 295.342 48.612,295.445 49.225,295.381 39.596 C 295.319 30.132,295.372 30.545,294.092 29.704 L 293.504 29.318 167.123 29.318 L 40.741 29.318 40.196 29.692 C 39.896 29.898,39.483 30.380,39.278 30.764 L 38.905 31.462 38.955 77.415 L 39.006 123.369 39.381 123.846 C 39.588 124.109,39.972 124.493,40.234 124.699 L 40.712 125.075 167.217 125.075 C 287.521 125.075,293.731 125.060,293.891 124.775 C 293.983 124.610,294.168 124.475,294.302 124.475 C 294.435 124.475,294.636 124.301,294.747 124.089 C 294.859 123.877,295.035 123.648,295.139 123.581 C 295.273 123.494,295.334 120.206,295.349 112.293 C 295.372 99.604,295.212 100.730,297.011 100.596 C 298.624 100.476,298.519 99.603,298.463 112.714 L 298.414 124.046 297.900 124.926 C 297.044 126.389,296.583 126.831,294.899 127.812 L 294.299 128.161 167.252 128.161 L 40.206 128.161 39.245 127.675 C 37.992 127.040,37.022 126.080,36.411 124.874 L 35.919 123.902 35.919 77.167 L 35.919 30.433 36.400 29.455 C 37.215 27.795,38.850 26.553,40.634 26.237 C 41.059 26.162,98.268 26.111,167.767 26.124 L 294.128 26.147 294.977 26.556 " stroke="none" fill="#f46b8c" fill-rule="evenodd"></path><path id="path2" d="M75.043 57.375 C 74.978 57.441,74.925 66.894,74.925 78.383 L 74.925 99.271 77.754 99.271 L 80.583 99.271 80.583 90.291 C 80.583 82.914,80.625 81.276,80.817 81.117 C 80.985 80.977,83.297 80.935,89.089 80.967 L 97.128 81.012 97.173 90.141 L 97.217 99.271 100.216 99.271 L 103.215 99.271 103.215 78.357 L 103.215 57.443 102.829 57.348 C 102.617 57.296,101.286 57.275,99.871 57.302 L 97.300 57.351 97.255 66.392 L 97.211 75.434 96.827 75.529 C 95.961 75.743,81.121 75.532,80.891 75.302 C 80.717 75.128,80.650 73.166,80.583 66.215 L 80.497 57.351 77.830 57.304 C 76.362 57.278,75.109 57.310,75.043 57.375 M142.477 57.574 C 142.477 57.744,142.550 57.956,142.640 58.045 C 142.797 58.203,143.542 59.580,144.909 62.237 C 145.548 63.479,145.708 63.778,146.079 64.423 C 146.174 64.589,146.295 64.839,146.349 64.981 C 146.402 65.122,146.519 65.354,146.608 65.495 C 146.698 65.637,146.886 65.984,147.027 66.267 C 147.168 66.550,147.354 66.897,147.440 67.038 C 147.526 67.180,147.641 67.411,147.696 67.553 C 147.751 67.694,147.949 68.041,148.135 68.324 C 148.322 68.607,148.521 68.954,148.577 69.096 C 148.769 69.575,149.529 71.061,150.376 72.610 C 150.840 73.459,151.305 74.346,151.410 74.582 C 151.515 74.818,151.671 75.126,151.756 75.268 C 151.840 75.409,152.004 75.718,152.119 75.954 C 152.235 76.189,152.372 76.421,152.424 76.468 C 152.476 76.515,152.769 77.055,153.074 77.668 C 153.380 78.281,153.956 79.361,154.355 80.069 L 155.079 81.354 155.128 90.313 L 155.177 99.271 158.081 99.271 L 160.986 99.271 161.033 90.264 C 161.068 83.612,161.133 81.224,161.281 81.132 C 161.391 81.064,161.535 80.796,161.600 80.537 C 161.665 80.277,161.782 80.026,161.860 79.978 C 161.938 79.930,162.210 79.448,162.464 78.908 C 162.718 78.368,162.974 77.887,163.032 77.840 C 163.128 77.761,163.750 76.574,165.678 72.782 C 166.061 72.027,166.420 71.372,166.474 71.324 C 166.529 71.277,166.668 71.046,166.783 70.810 C 166.898 70.574,167.058 70.266,167.137 70.124 C 167.216 69.983,167.420 69.597,167.590 69.267 C 168.090 68.298,169.664 65.282,169.961 64.724 C 170.112 64.441,170.279 64.093,170.332 63.952 C 170.385 63.811,170.580 63.463,170.767 63.180 C 171.141 62.611,171.453 61.951,171.453 61.726 C 171.453 61.646,171.511 61.555,171.582 61.523 C 171.652 61.492,171.932 61.021,172.204 60.476 C 172.476 59.932,172.765 59.445,172.847 59.395 C 172.929 59.344,172.996 59.165,172.996 58.996 C 172.996 58.827,173.153 58.508,173.345 58.287 C 174.092 57.426,173.879 57.355,170.402 57.304 L 167.211 57.258 166.598 58.505 C 166.261 59.190,165.904 59.944,165.805 60.180 C 165.706 60.416,165.547 60.744,165.453 60.909 C 164.988 61.720,164.363 62.958,164.090 63.609 C 163.991 63.845,163.833 64.173,163.738 64.338 C 163.274 65.149,162.649 66.387,162.375 67.038 C 162.276 67.274,162.127 67.583,162.044 67.724 C 161.961 67.865,161.608 68.598,161.260 69.353 C 160.913 70.107,160.561 70.840,160.478 70.982 C 160.165 71.518,158.937 74.039,158.937 74.146 C 158.937 74.207,158.718 74.493,158.449 74.779 L 157.962 75.301 157.628 74.727 C 157.445 74.412,156.574 72.688,155.693 70.896 C 154.813 69.104,152.933 65.304,151.516 62.452 L 148.940 57.265 145.709 57.265 C 142.711 57.265,142.477 57.288,142.477 57.574 M213.330 78.311 L 213.373 99.357 222.460 99.347 C 230.647 99.337,231.598 99.308,232.062 99.048 C 232.345 98.889,232.730 98.759,232.919 98.759 C 233.331 98.758,235.693 97.599,236.177 97.160 C 236.365 96.988,236.829 96.610,237.207 96.319 C 238.179 95.570,239.220 94.258,239.895 92.928 C 240.015 92.692,240.159 92.460,240.215 92.413 C 240.378 92.276,240.903 90.681,241.061 89.841 C 241.141 89.417,241.271 88.761,241.350 88.384 C 241.499 87.669,241.366 85.173,241.107 83.841 C 240.706 81.776,238.642 78.736,237.079 77.910 C 236.154 77.421,236.460 76.399,237.974 74.925 C 238.210 74.696,238.834 73.720,238.834 73.581 C 238.834 73.495,238.950 73.328,239.091 73.210 C 239.233 73.093,239.348 72.839,239.348 72.646 C 239.348 72.453,239.483 72.145,239.649 71.963 C 240.082 71.484,240.097 65.863,239.667 64.968 C 239.512 64.645,239.210 63.995,238.995 63.523 C 238.069 61.487,235.882 59.259,234.033 58.468 C 233.798 58.367,233.373 58.180,233.090 58.051 C 231.495 57.325,230.637 57.265,221.789 57.265 L 213.286 57.265 213.330 78.311 M281.869 78.268 L 281.869 99.271 284.698 99.271 L 287.527 99.271 287.527 93.383 C 287.527 87.841,287.546 87.477,287.849 87.203 C 288.466 86.644,296.668 87.043,297.912 87.692 C 298.188 87.836,298.515 87.954,298.637 87.954 C 299.565 87.959,303.467 91.512,303.473 92.357 C 303.474 92.435,303.595 92.730,303.743 93.013 C 304.360 94.193,304.641 95.373,304.761 97.286 L 304.885 99.271 307.788 99.271 L 310.691 99.271 310.621 96.914 C 310.514 93.333,309.653 90.385,308.121 88.361 C 307.969 88.160,307.728 87.825,307.587 87.616 C 307.129 86.942,305.268 85.212,305.000 85.212 C 304.927 85.212,304.708 84.989,304.514 84.717 L 304.162 84.222 305.060 83.542 C 307.864 81.421,309.663 78.696,310.407 75.439 C 310.918 73.203,310.601 68.424,309.854 67.092 C 309.739 66.886,309.644 66.568,309.644 66.385 C 309.644 66.201,309.533 65.959,309.398 65.847 C 309.263 65.735,309.102 65.417,309.042 65.140 C 308.981 64.864,308.868 64.638,308.790 64.638 C 308.713 64.638,308.572 64.426,308.478 64.166 C 308.383 63.907,308.009 63.355,307.647 62.941 C 307.071 62.282,306.619 61.835,305.166 60.480 C 304.988 60.315,304.806 60.180,304.761 60.180 C 304.716 60.180,304.257 59.910,303.741 59.580 C 303.225 59.250,302.693 58.980,302.558 58.980 C 302.424 58.980,302.218 58.864,302.100 58.723 C 301.983 58.581,301.723 58.465,301.522 58.464 C 301.321 58.464,300.926 58.342,300.643 58.193 C 300.360 58.044,299.743 57.852,299.271 57.766 C 298.800 57.680,298.067 57.535,297.643 57.445 C 297.218 57.354,293.495 57.277,289.370 57.273 L 281.869 57.265 281.869 78.268 M352.165 78.268 L 352.165 99.271 354.994 99.271 L 357.823 99.271 357.823 93.389 C 357.823 88.910,357.874 87.436,358.040 87.209 C 358.458 86.637,366.956 87.039,368.203 87.689 C 368.482 87.834,368.835 87.954,368.989 87.954 C 369.142 87.955,369.364 88.071,369.481 88.213 C 369.599 88.354,369.784 88.470,369.894 88.470 C 370.870 88.470,374.453 92.828,374.453 94.015 C 374.453 94.142,374.563 94.471,374.696 94.744 C 374.833 95.026,374.991 96.118,375.059 97.257 L 375.180 99.271 378.084 99.271 L 380.987 99.271 380.916 96.914 C 380.810 93.411,380.217 91.237,378.728 88.898 C 378.548 88.616,378.349 88.268,378.286 88.127 C 378.222 87.985,378.048 87.739,377.898 87.580 C 376.786 86.397,376.146 85.776,375.808 85.555 C 374.883 84.948,374.254 84.012,374.771 84.012 C 375.140 84.012,377.920 81.251,378.606 80.202 C 379.139 79.389,379.421 78.874,380.215 77.269 C 380.346 77.002,380.454 76.610,380.454 76.399 C 380.454 76.188,380.574 75.663,380.721 75.233 C 381.225 73.752,380.879 68.545,380.183 67.153 C 380.049 66.886,379.940 66.529,379.940 66.359 C 379.940 66.190,379.829 65.959,379.694 65.847 C 379.558 65.735,379.398 65.417,379.337 65.140 C 379.277 64.864,379.152 64.638,379.060 64.638 C 378.968 64.638,378.813 64.406,378.714 64.123 C 378.616 63.841,378.465 63.609,378.380 63.609 C 378.295 63.609,378.225 63.524,378.225 63.420 C 378.225 63.230,376.951 61.809,376.181 61.141 C 375.953 60.942,375.625 60.645,375.453 60.480 C 375.280 60.315,375.089 60.180,375.028 60.180 C 374.967 60.180,374.511 59.910,374.014 59.580 C 373.516 59.250,372.997 58.980,372.859 58.980 C 372.722 58.980,372.513 58.864,372.396 58.723 C 372.279 58.581,372.018 58.465,371.818 58.464 C 371.617 58.464,371.222 58.341,370.939 58.190 C 370.656 58.040,370.039 57.852,369.567 57.773 C 369.096 57.693,368.363 57.550,367.938 57.454 C 367.484 57.352,364.084 57.277,359.666 57.273 L 352.165 57.265 352.165 78.268 M230.045 63.046 C 230.084 63.161,230.378 63.305,230.699 63.365 C 232.011 63.611,233.559 65.600,233.957 67.553 C 234.671 71.055,232.493 74.012,228.731 74.651 C 226.446 75.038,219.877 75.044,219.327 74.658 C 218.867 74.336,218.707 63.052,219.160 62.862 C 219.643 62.659,229.975 62.834,230.045 63.046 M297.669 63.052 C 297.786 63.170,298.028 63.266,298.206 63.266 C 298.687 63.266,300.595 64.191,301.171 64.702 C 302.166 65.587,302.960 66.444,303.055 66.738 C 303.108 66.903,303.224 67.038,303.312 67.038 C 303.400 67.038,303.472 67.135,303.473 67.252 C 303.474 67.370,303.595 67.698,303.744 67.981 C 304.685 69.776,304.983 73.232,304.343 74.925 C 303.434 77.328,301.970 79.313,300.543 80.076 C 300.319 80.196,300.032 80.398,299.906 80.524 C 299.779 80.651,299.542 80.754,299.379 80.754 C 299.216 80.754,298.988 80.849,298.873 80.965 C 298.237 81.600,288.446 82.161,287.772 81.601 C 287.431 81.319,287.402 63.005,287.741 62.860 C 288.220 62.656,297.451 62.834,297.669 63.052 M367.964 63.052 C 368.082 63.170,368.320 63.266,368.494 63.266 C 368.930 63.266,370.878 64.195,371.445 64.673 C 372.396 65.476,373.767 67.025,373.768 67.298 C 373.768 67.394,373.922 67.760,374.111 68.112 C 374.299 68.464,374.453 68.856,374.453 68.983 C 374.453 69.110,374.574 69.456,374.721 69.750 C 375.053 70.416,374.994 73.993,374.635 74.925 C 373.572 77.687,370.943 80.754,369.639 80.754 C 369.481 80.754,369.256 80.870,369.138 81.012 C 369.021 81.153,368.784 81.269,368.611 81.269 C 368.439 81.269,367.854 81.384,367.311 81.526 C 366.029 81.860,358.353 81.902,358.028 81.577 C 357.723 81.272,357.732 62.991,358.037 62.860 C 358.516 62.656,367.746 62.834,367.964 63.052 M229.944 80.197 C 230.062 80.315,230.302 80.411,230.478 80.411 C 232.045 80.411,235.062 83.307,235.062 84.811 C 235.062 84.994,235.145 85.227,235.247 85.329 C 235.474 85.555,235.369 87.898,235.085 88.949 C 234.679 90.450,232.692 92.756,231.804 92.756 C 231.653 92.756,231.438 92.848,231.326 92.961 C 230.560 93.727,220.305 94.203,219.327 93.518 L 218.946 93.251 218.946 86.754 C 218.946 80.751,218.968 80.243,219.246 80.074 C 219.698 79.798,229.660 79.913,229.944 80.197 " stroke="none" fill="#090909" fill-rule="evenodd"></path><path id="path3" d="M40.034 21.269 C 39.280 21.452,38.340 21.677,37.946 21.770 C 37.249 21.934,35.724 22.804,34.423 23.781 C 33.197 24.701,31.922 26.813,31.183 29.147 L 30.776 30.433 30.730 76.725 L 30.685 123.018 31.125 124.732 C 31.368 125.675,31.709 126.678,31.884 126.961 C 32.059 127.244,32.420 127.890,32.686 128.398 C 33.921 130.755,36.443 132.397,39.843 133.058 C 41.559 133.392,42.888 133.395,167.767 133.347 L 293.956 133.300 295.328 132.904 C 299.183 131.790,302.337 128.873,302.885 125.912 C 302.953 125.546,303.154 124.824,303.330 124.307 C 303.699 123.231,303.826 101.661,303.470 100.724 C 303.377 100.478,303.300 100.015,303.300 99.695 C 303.300 99.279,303.198 99.057,302.943 98.920 C 302.674 98.777,302.611 98.625,302.689 98.314 C 302.761 98.027,302.721 97.900,302.558 97.900 C 302.430 97.900,302.254 97.760,302.169 97.589 C 300.830 94.898,294.819 94.444,292.242 96.838 C 291.392 97.627,291.304 97.796,290.777 99.640 L 290.270 101.414 290.270 110.446 C 290.270 118.429,290.239 119.510,290.001 119.748 C 289.620 120.128,44.571 120.165,44.256 119.785 C 44.026 119.508,43.969 34.660,44.199 34.430 C 44.516 34.113,289.821 34.262,290.056 34.580 C 290.218 34.800,290.271 36.448,290.273 41.396 C 290.275 48.146,290.393 49.527,291.049 50.529 C 291.187 50.738,291.299 51.022,291.299 51.159 C 291.299 51.296,291.680 51.826,292.146 52.335 C 294.062 54.431,299.745 54.630,301.414 52.659 C 303.637 50.036,303.678 49.785,303.611 39.091 C 303.574 33.094,303.498 30.301,303.363 30.004 C 303.255 29.769,303.071 29.151,302.953 28.633 C 302.163 25.173,299.218 22.500,294.985 21.403 L 293.442 21.003 167.424 20.970 C 43.282 20.937,41.385 20.942,40.034 21.269 M294.385 24.207 C 294.809 24.258,295.529 24.523,295.983 24.795 C 296.438 25.067,296.978 25.382,297.184 25.496 C 297.793 25.834,299.014 27.135,299.014 27.447 C 299.014 27.606,299.207 27.862,299.443 28.017 C 299.679 28.171,299.871 28.435,299.871 28.602 C 299.871 28.770,299.958 28.993,300.063 29.099 C 300.472 29.507,300.547 31.061,300.559 39.389 C 300.572 48.212,300.536 48.777,299.881 49.842 C 298.917 51.410,294.883 51.524,294.097 50.005 C 293.326 48.515,293.320 48.439,293.319 40.806 C 293.319 31.895,293.311 31.793,292.662 31.457 C 292.150 31.192,47.422 31.088,43.257 31.351 C 42.183 31.419,41.422 31.548,41.286 31.685 C 41.007 31.965,41.029 28.220,41.007 78.354 C 40.988 121.768,40.998 122.668,41.504 122.938 C 42.157 123.288,292.614 123.062,292.964 122.711 C 293.251 122.425,293.272 121.750,293.301 112.338 C 293.344 98.363,293.330 98.423,296.519 98.315 C 299.212 98.223,300.306 99.046,300.480 101.296 C 300.639 103.332,300.553 123.306,300.384 123.621 C 300.291 123.795,300.214 124.127,300.214 124.357 C 300.214 124.921,299.375 126.734,298.985 127.014 C 298.812 127.137,298.671 127.383,298.671 127.560 C 298.671 127.906,296.048 129.647,295.242 129.837 C 295.006 129.892,294.505 130.018,294.128 130.117 C 293.654 130.241,254.434 130.297,167.060 130.300 L 40.678 130.304 39.399 129.887 C 36.538 128.953,34.881 127.219,34.048 124.288 C 33.655 122.905,33.641 31.034,34.033 30.347 C 34.168 30.111,34.281 29.657,34.285 29.336 C 34.297 28.134,37.095 24.940,38.309 24.744 C 38.649 24.688,38.969 24.576,39.020 24.495 C 39.070 24.413,39.435 24.341,39.830 24.334 C 40.225 24.328,40.703 24.256,40.892 24.175 C 41.259 24.016,293.086 24.048,294.385 24.207 M40.634 26.237 C 38.850 26.553,37.215 27.795,36.400 29.455 L 35.919 30.433 35.919 77.167 L 35.919 123.902 36.411 124.874 C 37.022 126.080,37.992 127.040,39.245 127.675 L 40.206 128.161 167.252 128.161 L 294.299 128.161 294.899 127.812 C 296.583 126.831,297.044 126.389,297.900 124.926 L 298.414 124.046 298.463 112.714 C 298.519 99.603,298.624 100.476,297.011 100.596 C 295.212 100.730,295.372 99.604,295.349 112.293 C 295.334 120.206,295.273 123.494,295.139 123.581 C 295.035 123.648,294.859 123.877,294.747 124.089 C 294.636 124.301,294.435 124.475,294.302 124.475 C 294.168 124.475,293.983 124.610,293.891 124.775 C 293.731 125.060,287.521 125.075,167.217 125.075 L 40.712 125.075 40.234 124.699 C 39.972 124.493,39.588 124.109,39.381 123.846 L 39.006 123.369 38.955 77.415 L 38.905 31.462 39.278 30.764 C 39.483 30.380,39.896 29.898,40.196 29.692 L 40.741 29.318 167.123 29.318 L 293.504 29.318 294.092 29.704 C 295.372 30.545,295.319 30.132,295.381 39.596 C 295.445 49.225,295.342 48.612,296.907 48.741 C 298.532 48.875,298.408 49.601,298.463 39.599 L 298.512 30.694 298.045 29.706 C 297.474 28.499,296.117 27.105,294.977 26.556 L 294.128 26.147 167.767 26.124 C 98.268 26.111,41.059 26.162,40.634 26.237 M294.922 27.041 C 296.203 27.661,297.337 28.808,297.655 29.804 C 297.765 30.150,297.923 30.506,298.006 30.596 C 298.089 30.685,298.157 34.678,298.157 39.468 L 298.157 48.178 297.247 48.178 C 295.650 48.178,295.771 48.872,295.718 39.406 L 295.671 31.062 295.156 30.334 C 294.874 29.934,294.333 29.445,293.956 29.248 L 293.270 28.890 168.195 28.843 C 31.550 28.791,40.607 28.718,39.493 29.888 C 38.494 30.937,38.555 27.624,38.612 77.933 C 38.668 128.335,38.556 123.634,39.727 124.720 C 40.630 125.558,34.985 125.525,167.779 125.470 L 293.639 125.418 294.241 125.005 C 294.573 124.778,295.030 124.320,295.258 123.989 L 295.671 123.386 295.757 112.486 C 295.804 106.491,295.905 101.489,295.981 101.372 C 296.066 101.240,296.512 101.157,297.138 101.157 L 298.157 101.157 298.157 112.301 L 298.157 123.445 297.630 124.561 C 297.005 125.884,295.728 127.101,294.459 127.583 C 293.635 127.895,290.343 127.904,167.225 127.904 L 40.836 127.904 39.835 127.527 C 38.385 126.981,36.887 125.425,36.473 124.036 C 36.003 122.454,36.003 31.855,36.473 30.268 C 36.894 28.851,38.392 27.319,39.867 26.798 L 40.892 26.436 167.338 26.463 L 293.785 26.489 294.922 27.041 M76.425 57.050 C 77.203 57.082,78.476 57.082,79.254 57.050 C 80.032 57.018,79.396 56.992,77.840 56.992 C 76.284 56.992,75.647 57.018,76.425 57.050 M98.808 57.050 C 99.638 57.082,100.950 57.082,101.723 57.050 C 102.496 57.018,101.817 56.992,100.214 56.993 C 98.611 56.993,97.978 57.019,98.808 57.050 M144.063 57.050 C 144.983 57.081,146.487 57.081,147.407 57.050 C 148.326 57.019,147.574 56.994,145.735 56.994 C 143.896 56.994,143.144 57.019,144.063 57.050 M166.936 57.051 C 166.892 57.122,167.871 57.160,169.112 57.135 C 173.337 57.051,173.773 56.991,170.392 56.956 C 168.535 56.938,166.980 56.980,166.936 57.051 M217.703 57.051 C 220.178 57.078,224.228 57.078,226.704 57.051 C 229.179 57.024,227.154 57.002,222.203 57.002 C 217.252 57.002,215.227 57.024,217.703 57.051 M285.855 57.051 C 288.095 57.078,291.760 57.078,293.999 57.051 C 296.239 57.024,294.406 57.002,289.927 57.002 C 285.448 57.002,283.616 57.024,285.855 57.051 M356.163 57.051 C 358.409 57.078,362.035 57.078,364.221 57.051 C 366.407 57.024,364.569 57.002,360.137 57.002 C 355.705 57.002,353.917 57.024,356.163 57.051 M74.616 57.300 C 74.235 57.681,74.328 99.167,74.711 99.456 C 74.966 99.650,74.979 99.648,74.796 99.443 C 74.490 99.099,74.481 57.606,74.788 57.300 C 74.901 57.186,74.955 57.094,74.908 57.094 C 74.861 57.094,74.730 57.186,74.616 57.300 M80.883 57.265 C 81.048 57.451,81.097 59.466,81.097 66.097 C 81.097 72.700,81.147 74.756,81.312 74.980 C 81.619 75.399,96.884 75.345,96.998 74.925 C 97.052 74.728,97.032 74.719,96.913 74.889 C 96.734 75.142,81.875 75.126,81.483 74.872 C 81.316 74.764,81.269 72.820,81.269 66.106 C 81.269 58.090,81.247 57.463,80.969 57.252 C 80.713 57.059,80.701 57.061,80.883 57.265 M174.014 57.255 C 174.224 57.388,174.225 57.456,174.023 57.724 C 173.800 58.018,173.805 58.020,174.097 57.753 C 174.414 57.465,174.342 57.092,173.972 57.096 C 173.844 57.098,173.859 57.157,174.014 57.255 M212.852 57.308 C 212.807 57.426,212.791 66.935,212.815 78.440 L 212.859 99.357 212.945 78.225 C 212.992 66.603,213.009 57.094,212.982 57.094 C 212.956 57.094,212.897 57.190,212.852 57.308 M281.434 57.308 C 281.389 57.426,281.372 66.935,281.396 78.440 L 281.440 99.357 281.526 78.225 C 281.573 66.603,281.590 57.094,281.563 57.094 C 281.537 57.094,281.478 57.190,281.434 57.308 M298.928 57.356 C 299.788 57.665,299.905 57.664,299.357 57.351 C 299.121 57.216,298.774 57.107,298.586 57.107 C 298.397 57.108,298.551 57.220,298.928 57.356 M351.729 57.308 C 351.684 57.426,351.668 66.935,351.692 78.440 L 351.736 99.357 351.822 78.225 C 351.869 66.603,351.886 57.094,351.859 57.094 C 351.833 57.094,351.774 57.190,351.729 57.308 M369.224 57.356 C 370.083 57.665,370.201 57.664,369.653 57.351 C 369.417 57.216,369.070 57.107,368.881 57.107 C 368.693 57.108,368.847 57.220,369.224 57.356 M237.291 60.437 C 237.611 60.767,237.911 61.037,237.958 61.037 C 238.006 61.037,237.782 60.767,237.462 60.437 C 237.143 60.107,236.842 59.837,236.795 59.837 C 236.748 59.837,236.971 60.107,237.291 60.437 M305.548 60.394 C 305.589 60.418,306.084 60.862,306.648 61.380 L 307.673 62.323 306.735 61.337 C 306.220 60.795,305.725 60.351,305.635 60.351 C 305.546 60.351,305.506 60.371,305.548 60.394 M375.843 60.394 C 375.885 60.418,376.380 60.862,376.944 61.380 L 377.968 62.323 377.031 61.337 C 376.516 60.795,376.021 60.351,375.931 60.351 C 375.841 60.351,375.802 60.371,375.843 60.394 M221.646 63.051 C 222.801 63.081,224.691 63.081,225.847 63.051 C 227.002 63.022,226.057 62.997,223.746 62.997 C 221.436 62.997,220.491 63.022,221.646 63.051 M289.884 63.051 C 290.851 63.082,292.432 63.082,293.399 63.051 C 294.366 63.021,293.575 62.996,291.642 62.996 C 289.709 62.996,288.918 63.021,289.884 63.051 M360.275 63.051 C 361.294 63.082,362.914 63.082,363.876 63.051 C 364.837 63.021,364.003 62.996,362.023 62.996 C 360.043 62.996,359.256 63.021,360.275 63.051 M228.218 63.158 C 228.258 63.192,228.598 63.272,228.976 63.336 C 229.467 63.418,229.588 63.401,229.404 63.275 C 229.173 63.118,228.046 63.006,228.218 63.158 M296.099 63.266 C 296.335 63.342,296.682 63.406,296.871 63.408 L 297.214 63.414 296.871 63.266 C 296.682 63.185,296.335 63.121,296.099 63.124 L 295.671 63.129 296.099 63.266 M358.205 71.893 C 358.179 77.765,358.226 80.889,358.343 81.109 C 358.530 81.458,364.423 81.597,366.395 81.298 C 366.820 81.234,365.219 81.209,362.838 81.244 C 360.456 81.279,358.491 81.279,358.469 81.245 C 358.448 81.211,358.389 77.094,358.338 72.096 L 358.245 63.009 358.205 71.893 M365.895 63.157 C 365.934 63.191,366.314 63.269,366.738 63.330 C 367.277 63.409,367.432 63.391,367.252 63.271 C 367.021 63.117,365.723 63.008,365.895 63.157 M299.957 64.466 C 300.240 64.654,300.549 64.807,300.643 64.807 C 300.737 64.808,300.562 64.654,300.253 64.466 C 299.525 64.022,299.287 64.022,299.957 64.466 M370.315 64.456 C 370.537 64.650,370.801 64.809,370.901 64.809 C 371.111 64.809,371.101 64.801,370.424 64.404 L 369.910 64.103 370.315 64.456 M233.005 66.115 C 233.005 66.210,233.118 66.437,233.256 66.620 C 233.395 66.803,233.508 66.875,233.508 66.781 C 233.508 66.687,233.395 66.460,233.256 66.277 C 233.118 66.094,233.005 66.021,233.005 66.115 M309.816 66.115 C 309.816 66.210,309.929 66.437,310.067 66.620 C 310.206 66.803,310.319 66.875,310.319 66.781 C 310.319 66.687,310.206 66.460,310.067 66.277 C 309.929 66.094,309.816 66.021,309.816 66.115 M380.124 66.095 C 380.124 66.189,380.234 66.459,380.369 66.695 C 380.503 66.931,380.614 67.047,380.614 66.952 C 380.614 66.858,380.503 66.588,380.369 66.352 C 380.234 66.117,380.124 66.001,380.124 66.095 M240.610 68.581 C 240.610 69.477,240.639 69.844,240.675 69.396 C 240.710 68.948,240.710 68.215,240.675 67.767 C 240.639 67.319,240.610 67.685,240.610 68.581 M168.367 68.460 C 167.897 69.187,167.490 69.990,167.558 70.058 C 167.595 70.096,167.773 69.837,167.952 69.482 C 168.131 69.128,168.388 68.703,168.522 68.537 C 168.655 68.372,168.730 68.202,168.688 68.159 C 168.646 68.117,168.501 68.253,168.367 68.460 M310.884 69.438 C 310.884 69.769,310.919 69.904,310.963 69.739 C 311.006 69.574,311.006 69.303,310.963 69.138 C 310.919 68.973,310.884 69.108,310.884 69.438 M381.180 69.438 C 381.180 69.769,381.215 69.904,381.258 69.739 C 381.301 69.574,381.301 69.303,381.258 69.138 C 381.215 68.973,381.180 69.108,381.180 69.438 M304.010 70.210 C 304.010 70.399,304.077 70.707,304.158 70.896 L 304.305 71.239 304.305 70.896 C 304.305 70.707,304.239 70.399,304.158 70.210 L 304.010 69.867 304.010 70.210 M374.311 70.210 C 374.308 70.399,374.372 70.707,374.453 70.896 C 374.641 71.333,374.641 70.882,374.453 70.296 C 374.343 69.951,374.315 69.934,374.311 70.210 M374.380 73.651 C 374.317 73.903,374.298 74.141,374.339 74.182 C 374.379 74.222,374.464 74.050,374.527 73.798 C 374.590 73.547,374.609 73.308,374.568 73.268 C 374.528 73.228,374.443 73.400,374.380 73.651 M304.072 73.725 C 304.008 73.928,303.994 74.132,304.041 74.179 C 304.088 74.226,304.179 74.099,304.243 73.896 C 304.308 73.693,304.322 73.489,304.275 73.442 C 304.228 73.395,304.136 73.522,304.072 73.725 M219.608 74.285 C 219.681 74.358,221.664 74.396,224.015 74.371 L 228.290 74.324 223.883 74.239 C 221.460 74.192,219.536 74.213,219.608 74.285 M310.884 74.925 C 310.884 75.255,310.919 75.390,310.963 75.225 C 311.006 75.060,311.006 74.790,310.963 74.625 C 310.919 74.460,310.884 74.595,310.884 74.925 M381.183 75.011 C 381.185 75.388,381.220 75.522,381.261 75.309 C 381.302 75.095,381.301 74.787,381.258 74.623 C 381.215 74.459,381.181 74.634,381.183 75.011 M238.254 78.402 C 238.312 78.569,238.525 78.791,238.726 78.894 C 239.039 79.055,239.055 79.048,238.842 78.847 C 238.705 78.717,238.492 78.495,238.370 78.354 C 238.176 78.130,238.161 78.136,238.254 78.402 M371.498 78.968 C 371.146 79.290,370.915 79.552,370.984 79.549 C 371.152 79.543,372.274 78.518,372.198 78.441 C 372.165 78.408,371.850 78.645,371.498 78.968 M153.450 79.277 C 153.450 79.461,153.961 80.411,154.059 80.411 C 154.107 80.411,154.018 80.161,153.862 79.854 C 153.543 79.228,153.450 79.098,153.450 79.277 M219.574 80.354 C 219.511 80.417,219.461 80.552,219.463 80.654 C 219.464 80.757,219.529 80.740,219.608 80.615 C 219.721 80.437,220.688 80.401,224.304 80.444 C 226.809 80.473,228.769 80.441,228.660 80.371 C 228.412 80.214,219.731 80.198,219.574 80.354 M378.595 80.836 C 378.378 81.152,377.744 81.848,377.185 82.381 C 376.625 82.914,376.168 83.400,376.168 83.461 C 376.168 83.620,377.984 81.819,378.603 81.047 C 378.889 80.689,379.094 80.365,379.057 80.328 C 379.020 80.291,378.812 80.520,378.595 80.836 M287.881 80.679 C 287.837 81.369,288.208 81.451,291.128 81.397 L 293.956 81.345 291.111 81.307 C 288.347 81.270,288.260 81.258,288.079 80.883 C 287.977 80.671,287.888 80.579,287.881 80.679 M307.168 82.094 C 305.934 83.444,305.907 83.487,306.881 82.555 C 307.793 81.682,308.769 80.558,308.584 80.593 C 308.554 80.599,307.917 81.274,307.168 82.094 M295.071 81.269 C 294.214 81.449,295.093 81.457,296.099 81.278 C 296.795 81.154,296.812 81.140,296.271 81.141 C 295.941 81.142,295.401 81.199,295.071 81.269 M81.212 81.383 C 81.149 81.446,81.097 85.493,81.097 90.376 C 81.097 98.651,81.077 99.266,80.797 99.429 C 80.632 99.525,80.584 99.606,80.691 99.609 C 81.229 99.624,81.263 99.104,81.309 90.213 C 81.334 85.294,81.348 81.269,81.340 81.269 C 81.332 81.269,81.274 81.320,81.212 81.383 M241.814 86.755 C 241.814 87.840,241.841 88.283,241.876 87.741 C 241.910 87.199,241.910 86.312,241.876 85.769 C 241.841 85.227,241.814 85.671,241.814 86.755 M234.937 86.927 C 234.937 87.351,234.971 87.525,235.012 87.312 C 235.053 87.100,235.053 86.753,235.012 86.541 C 234.971 86.329,234.937 86.502,234.937 86.927 M293.913 87.566 C 294.267 87.603,294.846 87.603,295.199 87.566 C 295.553 87.529,295.264 87.499,294.556 87.499 C 293.849 87.499,293.560 87.529,293.913 87.566 M358.371 87.647 C 358.219 87.799,358.165 89.348,358.165 93.553 C 358.165 98.802,358.142 99.268,357.865 99.429 C 357.700 99.525,357.652 99.606,357.759 99.609 C 358.279 99.623,358.333 99.083,358.377 93.435 L 358.423 87.714 358.851 87.594 C 359.210 87.495,359.223 87.472,358.928 87.458 C 358.735 87.449,358.484 87.534,358.371 87.647 M364.641 87.565 C 364.949 87.603,365.412 87.603,365.670 87.564 C 365.927 87.524,365.675 87.493,365.109 87.494 C 364.544 87.495,364.333 87.527,364.641 87.565 M370.783 89.584 C 371.038 89.820,371.287 90.013,371.337 90.013 C 371.386 90.013,371.246 89.820,371.024 89.584 C 370.803 89.348,370.554 89.156,370.471 89.156 C 370.389 89.156,370.529 89.348,370.783 89.584 M380.113 90.880 C 380.112 91.027,380.225 91.297,380.363 91.480 C 380.691 91.913,380.694 91.726,380.370 91.104 C 380.229 90.834,380.113 90.733,380.113 90.880 M309.816 90.976 C 309.816 91.070,309.929 91.297,310.067 91.480 C 310.206 91.663,310.319 91.736,310.319 91.642 C 310.319 91.547,310.206 91.320,310.067 91.137 C 309.929 90.954,309.816 90.882,309.816 90.976 M240.919 91.478 C 240.632 92.108,240.687 92.243,240.998 91.669 C 241.143 91.402,241.229 91.151,241.190 91.111 C 241.151 91.072,241.029 91.237,240.919 91.478 M232.748 91.663 C 232.439 91.925,232.376 92.030,232.590 91.923 C 232.904 91.767,233.494 91.203,233.326 91.219 C 233.291 91.223,233.030 91.422,232.748 91.663 M219.608 93.145 C 219.681 93.217,221.856 93.255,224.443 93.230 L 229.147 93.184 224.312 93.099 C 221.652 93.052,219.536 93.072,219.608 93.145 M310.888 94.556 C 310.890 94.934,310.925 95.068,310.966 94.854 C 311.007 94.641,311.005 94.333,310.962 94.169 C 310.919 94.005,310.886 94.179,310.888 94.556 M381.183 94.556 C 381.185 94.934,381.220 95.068,381.261 94.854 C 381.302 94.641,381.301 94.333,381.258 94.169 C 381.215 94.005,381.181 94.179,381.183 94.556 M303.992 95.156 C 303.992 95.298,304.066 95.529,304.158 95.671 C 304.305 95.899,304.324 95.899,304.324 95.671 C 304.324 95.529,304.249 95.298,304.158 95.156 C 304.010 94.928,303.992 94.928,303.992 95.156 M304.357 98.529 C 304.321 99.244,304.475 99.614,304.809 99.614 C 305.052 99.614,305.051 99.592,304.800 99.400 C 304.646 99.282,304.489 98.916,304.452 98.586 L 304.384 97.985 304.357 98.529 M161.146 99.062 C 161.089 99.403,161.114 99.563,161.209 99.468 C 161.296 99.382,161.338 99.128,161.303 98.905 C 161.249 98.562,161.224 98.586,161.146 99.062 M213.046 99.596 C 213.232 99.799,229.181 99.894,229.382 99.694 C 229.429 99.647,225.824 99.612,221.372 99.618 C 216.919 99.623,213.182 99.574,213.067 99.510 C 212.915 99.424,212.909 99.447,213.046 99.596 " stroke="none" fill="#fb94ac" fill-rule="evenodd"></path><path id="path4" d="M74.788 57.300 C 74.489 57.598,74.489 99.110,74.788 99.408 C 75.082 99.703,80.408 99.695,80.807 99.400 C 81.071 99.204,81.100 98.409,81.140 90.270 L 81.183 81.354 89.113 81.310 L 97.042 81.265 97.042 90.234 C 97.042 96.981,97.093 99.254,97.248 99.408 C 97.511 99.671,102.742 99.696,103.226 99.437 C 103.665 99.202,103.758 57.645,103.321 57.282 C 103.158 57.147,102.157 57.100,100.106 57.133 L 97.128 57.180 97.042 66.181 L 96.957 75.182 89.241 75.227 C 82.140 75.269,81.509 75.249,81.312 74.980 C 81.147 74.756,81.097 72.700,81.097 66.097 C 81.097 59.643,81.046 57.454,80.892 57.300 C 80.603 57.011,75.077 57.011,74.788 57.300 M142.194 57.358 C 142.099 57.605,142.190 57.877,142.621 58.637 C 142.983 59.277,143.197 59.678,143.944 61.123 C 144.382 61.972,145.153 63.438,145.655 64.381 C 146.158 65.324,146.806 66.558,147.095 67.124 C 147.384 67.690,148.035 68.924,148.542 69.867 C 149.048 70.810,149.799 72.237,150.211 73.039 C 150.623 73.841,151.057 74.598,151.176 74.723 C 151.295 74.848,151.393 75.068,151.393 75.212 C 151.393 75.357,151.617 75.807,151.891 76.213 C 152.164 76.618,152.438 77.106,152.498 77.296 C 152.559 77.487,152.795 77.976,153.024 78.384 C 153.253 78.792,153.751 79.739,154.131 80.489 L 154.822 81.852 154.822 90.556 C 154.822 100.850,154.358 99.642,158.284 99.576 L 161.066 99.529 161.193 98.928 C 161.262 98.598,161.324 94.623,161.331 90.095 L 161.343 81.862 162.083 80.408 C 163.402 77.820,164.801 75.191,165.044 74.844 C 165.174 74.658,165.281 74.372,165.281 74.210 C 165.281 74.047,165.377 73.852,165.495 73.776 C 165.699 73.646,166.090 72.944,166.479 72.010 C 166.577 71.775,166.810 71.350,166.996 71.067 C 167.182 70.784,167.380 70.437,167.436 70.296 C 167.613 69.848,168.212 68.692,168.636 67.981 C 168.862 67.604,169.090 67.180,169.144 67.038 C 169.253 66.752,169.507 66.259,170.360 64.681 C 171.909 61.813,172.139 61.354,172.139 61.127 C 172.139 60.993,172.235 60.821,172.353 60.746 C 172.788 60.468,174.222 57.388,173.987 57.237 C 173.867 57.159,172.225 57.114,170.340 57.137 L 166.913 57.180 164.254 62.524 C 162.791 65.463,160.870 69.340,159.985 71.138 C 158.075 75.019,158.106 74.983,157.586 73.929 C 157.367 73.487,157.123 73.009,157.044 72.868 C 156.964 72.726,156.580 71.955,156.190 71.153 C 155.800 70.351,155.411 69.580,155.326 69.438 C 155.242 69.297,155.015 68.834,154.822 68.410 C 154.629 67.985,153.297 65.285,151.861 62.409 L 149.250 57.180 145.774 57.133 C 142.732 57.093,142.285 57.121,142.194 57.358 M213.059 57.208 C 212.872 57.395,212.922 99.409,213.109 99.524 C 213.200 99.580,217.347 99.624,222.325 99.621 C 232.181 99.616,232.221 99.612,234.462 98.551 C 236.825 97.431,240.203 94.149,240.205 92.970 C 240.206 92.853,240.274 92.756,240.357 92.756 C 240.520 92.756,240.878 91.812,241.413 89.972 C 242.056 87.761,241.843 84.227,240.957 82.412 C 240.827 82.145,240.720 81.829,240.720 81.710 C 240.720 81.590,240.566 81.315,240.377 81.097 C 240.189 80.880,240.034 80.602,240.034 80.479 C 240.034 80.260,238.501 78.643,237.242 77.534 L 236.603 76.972 237.291 76.256 C 238.100 75.413,239.421 73.480,239.605 72.868 C 239.675 72.632,239.792 72.362,239.864 72.267 C 239.937 72.173,240.052 71.749,240.120 71.324 C 240.188 70.900,240.318 70.462,240.408 70.350 C 240.801 69.862,240.312 65.588,239.704 64.209 C 239.296 63.282,238.772 62.327,238.544 62.097 C 238.421 61.972,238.320 61.805,238.320 61.725 C 238.320 61.154,235.234 58.531,234.172 58.200 C 233.954 58.132,233.738 58.024,233.691 57.961 C 233.143 57.222,213.752 56.515,213.059 57.208 M281.640 57.208 C 281.359 57.490,281.514 99.402,281.797 99.510 C 282.245 99.682,287.127 99.627,287.607 99.445 L 288.053 99.275 288.034 93.534 C 288.024 90.376,288.065 87.713,288.124 87.616 C 288.256 87.403,295.130 87.393,296.271 87.604 C 297.372 87.808,299.433 88.598,299.957 89.016 C 301.293 90.083,301.724 90.487,302.229 91.148 C 302.908 92.038,303.985 94.066,303.989 94.462 C 303.990 94.608,304.103 95.036,304.239 95.414 C 304.383 95.815,304.489 96.754,304.493 97.679 C 304.500 99.061,304.542 99.281,304.832 99.437 C 305.316 99.696,310.548 99.671,310.810 99.408 C 311.384 98.834,310.824 92.916,310.065 91.529 C 309.928 91.279,309.816 90.922,309.816 90.736 C 309.816 90.550,309.700 90.302,309.559 90.184 C 309.417 90.067,309.301 89.883,309.301 89.776 C 309.301 89.100,306.947 86.260,305.272 84.915 L 304.586 84.364 305.101 83.988 C 308.730 81.340,310.824 77.373,310.970 72.868 C 311.091 69.171,310.671 67.472,308.799 64.063 C 307.558 61.804,303.026 58.150,301.426 58.117 C 301.278 58.114,301.008 57.998,300.824 57.860 C 300.641 57.722,300.294 57.607,300.053 57.606 C 299.812 57.604,299.306 57.492,298.928 57.356 C 298.205 57.095,281.892 56.956,281.640 57.208 M351.936 57.208 C 351.654 57.490,351.810 99.402,352.093 99.510 C 352.557 99.688,357.482 99.625,357.834 99.437 C 358.152 99.267,358.165 99.019,358.165 93.543 C 358.165 88.711,358.205 87.793,358.419 87.616 C 358.846 87.261,366.832 87.450,367.544 87.832 C 367.846 87.994,368.285 88.127,368.520 88.127 C 368.755 88.127,368.997 88.209,369.059 88.309 C 369.121 88.409,369.338 88.567,369.541 88.659 C 372.489 90.003,374.796 94.013,374.796 97.792 C 374.796 99.067,374.840 99.282,375.128 99.437 C 375.612 99.696,380.843 99.671,381.106 99.408 C 381.680 98.834,381.120 92.916,380.361 91.529 C 380.224 91.279,380.111 90.922,380.111 90.736 C 380.111 90.550,379.996 90.302,379.854 90.184 C 379.713 90.067,379.597 89.883,379.597 89.776 C 379.597 89.100,377.271 86.296,375.566 84.917 L 374.882 84.364 375.396 83.974 C 377.222 82.587,379.398 80.032,380.035 78.526 C 380.575 77.250,380.797 76.613,380.797 76.342 C 380.797 76.166,380.894 75.926,381.012 75.808 C 381.380 75.440,381.303 69.607,380.914 68.324 C 379.841 64.789,377.864 61.776,375.620 60.253 C 375.214 59.978,374.839 59.695,374.787 59.624 C 374.628 59.410,372.009 58.123,371.722 58.117 C 371.574 58.114,371.303 57.998,371.120 57.860 C 370.937 57.722,370.590 57.607,370.349 57.606 C 370.107 57.604,369.601 57.492,369.224 57.356 C 368.501 57.095,352.188 56.956,351.936 57.208 M80.583 66.215 C 80.650 73.166,80.717 75.128,80.891 75.302 C 81.121 75.532,95.961 75.743,96.827 75.529 L 97.211 75.434 97.255 66.392 L 97.300 57.351 99.871 57.302 C 101.286 57.275,102.617 57.296,102.829 57.348 L 103.215 57.443 103.215 78.357 L 103.215 99.271 100.216 99.271 L 97.217 99.271 97.173 90.141 L 97.128 81.012 89.089 80.967 C 83.297 80.935,80.985 80.977,80.817 81.117 C 80.625 81.276,80.583 82.914,80.583 90.291 L 80.583 99.271 77.754 99.271 L 74.925 99.271 74.925 78.383 C 74.925 66.894,74.978 57.441,75.043 57.375 C 75.109 57.310,76.362 57.278,77.830 57.304 L 80.497 57.351 80.583 66.215 M151.516 62.452 C 152.933 65.304,154.813 69.104,155.693 70.896 C 156.574 72.688,157.445 74.412,157.628 74.727 L 157.962 75.301 158.449 74.779 C 158.718 74.493,158.937 74.207,158.937 74.146 C 158.937 74.039,160.165 71.518,160.478 70.982 C 160.561 70.840,160.913 70.107,161.260 69.353 C 161.608 68.598,161.961 67.865,162.044 67.724 C 162.127 67.583,162.276 67.274,162.375 67.038 C 162.649 66.387,163.274 65.149,163.738 64.338 C 163.833 64.173,163.991 63.845,164.090 63.609 C 164.363 62.958,164.988 61.720,165.453 60.909 C 165.547 60.744,165.706 60.416,165.805 60.180 C 165.904 59.944,166.261 59.190,166.598 58.505 L 167.211 57.258 170.402 57.304 C 173.879 57.355,174.092 57.426,173.345 58.287 C 173.153 58.508,172.996 58.827,172.996 58.996 C 172.996 59.165,172.929 59.344,172.847 59.395 C 172.765 59.445,172.476 59.932,172.204 60.476 C 171.932 61.021,171.652 61.492,171.582 61.523 C 171.511 61.555,171.453 61.646,171.453 61.726 C 171.453 61.951,171.141 62.611,170.767 63.180 C 170.580 63.463,170.385 63.811,170.332 63.952 C 170.279 64.093,170.112 64.441,169.961 64.724 C 169.664 65.282,168.090 68.298,167.590 69.267 C 167.420 69.597,167.216 69.983,167.137 70.124 C 167.058 70.266,166.898 70.574,166.783 70.810 C 166.668 71.046,166.529 71.277,166.474 71.324 C 166.420 71.372,166.061 72.027,165.678 72.782 C 163.750 76.574,163.128 77.761,163.032 77.840 C 162.974 77.887,162.718 78.368,162.464 78.908 C 162.210 79.448,161.938 79.930,161.860 79.978 C 161.782 80.026,161.665 80.277,161.600 80.537 C 161.535 80.796,161.391 81.064,161.281 81.132 C 161.133 81.224,161.068 83.612,161.033 90.264 L 160.986 99.271 158.081 99.271 L 155.177 99.271 155.128 90.313 L 155.079 81.354 154.355 80.069 C 153.956 79.361,153.380 78.281,153.074 77.668 C 152.769 77.055,152.476 76.515,152.424 76.468 C 152.372 76.421,152.235 76.189,152.119 75.954 C 152.004 75.718,151.840 75.409,151.756 75.268 C 151.671 75.126,151.515 74.818,151.410 74.582 C 151.305 74.346,150.840 73.459,150.376 72.610 C 149.529 71.061,148.769 69.575,148.577 69.096 C 148.521 68.954,148.322 68.607,148.135 68.324 C 147.949 68.041,147.751 67.694,147.696 67.553 C 147.641 67.411,147.526 67.180,147.440 67.038 C 147.354 66.897,147.168 66.550,147.027 66.267 C 146.886 65.984,146.698 65.637,146.608 65.495 C 146.519 65.354,146.402 65.122,146.349 64.981 C 146.295 64.839,146.174 64.589,146.079 64.423 C 145.708 63.778,145.548 63.479,144.909 62.237 C 143.542 59.580,142.797 58.203,142.640 58.045 C 141.963 57.365,142.356 57.265,145.709 57.265 L 148.940 57.265 151.516 62.452 M231.433 57.541 C 232.062 57.693,232.808 57.922,233.090 58.051 C 233.373 58.180,233.798 58.367,234.033 58.468 C 235.882 59.259,238.069 61.487,238.995 63.523 C 239.210 63.995,239.512 64.645,239.667 64.968 C 240.097 65.863,240.082 71.484,239.649 71.963 C 239.483 72.145,239.348 72.453,239.348 72.646 C 239.348 72.839,239.233 73.093,239.091 73.210 C 238.950 73.328,238.834 73.495,238.834 73.581 C 238.834 73.720,238.210 74.696,237.974 74.925 C 236.460 76.399,236.154 77.421,237.079 77.910 C 238.642 78.736,240.706 81.776,241.107 83.841 C 241.366 85.173,241.499 87.669,241.350 88.384 C 241.271 88.761,241.141 89.417,241.061 89.841 C 240.903 90.681,240.378 92.276,240.215 92.413 C 240.159 92.460,240.015 92.692,239.895 92.928 C 239.220 94.258,238.179 95.570,237.207 96.319 C 236.829 96.610,236.365 96.988,236.177 97.160 C 235.693 97.599,233.331 98.758,232.919 98.759 C 232.730 98.759,232.345 98.889,232.062 99.048 C 231.598 99.308,230.647 99.337,222.460 99.347 L 213.373 99.357 213.330 78.311 L 213.286 57.265 221.789 57.265 C 229.013 57.265,230.463 57.307,231.433 57.541 M297.643 57.445 C 298.067 57.535,298.800 57.680,299.271 57.766 C 299.743 57.852,300.360 58.044,300.643 58.193 C 300.926 58.342,301.321 58.464,301.522 58.464 C 301.723 58.465,301.983 58.581,302.100 58.723 C 302.218 58.864,302.424 58.980,302.558 58.980 C 302.693 58.980,303.225 59.250,303.741 59.580 C 304.257 59.910,304.716 60.180,304.761 60.180 C 304.806 60.180,304.988 60.315,305.166 60.480 C 306.619 61.835,307.071 62.282,307.647 62.941 C 308.009 63.355,308.383 63.907,308.478 64.166 C 308.572 64.426,308.713 64.638,308.790 64.638 C 308.868 64.638,308.981 64.864,309.042 65.140 C 309.102 65.417,309.263 65.735,309.398 65.847 C 309.533 65.959,309.644 66.201,309.644 66.385 C 309.644 66.568,309.739 66.886,309.854 67.092 C 310.601 68.424,310.918 73.203,310.407 75.439 C 309.663 78.696,307.864 81.421,305.060 83.542 L 304.162 84.222 304.514 84.717 C 304.708 84.989,304.927 85.212,305.000 85.212 C 305.268 85.212,307.129 86.942,307.587 87.616 C 307.728 87.825,307.969 88.160,308.121 88.361 C 309.653 90.385,310.514 93.333,310.621 96.914 L 310.691 99.271 307.788 99.271 L 304.885 99.271 304.761 97.286 C 304.641 95.373,304.360 94.193,303.743 93.013 C 303.595 92.730,303.474 92.435,303.473 92.357 C 303.467 91.512,299.565 87.959,298.637 87.954 C 298.515 87.954,298.188 87.836,297.912 87.692 C 296.668 87.043,288.466 86.644,287.849 87.203 C 287.546 87.477,287.527 87.841,287.527 93.383 L 287.527 99.271 284.698 99.271 L 281.869 99.271 281.869 78.268 L 281.869 57.265 289.370 57.273 C 293.495 57.277,297.218 57.354,297.643 57.445 M367.938 57.454 C 368.363 57.550,369.096 57.693,369.567 57.773 C 370.039 57.852,370.656 58.040,370.939 58.190 C 371.222 58.341,371.617 58.464,371.818 58.464 C 372.018 58.465,372.279 58.581,372.396 58.723 C 372.513 58.864,372.722 58.980,372.859 58.980 C 372.997 58.980,373.516 59.250,374.014 59.580 C 374.511 59.910,374.967 60.180,375.028 60.180 C 375.089 60.180,375.280 60.315,375.453 60.480 C 375.625 60.645,375.953 60.942,376.181 61.141 C 376.951 61.809,378.225 63.230,378.225 63.420 C 378.225 63.524,378.295 63.609,378.380 63.609 C 378.465 63.609,378.616 63.841,378.714 64.123 C 378.813 64.406,378.968 64.638,379.060 64.638 C 379.152 64.638,379.277 64.864,379.337 65.140 C 379.398 65.417,379.558 65.735,379.694 65.847 C 379.829 65.959,379.940 66.190,379.940 66.359 C 379.940 66.529,380.049 66.886,380.183 67.153 C 380.879 68.545,381.225 73.752,380.721 75.233 C 380.574 75.663,380.454 76.188,380.454 76.399 C 380.454 76.610,380.346 77.002,380.215 77.269 C 378.652 80.430,378.093 81.163,375.414 83.567 C 375.141 83.812,374.852 84.012,374.771 84.012 C 374.254 84.012,374.883 84.948,375.808 85.555 C 376.146 85.776,376.786 86.397,377.898 87.580 C 378.048 87.739,378.222 87.985,378.286 88.127 C 378.349 88.268,378.548 88.616,378.728 88.898 C 380.217 91.237,380.810 93.411,380.916 96.914 L 380.987 99.271 378.084 99.271 L 375.180 99.271 375.059 97.257 C 374.991 96.118,374.833 95.026,374.696 94.744 C 374.563 94.471,374.453 94.142,374.453 94.015 C 374.453 92.828,370.870 88.470,369.894 88.470 C 369.784 88.470,369.599 88.354,369.481 88.213 C 369.364 88.071,369.142 87.955,368.989 87.954 C 368.835 87.954,368.482 87.834,368.203 87.689 C 366.956 87.039,358.458 86.637,358.040 87.209 C 357.874 87.436,357.823 88.910,357.823 93.389 L 357.823 99.271 354.994 99.271 L 352.165 99.271 352.165 78.268 L 352.165 57.265 359.666 57.273 C 364.084 57.277,367.484 57.352,367.938 57.454 M219.160 62.862 C 218.707 63.052,218.867 74.336,219.327 74.658 C 219.877 75.044,226.446 75.038,228.731 74.651 C 232.493 74.012,234.671 71.055,233.957 67.553 C 233.559 65.600,232.011 63.611,230.699 63.365 C 230.378 63.305,230.084 63.161,230.045 63.046 C 229.975 62.834,219.643 62.659,219.160 62.862 M287.741 62.860 C 287.402 63.005,287.431 81.319,287.772 81.601 C 288.446 82.161,298.237 81.600,298.873 80.965 C 298.988 80.849,299.216 80.754,299.379 80.754 C 299.542 80.754,299.779 80.651,299.906 80.524 C 300.032 80.398,300.319 80.196,300.543 80.076 C 301.970 79.313,303.434 77.328,304.343 74.925 C 304.983 73.232,304.685 69.776,303.744 67.981 C 303.595 67.698,303.474 67.370,303.473 67.252 C 303.472 67.135,303.400 67.038,303.312 67.038 C 303.224 67.038,303.108 66.903,303.055 66.738 C 302.960 66.444,302.166 65.587,301.171 64.702 C 300.595 64.191,298.687 63.266,298.206 63.266 C 298.028 63.266,297.786 63.170,297.669 63.052 C 297.451 62.834,288.220 62.656,287.741 62.860 M358.037 62.860 C 357.732 62.991,357.723 81.272,358.028 81.577 C 358.353 81.902,366.029 81.860,367.311 81.526 C 367.854 81.384,368.439 81.269,368.611 81.269 C 368.784 81.269,369.021 81.153,369.138 81.012 C 369.256 80.870,369.481 80.754,369.639 80.754 C 370.943 80.754,373.572 77.687,374.635 74.925 C 374.994 73.993,375.053 70.416,374.721 69.750 C 374.574 69.456,374.453 69.110,374.453 68.983 C 374.453 68.856,374.299 68.464,374.111 68.112 C 373.922 67.760,373.768 67.394,373.768 67.298 C 373.767 67.025,372.396 65.476,371.445 64.673 C 370.878 64.195,368.930 63.266,368.494 63.266 C 368.320 63.266,368.082 63.170,367.964 63.052 C 367.746 62.834,358.516 62.656,358.037 62.860 M229.979 63.425 C 234.763 65.041,235.077 71.691,230.471 73.851 L 229.490 74.311 224.518 74.318 L 219.546 74.325 219.500 68.840 C 219.475 65.823,219.495 63.250,219.544 63.123 C 219.716 62.676,228.516 62.931,229.979 63.425 M297.385 63.349 C 302.033 64.504,305.376 69.386,304.314 73.468 C 304.216 73.845,304.067 74.462,303.984 74.839 C 303.291 77.972,300.251 80.594,296.614 81.197 C 294.850 81.490,288.293 81.538,288.121 81.260 C 287.983 81.036,288.017 63.273,288.156 63.048 C 288.337 62.755,296.004 63.005,297.385 63.349 M366.224 63.095 C 370.908 63.806,373.441 66.014,374.458 70.272 C 374.863 71.970,374.878 72.545,374.541 73.655 C 374.401 74.118,374.283 74.651,374.279 74.839 C 374.253 76.041,372.019 79.042,370.553 79.842 C 370.246 80.010,369.996 80.206,369.996 80.279 C 369.996 80.352,369.899 80.412,369.781 80.413 C 369.664 80.413,369.343 80.530,369.069 80.673 C 367.564 81.458,358.722 81.817,358.343 81.109 C 358.065 80.589,358.100 63.150,358.380 63.037 C 358.735 62.893,365.211 62.942,366.224 63.095 M219.246 80.074 C 218.968 80.243,218.946 80.751,218.946 86.754 L 218.946 93.251 219.327 93.518 C 220.305 94.203,230.560 93.727,231.326 92.961 C 231.438 92.848,231.653 92.756,231.804 92.756 C 232.692 92.756,234.679 90.450,235.085 88.949 C 235.369 87.898,235.474 85.555,235.247 85.329 C 235.145 85.227,235.062 84.994,235.062 84.811 C 235.062 83.307,232.045 80.411,230.478 80.411 C 230.302 80.411,230.062 80.315,229.944 80.197 C 229.660 79.913,219.698 79.798,219.246 80.074 M229.741 80.559 C 231.893 80.948,233.523 82.065,234.195 83.610 C 234.283 83.813,234.429 84.024,234.519 84.080 C 234.851 84.285,235.102 86.964,234.895 88.101 C 234.670 89.345,233.776 90.977,232.963 91.628 C 232.656 91.874,232.311 92.151,232.198 92.244 C 232.084 92.337,231.944 92.413,231.888 92.413 C 231.832 92.413,231.423 92.584,230.981 92.793 C 230.095 93.211,219.984 93.520,219.604 93.141 C 219.424 92.960,219.372 80.692,219.551 80.403 C 219.698 80.166,228.294 80.297,229.741 80.559 " stroke="none" fill="#7c7c7c" fill-rule="evenodd"></path></g></svg>