<svg id="svg" version="1.1" xmlns="http://www.w3.org/2000/svg" xmlns:xlink="http://www.w3.org/1999/xlink" width="400" height="110" viewBox="0, 0, 400,110"><g id="svgg"><path id="path0" d="M196.417 32.528 C 191.397 33.264,188.742 35.187,187.362 39.083 C 186.775 40.743,186.750 41.401,186.750 55.167 C 186.750 65.726,186.798 68.973,186.968 69.750 C 187.999 74.486,190.926 77.039,196.083 77.701 C 205.565 78.917,210.000 74.694,210.000 64.448 L 210.000 61.000 206.333 61.000 L 202.667 61.000 202.667 64.780 C 202.667 68.770,202.590 69.304,201.872 70.295 C 200.482 72.216,196.769 72.241,195.206 70.340 C 194.387 69.344,194.417 69.914,194.417 55.167 L 194.417 41.417 194.816 40.613 C 196.219 37.787,201.711 37.848,202.281 40.696 C 202.333 40.959,202.442 41.214,202.522 41.263 C 202.601 41.313,202.667 42.774,202.667 44.510 L 202.667 47.667 206.347 47.667 L 210.026 47.667 209.945 44.625 C 209.825 40.129,209.473 38.681,207.949 36.417 C 206.042 33.582,200.946 31.864,196.417 32.528 M290.083 32.528 C 287.708 32.877,286.430 33.279,284.833 34.180 C 282.548 35.470,280.982 38.308,280.514 42.009 C 280.269 43.941,280.266 66.434,280.510 68.250 C 281.258 73.813,284.242 77.070,289.083 77.608 C 289.450 77.649,290.237 77.751,290.833 77.835 C 292.897 78.126,296.485 77.522,298.447 76.552 C 302.917 74.343,303.667 72.033,303.667 60.470 L 303.667 52.667 298.246 52.667 L 292.826 52.667 292.871 55.708 L 292.917 58.750 294.625 58.797 L 296.333 58.845 296.333 63.849 C 296.333 69.619,296.229 70.121,294.843 71.018 C 292.410 72.595,289.191 71.641,288.312 69.083 C 287.971 68.090,287.975 42.471,288.316 41.250 C 289.224 38.005,294.043 37.413,295.792 40.331 L 296.333 41.235 296.333 44.451 L 296.333 47.667 300.013 47.667 L 303.692 47.667 303.615 44.458 C 303.495 39.476,302.893 37.554,300.796 35.456 C 298.483 33.144,294.085 31.942,290.083 32.528 M96.167 55.151 L 96.167 77.333 99.998 77.333 L 103.830 77.333 103.873 68.958 L 103.917 60.583 107.083 60.486 C 111.192 60.360,112.119 60.180,114.446 59.061 C 116.267 58.185,117.842 56.335,118.684 54.083 C 119.187 52.737,119.357 50.418,119.288 45.833 C 119.217 41.150,119.151 40.636,118.345 38.583 C 117.985 37.665,116.810 36.090,116.005 35.448 C 114.749 34.446,114.038 34.116,111.417 33.322 C 110.957 33.182,108.491 33.096,103.458 33.044 L 96.167 32.968 96.167 55.151 M130.333 55.167 L 130.333 77.333 134.167 77.333 L 138.000 77.333 138.000 68.434 C 138.000 60.474,138.028 59.525,138.264 59.434 C 138.726 59.257,142.055 59.340,142.835 59.549 C 145.863 60.359,146.333 61.819,146.333 70.407 C 146.333 73.291,146.403 75.823,146.488 76.034 C 146.574 76.244,146.688 76.623,146.742 76.875 L 146.840 77.333 150.736 77.333 L 154.632 77.333 154.316 76.318 C 154.036 75.420,153.999 74.725,153.990 70.277 C 153.972 60.809,153.185 58.287,149.674 56.433 C 148.689 55.913,148.683 55.796,149.617 55.320 C 151.271 54.478,152.834 52.449,153.344 50.481 C 154.216 47.117,153.858 40.091,152.690 37.670 C 151.909 36.050,149.175 33.833,147.958 33.833 C 147.809 33.833,147.645 33.766,147.594 33.684 C 147.499 33.530,146.976 33.434,144.833 33.175 C 144.146 33.092,140.602 33.018,136.958 33.012 L 130.333 33.000 130.333 55.167 M166.333 55.167 L 166.333 77.333 170.167 77.333 L 174.000 77.333 174.000 55.167 L 174.000 33.000 170.167 33.000 L 166.333 33.000 166.333 55.167 M222.333 55.167 L 222.333 77.333 226.167 77.333 L 230.000 77.333 230.000 55.167 L 230.000 33.000 226.167 33.000 L 222.333 33.000 222.333 55.167 M243.167 55.167 L 243.167 77.333 246.667 77.333 L 250.167 77.333 250.169 61.708 C 250.170 53.115,250.216 45.915,250.271 45.710 C 250.381 45.300,250.667 45.359,250.667 45.792 C 250.667 46.112,251.462 48.787,251.682 49.206 C 251.765 49.365,251.834 49.590,251.834 49.706 C 251.835 49.822,252.050 50.592,252.312 51.417 C 252.574 52.242,252.957 53.479,253.162 54.167 C 253.367 54.854,253.596 55.604,253.671 55.833 C 253.745 56.063,253.931 56.700,254.084 57.250 C 254.236 57.800,254.430 58.380,254.514 58.539 C 254.598 58.699,254.667 58.919,254.667 59.030 C 254.667 59.249,255.451 61.882,255.675 62.417 C 255.752 62.600,255.963 63.275,256.143 63.917 C 256.324 64.558,256.672 65.721,256.918 66.500 C 257.164 67.279,257.427 68.142,257.504 68.417 C 257.581 68.692,257.768 69.329,257.921 69.833 C 258.074 70.337,258.237 70.957,258.285 71.210 C 258.333 71.464,258.438 71.712,258.519 71.762 C 258.600 71.812,258.667 71.975,258.667 72.125 C 258.667 72.402,259.420 74.979,259.677 75.583 C 259.755 75.767,259.900 76.235,259.999 76.625 L 260.180 77.333 264.090 77.333 L 268.000 77.333 268.000 55.167 L 268.000 33.000 264.583 33.000 L 261.167 33.000 261.167 46.167 C 261.167 54.833,261.110 59.333,261.000 59.333 C 260.908 59.333,260.833 59.187,260.833 59.008 C 260.833 58.829,260.763 58.510,260.677 58.300 C 260.590 58.089,260.328 57.279,260.094 56.500 C 259.860 55.721,259.601 54.858,259.518 54.583 C 259.435 54.308,259.240 53.633,259.086 53.083 C 258.932 52.533,258.737 51.953,258.653 51.794 C 258.569 51.635,258.500 51.414,258.500 51.304 C 258.500 51.036,257.678 48.328,257.485 47.961 C 257.402 47.801,257.333 47.566,257.333 47.438 C 257.333 47.193,256.893 45.652,256.661 45.083 C 256.586 44.900,256.327 44.075,256.085 43.250 C 255.843 42.425,255.581 41.563,255.503 41.333 C 255.424 41.104,255.235 40.467,255.083 39.917 C 254.930 39.367,254.737 38.786,254.653 38.627 C 254.569 38.468,254.500 38.248,254.500 38.137 C 254.500 37.934,253.742 35.366,253.501 34.750 C 253.429 34.567,253.284 34.098,253.178 33.708 L 252.987 33.000 248.077 33.000 L 243.167 33.000 243.167 55.167 M109.766 39.484 C 110.142 39.655,110.595 40.009,110.772 40.272 C 111.589 41.480,111.583 41.437,111.583 46.750 C 111.583 50.837,111.537 51.874,111.339 52.266 C 110.404 54.120,109.902 54.333,106.469 54.333 L 103.833 54.333 103.833 46.750 L 103.833 39.167 106.458 39.170 C 108.657 39.173,109.194 39.224,109.766 39.484 M144.105 39.487 C 145.680 40.202,146.164 41.753,146.164 46.083 C 146.164 52.160,145.325 53.218,140.572 53.130 L 138.083 53.083 138.040 46.334 C 138.016 42.621,138.032 39.490,138.076 39.375 C 138.218 39.004,143.248 39.097,144.105 39.487 " stroke="none" fill="#060606" fill-rule="evenodd"></path><path id="path1" d="M0.000 55.000 L 0.000 110.000 200.000 110.000 L 400.000 110.000 400.000 55.000 L 400.000 0.000 200.000 0.000 L 0.000 0.000 0.000 55.000 M201.000 32.407 C 207.670 33.507,210.286 37.161,210.135 45.167 L 210.083 47.917 206.333 47.917 L 202.583 47.917 202.496 44.667 C 202.375 40.169,201.943 39.339,199.458 38.837 C 197.517 38.444,195.901 39.122,195.125 40.655 L 194.667 41.560 194.670 55.155 C 194.674 69.992,194.635 69.351,195.603 70.434 C 196.610 71.560,199.456 71.814,200.891 70.906 C 202.264 70.037,202.407 69.480,202.467 64.792 L 202.517 60.833 206.342 60.833 L 210.167 60.833 210.167 64.426 C 210.167 70.657,209.499 72.893,206.920 75.306 C 205.734 76.415,204.747 76.935,202.500 77.635 C 200.631 78.218,196.016 78.217,194.167 77.633 C 192.008 76.952,191.260 76.590,190.111 75.670 C 188.325 74.240,187.256 72.276,186.676 69.362 C 186.431 68.129,186.434 42.186,186.679 40.971 C 187.278 38.005,187.985 36.618,189.741 34.965 C 192.090 32.754,196.721 31.702,201.000 32.407 M294.667 32.407 C 301.340 33.508,303.928 37.005,303.802 44.750 L 303.750 47.917 300.046 47.962 L 296.341 48.006 296.258 47.628 C 296.211 47.420,296.153 45.894,296.129 44.236 L 296.083 41.223 295.582 40.403 C 294.020 37.846,289.561 38.289,288.604 41.098 C 288.245 42.153,288.192 67.997,288.548 69.017 C 289.619 72.093,294.225 72.452,295.808 69.583 C 296.043 69.156,296.091 68.353,296.136 64.048 L 296.189 59.012 294.469 58.964 L 292.750 58.917 292.750 55.750 L 292.750 52.583 298.292 52.539 L 303.833 52.496 303.833 60.623 C 303.833 70.143,303.740 70.888,302.235 73.457 C 298.417 79.972,285.040 79.622,281.565 72.917 C 280.214 70.310,280.167 69.708,280.167 55.183 C 280.167 39.483,280.288 38.545,282.700 35.657 C 284.909 33.011,289.979 31.635,294.667 32.407 M111.189 33.088 C 117.658 34.449,119.500 37.477,119.500 46.750 C 119.500 54.336,118.408 57.248,114.852 59.143 C 112.644 60.320,111.673 60.519,107.500 60.646 L 104.083 60.750 104.040 69.125 L 103.997 77.500 99.998 77.500 L 96.000 77.500 96.000 55.167 L 96.000 32.833 102.989 32.833 C 108.620 32.833,110.214 32.883,111.189 33.088 M146.132 33.095 C 147.976 33.470,149.839 34.168,150.333 34.668 C 150.379 34.714,150.697 34.961,151.041 35.217 C 151.729 35.730,152.784 37.214,153.198 38.250 C 153.876 39.948,153.917 40.325,153.917 44.917 C 153.917 50.215,153.762 51.004,152.294 53.207 C 151.706 54.089,150.118 55.500,149.714 55.500 C 149.121 55.500,149.219 55.959,149.880 56.281 C 151.463 57.051,153.077 59.054,153.536 60.817 C 153.958 62.442,154.026 63.373,154.155 69.333 C 154.268 74.534,154.344 75.876,154.556 76.417 C 155.008 77.564,155.228 77.500,150.854 77.500 C 147.865 77.500,146.835 77.448,146.717 77.292 C 146.207 76.613,146.116 75.614,146.004 69.417 C 145.891 63.230,145.836 62.631,145.287 61.574 C 144.543 60.143,142.777 59.500,139.593 59.500 L 138.333 59.500 138.333 68.503 L 138.333 77.506 134.292 77.461 L 130.250 77.417 130.208 55.125 L 130.165 32.833 137.506 32.833 C 143.519 32.833,145.080 32.881,146.132 33.095 M174.333 55.170 L 174.333 77.506 170.292 77.461 L 166.250 77.417 166.208 55.125 L 166.165 32.833 170.249 32.833 L 174.333 32.833 174.333 55.170 M230.333 55.170 L 230.333 77.506 226.292 77.461 L 222.250 77.417 222.208 55.125 L 222.165 32.833 226.249 32.833 L 230.333 32.833 230.333 55.170 M253.296 33.292 C 253.389 33.544,253.632 34.313,253.837 35.000 C 254.041 35.688,254.312 36.587,254.438 37.000 C 254.565 37.412,254.738 37.975,254.821 38.250 C 254.905 38.525,255.270 39.725,255.633 40.917 C 255.996 42.108,256.461 43.646,256.667 44.333 C 256.873 45.021,257.145 45.921,257.272 46.333 C 257.399 46.746,257.571 47.308,257.654 47.583 C 258.520 50.443,258.768 51.255,259.107 52.329 C 259.323 53.014,259.500 53.703,259.500 53.861 C 259.500 54.018,259.575 54.193,259.667 54.250 C 259.758 54.307,259.834 54.480,259.835 54.635 C 259.836 54.790,260.092 55.704,260.405 56.667 L 260.973 58.417 261.028 45.667 L 261.083 32.917 264.708 32.872 L 268.333 32.827 268.333 55.163 L 268.333 77.500 264.179 77.500 L 260.024 77.500 259.429 75.610 C 259.101 74.570,258.833 73.632,258.833 73.524 C 258.833 73.417,258.765 73.199,258.682 73.039 C 258.489 72.672,257.667 69.964,257.667 69.696 C 257.667 69.586,257.599 69.365,257.515 69.206 C 257.432 69.047,257.201 68.354,257.001 67.667 C 256.802 66.979,256.388 65.592,256.082 64.583 C 255.775 63.575,255.361 62.188,255.161 61.500 C 254.961 60.813,254.738 60.100,254.666 59.917 C 254.425 59.303,253.667 56.733,253.667 56.530 C 253.667 56.419,253.599 56.199,253.515 56.039 C 253.432 55.880,253.201 55.188,253.001 54.500 C 252.802 53.813,252.388 52.425,252.082 51.417 C 251.775 50.408,251.361 49.021,251.161 48.333 C 250.961 47.646,250.736 46.933,250.661 46.750 C 250.586 46.567,250.487 46.304,250.442 46.167 C 250.397 46.029,250.354 53.024,250.346 61.712 L 250.333 77.507 246.708 77.462 L 243.083 77.417 243.040 55.333 C 243.017 43.188,243.033 33.156,243.077 33.042 C 243.138 32.881,244.307 32.833,248.141 32.833 L 253.126 32.833 253.296 33.292 M104.111 39.444 C 104.050 39.506,104.000 42.843,104.000 46.861 L 104.000 54.167 106.375 54.159 C 111.189 54.145,111.324 53.942,111.330 46.744 C 111.335 39.584,111.174 39.347,106.319 39.337 C 105.166 39.335,104.172 39.383,104.111 39.444 M138.333 46.167 L 138.333 53.036 140.805 52.976 C 145.196 52.869,146.000 51.804,146.000 46.089 C 146.000 40.303,145.366 39.457,140.958 39.358 L 138.333 39.298 138.333 46.167 " stroke="none" fill="#fbfbfb" fill-rule="evenodd"></path><path id="path2" d="M197.631 32.290 C 198.115 32.324,198.865 32.323,199.297 32.289 C 199.730 32.255,199.333 32.227,198.417 32.228 C 197.500 32.228,197.146 32.256,197.631 32.290 M291.297 32.290 C 291.782 32.324,292.532 32.323,292.964 32.289 C 293.396 32.255,293.000 32.227,292.083 32.228 C 291.167 32.228,290.813 32.256,291.297 32.290 M194.167 32.674 C 193.984 32.798,194.052 32.813,194.417 32.732 C 195.029 32.595,195.163 32.499,194.736 32.503 C 194.560 32.504,194.304 32.581,194.167 32.674 M201.681 32.560 C 201.719 32.593,201.975 32.670,202.250 32.732 C 202.615 32.813,202.683 32.798,202.500 32.674 C 202.275 32.522,201.513 32.416,201.681 32.560 M287.917 32.667 C 287.707 32.757,287.676 32.810,287.833 32.810 C 287.971 32.810,288.233 32.745,288.417 32.667 C 288.627 32.576,288.658 32.523,288.500 32.523 C 288.362 32.523,288.100 32.588,287.917 32.667 M109.542 32.948 C 109.702 32.990,109.965 32.990,110.125 32.948 C 110.285 32.906,110.154 32.872,109.833 32.872 C 109.513 32.872,109.381 32.906,109.542 32.948 M130.248 55.083 C 130.248 67.367,130.267 72.367,130.292 66.195 C 130.316 60.024,130.316 49.974,130.292 43.862 C 130.267 37.750,130.248 42.800,130.248 55.083 M144.294 32.951 C 144.501 32.991,144.801 32.990,144.960 32.948 C 145.120 32.906,144.950 32.874,144.583 32.875 C 144.217 32.877,144.086 32.911,144.294 32.951 M166.248 55.083 C 166.248 67.367,166.267 72.367,166.292 66.195 C 166.316 60.024,166.316 49.974,166.292 43.862 C 166.267 37.750,166.248 42.800,166.248 55.083 M174.126 55.167 C 174.103 67.450,174.140 77.500,174.208 77.500 C 174.277 77.500,174.333 67.450,174.333 55.167 C 174.333 42.883,174.296 32.833,174.251 32.833 C 174.206 32.833,174.150 42.883,174.126 55.167 M222.248 55.083 C 222.248 67.367,222.267 72.367,222.292 66.195 C 222.316 60.024,222.316 49.974,222.292 43.862 C 222.267 37.750,222.248 42.800,222.248 55.083 M230.126 55.167 C 230.103 67.450,230.140 77.500,230.208 77.500 C 230.277 77.500,230.333 67.450,230.333 55.167 C 230.333 42.883,230.296 32.833,230.251 32.833 C 230.206 32.833,230.150 42.883,230.126 55.167 M268.126 55.167 C 268.103 67.450,268.140 77.500,268.208 77.500 C 268.277 77.500,268.333 67.450,268.333 55.167 C 268.333 42.883,268.296 32.833,268.251 32.833 C 268.206 32.833,268.150 42.883,268.126 55.167 M243.081 55.167 C 243.081 67.404,243.101 72.410,243.125 66.292 C 243.149 60.173,243.149 50.160,243.125 44.042 C 243.101 37.923,243.081 42.929,243.081 55.167 M261.000 45.833 C 260.954 52.938,260.935 58.781,260.958 58.819 C 261.139 59.120,261.164 57.188,261.126 45.818 L 261.083 32.917 261.000 45.833 M298.833 33.709 C 298.833 33.814,300.123 34.667,300.284 34.667 C 300.352 34.667,300.260 34.566,300.079 34.442 C 299.284 33.899,298.833 33.634,298.833 33.709 M190.384 34.429 L 189.917 34.858 190.458 34.481 C 190.756 34.274,191.000 34.081,191.000 34.052 C 191.000 33.920,190.816 34.033,190.384 34.429 M205.667 34.046 C 205.667 34.078,205.910 34.282,206.208 34.501 C 206.544 34.746,206.660 34.786,206.514 34.606 C 206.292 34.333,205.667 33.920,205.667 34.046 M115.167 34.615 C 115.396 34.779,116.033 35.323,116.583 35.826 L 117.583 36.739 116.707 35.822 C 116.225 35.317,115.588 34.772,115.291 34.611 C 114.770 34.329,114.765 34.330,115.167 34.615 M283.106 35.294 C 282.672 35.730,282.166 36.349,281.981 36.669 C 281.750 37.068,281.738 37.120,281.945 36.833 C 282.110 36.604,282.652 35.985,283.148 35.458 C 284.238 34.301,284.209 34.184,283.106 35.294 M300.500 34.885 C 300.500 34.914,300.744 35.158,301.042 35.427 L 301.583 35.917 301.094 35.375 C 300.638 34.870,300.500 34.757,300.500 34.885 M151.000 35.219 C 151.000 35.248,151.244 35.491,151.542 35.760 L 152.083 36.250 151.594 35.708 C 151.138 35.203,151.000 35.090,151.000 35.219 M301.833 36.458 C 302.051 36.756,302.255 37.000,302.287 37.000 C 302.414 37.000,302.001 36.375,301.727 36.153 C 301.547 36.007,301.587 36.123,301.833 36.458 M188.209 36.708 C 187.973 37.006,187.642 37.667,187.728 37.667 C 187.768 37.667,187.955 37.404,188.145 37.083 C 188.489 36.500,188.520 36.315,188.209 36.708 M290.750 38.841 C 290.518 38.946,290.619 38.961,291.083 38.891 C 291.450 38.835,291.781 38.762,291.819 38.728 C 291.963 38.602,291.070 38.696,290.750 38.841 M303.190 39.167 C 303.190 39.304,303.255 39.567,303.333 39.750 C 303.424 39.960,303.477 39.991,303.477 39.833 C 303.477 39.696,303.412 39.433,303.333 39.250 C 303.243 39.040,303.190 39.009,303.190 39.167 M104.000 39.292 C 104.001 39.360,105.161 39.417,106.579 39.417 C 107.997 39.417,109.028 39.366,108.870 39.303 C 108.475 39.147,104.000 39.137,104.000 39.292 M138.667 39.270 C 139.549 39.382,143.474 39.411,143.203 39.303 C 143.045 39.241,141.867 39.196,140.583 39.203 C 139.300 39.211,138.438 39.240,138.667 39.270 M186.929 39.595 C 186.867 39.839,186.849 40.071,186.889 40.111 C 186.928 40.150,187.010 39.982,187.071 39.738 C 187.133 39.494,187.151 39.262,187.111 39.223 C 187.072 39.183,186.990 39.351,186.929 39.595 M195.635 39.625 C 195.161 40.133,194.766 40.821,194.881 40.936 C 194.922 40.977,195.050 40.782,195.166 40.502 C 195.282 40.222,195.598 39.807,195.868 39.580 C 196.138 39.353,196.292 39.167,196.211 39.167 C 196.129 39.167,195.870 39.373,195.635 39.625 M138.247 46.333 L 138.250 53.083 140.348 53.130 C 141.501 53.155,142.603 53.118,142.797 53.046 C 142.991 52.975,142.066 52.942,140.743 52.974 L 138.337 53.031 138.291 46.307 L 138.244 39.583 138.247 46.333 M153.608 40.000 C 153.739 40.719,153.834 40.854,153.831 40.319 C 153.829 40.098,153.754 39.804,153.664 39.667 C 153.549 39.491,153.532 39.590,153.608 40.000 M295.465 40.232 C 295.713 40.635,295.946 40.937,295.983 40.902 C 296.056 40.833,295.205 39.500,295.087 39.500 C 295.046 39.500,295.216 39.830,295.465 40.232 M303.617 41.250 C 303.670 41.708,303.741 42.115,303.773 42.153 C 303.898 42.297,303.803 41.068,303.665 40.750 C 303.573 40.536,303.555 40.714,303.617 41.250 M119.288 41.917 C 119.338 42.558,119.406 43.115,119.439 43.153 C 119.551 43.280,119.462 41.757,119.329 41.250 C 119.249 40.947,119.233 41.209,119.288 41.917 M186.605 41.348 C 186.547 41.638,186.510 42.184,186.522 42.563 C 186.538 43.070,186.579 42.946,186.678 42.087 C 186.821 40.858,186.782 40.465,186.605 41.348 M153.883 42.000 C 153.883 42.504,153.915 42.710,153.953 42.458 C 153.991 42.206,153.991 41.794,153.953 41.542 C 153.915 41.290,153.883 41.496,153.883 42.000 M210.038 44.714 L 210.000 47.846 206.266 47.798 C 204.212 47.771,202.566 47.806,202.609 47.875 C 202.755 48.111,210.001 48.024,210.093 47.786 C 210.138 47.668,210.152 46.225,210.125 44.578 L 210.075 41.583 210.038 44.714 M296.236 44.750 C 296.236 46.400,296.261 47.052,296.291 46.200 C 296.321 45.347,296.321 43.997,296.291 43.200 C 296.260 42.402,296.235 43.100,296.236 44.750 M194.579 55.083 C 194.579 62.325,194.600 65.263,194.625 61.613 C 194.650 57.962,194.650 52.037,194.625 48.446 C 194.600 44.855,194.579 47.842,194.579 55.083 M111.407 46.750 C 111.407 49.317,111.430 50.343,111.458 49.032 C 111.486 47.720,111.486 45.620,111.458 44.365 C 111.430 43.110,111.407 44.183,111.407 46.750 M280.246 55.167 C 280.246 62.362,280.267 65.306,280.292 61.708 C 280.317 58.110,280.317 52.223,280.292 48.625 C 280.267 45.027,280.246 47.971,280.246 55.167 M145.875 42.917 C 145.877 43.283,145.911 43.414,145.951 43.206 C 145.991 42.999,145.990 42.699,145.948 42.540 C 145.906 42.380,145.874 42.550,145.875 42.917 M288.246 55.167 C 288.246 62.087,288.266 64.919,288.292 61.458 C 288.317 57.998,288.317 52.335,288.292 48.875 C 288.266 45.415,288.246 48.246,288.246 55.167 M153.881 47.917 C 153.882 48.375,153.915 48.543,153.953 48.289 C 153.991 48.036,153.990 47.661,153.951 47.456 C 153.911 47.251,153.880 47.458,153.881 47.917 M300.000 47.833 L 296.250 47.926 299.948 47.963 C 302.275 47.986,303.685 47.938,303.750 47.833 C 303.807 47.742,303.830 47.683,303.802 47.704 C 303.773 47.724,302.063 47.782,300.000 47.833 M145.858 49.083 C 145.842 49.358,145.790 49.771,145.743 50.000 L 145.657 50.417 145.837 50.006 C 145.935 49.780,145.987 49.367,145.951 49.089 L 145.887 48.583 145.858 49.083 M153.686 49.528 C 153.675 49.681,153.624 49.943,153.571 50.111 C 153.480 50.401,153.485 50.401,153.665 50.120 C 153.770 49.956,153.822 49.694,153.781 49.536 C 153.713 49.278,153.703 49.278,153.686 49.528 M119.379 51.167 C 119.379 51.579,119.411 51.748,119.451 51.542 C 119.491 51.335,119.491 50.998,119.451 50.792 C 119.411 50.585,119.379 50.754,119.379 51.167 M292.741 52.714 C 292.696 52.832,292.679 54.275,292.704 55.922 L 292.750 58.917 294.456 58.964 L 296.161 59.012 296.210 63.631 L 296.258 68.250 296.254 63.583 L 296.250 58.917 294.535 58.869 L 292.819 58.822 292.868 55.661 C 292.916 52.551,292.904 52.287,292.741 52.714 M151.406 54.208 L 150.917 54.750 151.458 54.260 C 151.756 53.991,152.000 53.748,152.000 53.719 C 152.000 53.590,151.862 53.703,151.406 54.208 M105.208 54.290 C 105.827 54.322,106.840 54.322,107.458 54.290 C 108.077 54.258,107.571 54.232,106.333 54.232 C 105.096 54.232,104.590 54.258,105.208 54.290 M149.667 56.241 C 149.667 56.287,149.892 56.441,150.167 56.583 C 150.442 56.726,150.667 56.804,150.667 56.759 C 150.667 56.713,150.442 56.559,150.167 56.417 C 149.892 56.274,149.667 56.196,149.667 56.241 M116.494 57.792 L 115.583 58.750 116.542 57.839 C 117.069 57.338,117.500 56.907,117.500 56.881 C 117.500 56.757,117.341 56.901,116.494 57.792 M150.850 57.042 C 150.889 57.065,151.258 57.383,151.669 57.750 L 152.417 58.417 151.758 57.708 C 151.395 57.319,151.027 57.000,150.938 57.000 C 150.850 57.000,150.810 57.019,150.850 57.042 M141.542 59.615 C 141.702 59.657,141.965 59.657,142.125 59.615 C 142.285 59.573,142.154 59.539,141.833 59.539 C 141.512 59.539,141.381 59.573,141.542 59.615 M138.128 68.667 C 138.103 73.525,138.140 77.500,138.208 77.500 C 138.277 77.500,138.333 73.525,138.333 68.667 C 138.333 63.808,138.297 59.833,138.253 59.833 C 138.209 59.833,138.152 63.808,138.128 68.667 M111.917 60.167 C 111.707 60.257,111.676 60.310,111.833 60.310 C 111.971 60.310,112.233 60.245,112.417 60.167 C 112.627 60.076,112.658 60.023,112.500 60.023 C 112.362 60.023,112.100 60.088,111.917 60.167 M110.000 60.500 C 109.435 60.619,109.432 60.623,109.917 60.628 C 110.192 60.631,110.604 60.573,110.833 60.500 C 111.380 60.325,110.831 60.325,110.000 60.500 M210.072 64.667 C 210.072 66.821,210.095 67.702,210.124 66.625 C 210.153 65.548,210.153 63.785,210.124 62.708 C 210.095 61.631,210.072 62.512,210.072 64.667 M153.602 61.583 C 153.739 62.196,153.834 62.329,153.831 61.903 C 153.829 61.727,153.752 61.471,153.659 61.333 C 153.536 61.151,153.520 61.218,153.602 61.583 M154.074 69.500 C 154.074 72.387,154.097 73.569,154.125 72.125 C 154.152 70.681,154.152 68.319,154.125 66.875 C 154.097 65.431,154.074 66.612,154.074 69.500 M146.068 68.667 C 146.068 70.179,146.093 70.798,146.124 70.042 C 146.155 69.285,146.155 68.048,146.124 67.292 C 146.093 66.535,146.068 67.154,146.068 68.667 M186.517 67.931 C 186.526 68.381,186.593 68.938,186.665 69.167 C 186.742 69.409,186.760 69.095,186.709 68.417 C 186.604 67.043,186.493 66.761,186.517 67.931 M303.705 68.667 C 303.705 68.987,303.740 69.119,303.782 68.958 C 303.823 68.798,303.823 68.535,303.782 68.375 C 303.740 68.215,303.705 68.346,303.705 68.667 M201.971 69.674 C 201.817 70.037,201.721 70.333,201.758 70.333 C 201.880 70.333,202.354 69.313,202.302 69.163 C 202.273 69.082,202.124 69.312,201.971 69.674 M288.818 69.972 C 288.908 70.140,289.113 70.384,289.273 70.514 C 289.453 70.660,289.413 70.544,289.167 70.208 C 288.729 69.610,288.565 69.499,288.818 69.972 M186.857 70.333 C 186.857 70.471,186.921 70.733,187.000 70.917 C 187.090 71.127,187.143 71.158,187.143 71.000 C 187.143 70.862,187.079 70.600,187.000 70.417 C 186.910 70.207,186.857 70.176,186.857 70.333 M280.929 71.500 C 280.990 71.729,281.110 72.029,281.195 72.167 C 281.302 72.340,281.315 72.290,281.238 72.000 C 281.176 71.771,281.057 71.471,280.972 71.333 C 280.865 71.160,280.851 71.210,280.929 71.500 M197.781 71.562 C 198.183 71.647,198.809 71.645,199.277 71.556 C 200.015 71.418,199.956 71.405,198.587 71.411 C 197.309 71.416,197.192 71.438,197.781 71.562 M291.960 71.618 C 292.168 71.658,292.468 71.656,292.627 71.615 C 292.786 71.573,292.617 71.540,292.250 71.542 C 291.883 71.544,291.753 71.578,291.960 71.618 M146.056 73.667 C 146.056 74.354,146.085 74.635,146.121 74.292 C 146.157 73.948,146.157 73.385,146.121 73.042 C 146.085 72.698,146.056 72.979,146.056 73.667 M187.667 72.578 C 187.667 72.752,188.336 73.833,188.444 73.833 C 188.490 73.833,188.358 73.552,188.151 73.208 C 187.691 72.443,187.667 72.411,187.667 72.578 M207.833 74.208 C 207.587 74.544,207.547 74.660,207.727 74.514 C 208.001 74.292,208.414 73.667,208.287 73.667 C 208.255 73.667,208.051 73.910,207.833 74.208 M283.291 75.142 C 284.204 76.032,285.333 76.834,285.333 76.592 C 285.333 76.546,285.113 76.395,284.844 76.256 C 284.575 76.117,283.882 75.581,283.303 75.065 L 282.250 74.126 283.291 75.142 M298.000 76.917 C 297.771 77.048,297.658 77.155,297.750 77.155 C 297.842 77.155,298.104 77.048,298.333 76.917 C 298.563 76.786,298.675 76.678,298.583 76.678 C 298.492 76.678,298.229 76.786,298.000 76.917 M194.333 77.664 C 194.471 77.754,194.765 77.829,194.986 77.831 C 195.521 77.834,195.385 77.739,194.667 77.608 C 194.256 77.532,194.157 77.549,194.333 77.664 M201.750 77.667 C 201.289 77.784,201.282 77.795,201.667 77.811 C 201.896 77.821,202.196 77.756,202.333 77.667 C 202.617 77.483,202.470 77.483,201.750 77.667 M294.042 77.948 C 294.202 77.990,294.465 77.990,294.625 77.948 C 294.785 77.906,294.654 77.872,294.333 77.872 C 294.012 77.872,293.881 77.906,294.042 77.948 M197.792 78.121 C 198.090 78.158,198.577 78.158,198.875 78.121 C 199.173 78.084,198.929 78.053,198.333 78.053 C 197.737 78.053,197.494 78.084,197.792 78.121 M291.455 78.120 C 291.750 78.157,292.275 78.158,292.621 78.122 C 292.967 78.086,292.725 78.055,292.083 78.055 C 291.442 78.054,291.159 78.083,291.455 78.120 " stroke="none" fill="#9b9b9b" fill-rule="evenodd"></path><path id="path3" d="M103.870 46.782 C 103.850 50.833,103.890 54.182,103.958 54.224 C 104.072 54.295,104.070 48.577,103.953 42.000 C 103.928 40.579,103.891 42.731,103.870 46.782 M303.712 42.833 C 303.712 43.246,303.745 43.415,303.784 43.208 C 303.824 43.002,303.824 42.665,303.784 42.458 C 303.745 42.252,303.712 42.421,303.712 42.833 M202.568 45.000 C 202.568 46.512,202.593 47.131,202.624 46.375 C 202.655 45.619,202.655 44.381,202.624 43.625 C 202.593 42.869,202.568 43.487,202.568 45.000 M153.899 45.000 C 153.899 46.237,153.925 46.744,153.957 46.125 C 153.989 45.506,153.989 44.494,153.957 43.875 C 153.925 43.256,153.899 43.762,153.899 45.000 M186.579 55.167 C 186.579 61.813,186.600 64.531,186.625 61.208 C 186.650 57.885,186.650 52.448,186.625 49.125 C 186.600 45.802,186.579 48.521,186.579 55.167 M295.625 52.625 C 297.115 52.652,299.552 52.652,301.042 52.625 C 302.531 52.597,301.313 52.574,298.333 52.574 C 295.354 52.574,294.135 52.597,295.625 52.625 M103.911 69.083 C 103.911 73.667,103.932 75.518,103.958 73.197 C 103.984 70.876,103.984 67.126,103.958 64.863 C 103.932 62.601,103.911 64.500,103.911 69.083 M202.571 64.417 C 202.571 66.342,202.595 67.106,202.624 66.116 C 202.654 65.126,202.654 63.551,202.624 62.616 C 202.595 61.681,202.570 62.492,202.571 64.417 M303.712 67.500 C 303.712 67.912,303.745 68.081,303.784 67.875 C 303.824 67.669,303.824 67.331,303.784 67.125 C 303.745 66.919,303.712 67.087,303.712 67.500 " stroke="none" fill="#7c7c7c" fill-rule="evenodd"></path><path id="path4" d="M195.833 32.500 L 195.083 32.617 195.750 32.622 C 196.117 32.625,196.642 32.570,196.917 32.500 C 197.583 32.330,196.925 32.330,195.833 32.500 M200.627 32.618 C 200.834 32.658,201.134 32.656,201.294 32.615 C 201.453 32.573,201.283 32.540,200.917 32.542 C 200.550 32.544,200.420 32.578,200.627 32.618 M289.125 32.618 C 289.331 32.657,289.669 32.657,289.875 32.618 C 290.081 32.578,289.912 32.545,289.500 32.545 C 289.087 32.545,288.919 32.578,289.125 32.618 M294.294 32.618 C 294.501 32.658,294.801 32.656,294.960 32.615 C 295.120 32.573,294.950 32.540,294.583 32.542 C 294.217 32.544,294.086 32.578,294.294 32.618 M96.077 33.042 C 96.033 33.156,96.017 43.188,96.040 55.333 L 96.083 77.417 99.833 77.421 L 103.583 77.426 99.875 77.377 L 96.167 77.327 96.167 55.165 L 96.167 33.004 102.625 32.958 L 109.083 32.913 102.620 32.873 C 97.573 32.842,96.139 32.879,96.077 33.042 M133.625 32.958 C 135.481 32.985,138.519 32.985,140.375 32.958 C 142.231 32.931,140.712 32.909,137.000 32.909 C 133.287 32.909,131.769 32.931,133.625 32.958 M170.208 32.957 L 173.999 33.006 174.042 55.170 L 174.085 77.333 174.084 55.125 L 174.083 32.917 170.250 32.912 L 166.417 32.907 170.208 32.957 M226.208 32.957 L 229.999 33.006 230.042 55.170 L 230.085 77.333 230.084 55.125 L 230.083 32.917 226.250 32.912 L 222.417 32.907 226.208 32.957 M247.992 32.957 C 251.650 32.993,252.937 33.058,253.046 33.211 C 253.153 33.361,253.174 33.349,253.124 33.167 C 253.065 32.952,252.358 32.916,248.070 32.913 L 243.083 32.909 247.992 32.957 M264.541 32.956 L 267.999 33.007 268.042 55.170 L 268.085 77.333 268.084 55.125 L 268.083 32.917 264.583 32.911 L 261.083 32.906 264.541 32.956 M109.375 33.115 C 109.535 33.157,109.798 33.157,109.958 33.115 C 110.119 33.073,109.987 33.039,109.667 33.039 C 109.346 33.039,109.215 33.073,109.375 33.115 M144.208 33.115 C 144.369 33.157,144.631 33.157,144.792 33.115 C 144.952 33.073,144.821 33.039,144.500 33.039 C 144.179 33.039,144.048 33.073,144.208 33.115 M146.167 33.326 C 146.304 33.419,146.560 33.496,146.736 33.497 C 147.163 33.501,147.029 33.405,146.417 33.268 C 146.052 33.187,145.984 33.202,146.167 33.326 M190.073 34.875 L 189.583 35.417 190.125 34.927 C 190.630 34.471,190.743 34.333,190.615 34.333 C 190.586 34.333,190.342 34.577,190.073 34.875 M283.244 35.375 L 282.417 36.250 283.330 35.417 C 283.832 34.958,284.276 34.565,284.316 34.542 C 284.356 34.519,284.317 34.500,284.230 34.500 C 284.142 34.500,283.699 34.894,283.244 35.375 M300.333 34.885 C 300.333 34.914,300.577 35.158,300.875 35.427 L 301.417 35.917 300.927 35.375 C 300.471 34.870,300.333 34.757,300.333 34.885 M151.348 35.770 C 151.569 36.056,151.784 36.260,151.824 36.223 C 151.865 36.186,151.684 35.953,151.422 35.703 L 150.945 35.250 151.348 35.770 M188.887 36.042 C 188.702 36.248,188.490 36.529,188.417 36.667 C 188.276 36.932,188.315 36.896,188.990 36.125 C 189.211 35.873,189.354 35.667,189.308 35.667 C 189.262 35.667,189.073 35.835,188.887 36.042 M197.212 38.635 C 197.099 38.707,197.512 38.739,198.128 38.707 C 199.736 38.623,199.937 38.541,198.583 38.522 C 197.942 38.513,197.324 38.564,197.212 38.635 M290.891 38.628 C 290.785 38.695,291.397 38.750,292.250 38.750 C 293.103 38.750,293.715 38.695,293.609 38.628 C 293.503 38.560,292.892 38.505,292.250 38.505 C 291.608 38.505,290.997 38.560,290.891 38.628 M138.111 39.278 C 137.957 39.432,137.971 52.962,138.125 53.058 C 138.194 53.100,138.250 49.992,138.250 46.151 C 138.250 42.310,138.244 39.167,138.236 39.167 C 138.228 39.167,138.172 39.217,138.111 39.278 M186.937 40.090 C 186.880 40.239,186.841 40.523,186.850 40.722 C 186.861 40.950,186.918 40.869,187.004 40.501 C 187.150 39.882,187.110 39.639,186.937 40.090 M118.857 40.167 C 118.857 40.304,118.921 40.567,119.000 40.750 C 119.090 40.960,119.143 40.991,119.143 40.833 C 119.143 40.696,119.079 40.433,119.000 40.250 C 118.910 40.040,118.857 40.009,118.857 40.167 M280.433 41.600 C 280.371 42.210,280.354 42.743,280.395 42.784 C 280.437 42.826,280.524 42.363,280.589 41.756 C 280.654 41.148,280.671 40.616,280.627 40.571 C 280.583 40.527,280.496 40.990,280.433 41.600 M153.718 41.917 C 153.719 42.467,153.750 42.672,153.787 42.372 C 153.825 42.072,153.824 41.622,153.786 41.372 C 153.748 41.122,153.717 41.367,153.718 41.917 M202.487 41.792 C 202.566 42.367,202.578 42.379,202.633 41.938 C 202.666 41.675,202.627 41.394,202.547 41.313 C 202.463 41.229,202.437 41.434,202.487 41.792 M194.413 55.167 C 194.413 62.271,194.433 65.177,194.458 61.625 C 194.483 58.073,194.483 52.260,194.458 48.708 C 194.433 45.156,194.413 48.063,194.413 55.167 M288.079 55.083 C 288.079 62.050,288.100 64.876,288.125 61.363 C 288.150 57.850,288.150 52.150,288.125 48.696 C 288.100 45.242,288.079 48.117,288.079 55.083 M111.572 46.750 C 111.572 49.042,111.596 50.002,111.624 48.885 C 111.653 47.767,111.653 45.892,111.625 44.718 C 111.596 43.544,111.572 44.458,111.572 46.750 M146.067 46.083 C 146.068 47.550,146.093 48.128,146.124 47.367 C 146.155 46.606,146.155 45.406,146.124 44.700 C 146.093 43.994,146.067 44.617,146.067 46.083 M303.703 45.538 L 303.667 47.660 299.958 47.708 L 296.250 47.757 299.964 47.795 C 302.896 47.825,303.695 47.787,303.761 47.615 C 303.807 47.495,303.821 46.502,303.791 45.407 L 303.738 43.417 303.703 45.538 M119.403 46.833 C 119.403 48.621,119.428 49.352,119.458 48.458 C 119.488 47.565,119.488 46.102,119.458 45.208 C 119.428 44.315,119.403 45.046,119.403 46.833 M250.207 61.538 L 250.167 77.327 246.708 77.375 L 243.250 77.424 246.714 77.462 C 249.360 77.491,250.196 77.451,250.257 77.292 C 250.300 77.177,250.316 70.033,250.292 61.417 L 250.248 45.750 250.207 61.538 M153.718 48.083 C 153.719 48.633,153.750 48.838,153.787 48.539 C 153.825 48.239,153.824 47.789,153.786 47.539 C 153.748 47.288,153.717 47.533,153.718 48.083 M204.366 47.791 C 205.346 47.820,206.996 47.820,208.032 47.791 C 209.069 47.762,208.267 47.738,206.250 47.738 C 204.233 47.738,203.385 47.762,204.366 47.791 M303.743 59.750 C 303.743 63.692,303.765 65.280,303.792 63.280 C 303.818 61.280,303.818 58.055,303.791 56.114 C 303.765 54.172,303.743 55.808,303.743 59.750 M110.250 53.604 C 109.950 53.859,109.889 53.961,110.097 53.857 C 110.403 53.705,110.976 53.157,110.812 53.173 C 110.778 53.176,110.525 53.370,110.250 53.604 M116.500 57.583 C 116.095 57.996,115.801 58.333,115.847 58.333 C 115.893 58.333,116.262 57.996,116.667 57.583 C 117.072 57.171,117.365 56.833,117.319 56.833 C 117.274 56.833,116.905 57.171,116.500 57.583 M151.000 57.219 C 151.000 57.248,151.244 57.491,151.542 57.760 L 152.083 58.250 151.594 57.708 C 151.138 57.203,151.000 57.090,151.000 57.219 M139.292 59.457 C 139.865 59.489,140.802 59.489,141.375 59.457 C 141.948 59.424,141.479 59.398,140.333 59.398 C 139.188 59.398,138.719 59.424,139.292 59.457 M138.078 68.417 C 138.078 73.367,138.099 75.368,138.125 72.863 C 138.151 70.359,138.151 66.309,138.125 63.863 C 138.099 61.418,138.078 63.467,138.078 68.417 M103.942 60.625 C 103.899 60.694,104.663 60.730,105.640 60.706 C 108.918 60.625,109.270 60.563,106.635 60.532 C 105.196 60.514,103.985 60.556,103.942 60.625 M153.336 61.097 C 153.337 61.273,153.415 61.529,153.508 61.667 C 153.631 61.849,153.647 61.782,153.565 61.417 C 153.428 60.804,153.332 60.671,153.336 61.097 M204.458 60.958 C 205.490 60.987,207.177 60.987,208.208 60.958 C 209.240 60.929,208.396 60.905,206.333 60.905 C 204.271 60.905,203.427 60.929,204.458 60.958 M153.709 62.917 C 153.711 63.283,153.745 63.414,153.785 63.206 C 153.824 62.999,153.823 62.699,153.781 62.540 C 153.739 62.380,153.707 62.550,153.709 62.917 M255.664 62.826 C 255.752 63.130,255.869 63.425,255.925 63.481 C 256.082 63.637,255.810 62.605,255.648 62.428 C 255.570 62.342,255.577 62.521,255.664 62.826 M153.875 64.250 C 153.877 64.617,153.911 64.747,153.951 64.540 C 153.991 64.332,153.990 64.032,153.948 63.873 C 153.906 63.714,153.874 63.883,153.875 64.250 M146.241 69.667 C 146.241 72.462,146.263 73.606,146.291 72.208 C 146.319 70.810,146.319 68.523,146.291 67.125 C 146.263 65.727,146.241 66.871,146.241 69.667 M202.539 68.333 C 202.539 68.654,202.573 68.785,202.615 68.625 C 202.657 68.465,202.657 68.202,202.615 68.042 C 202.573 67.881,202.539 68.012,202.539 68.333 M194.503 68.764 C 194.504 68.940,194.581 69.196,194.674 69.333 C 194.798 69.516,194.813 69.448,194.732 69.083 C 194.595 68.471,194.499 68.337,194.503 68.764 M280.542 69.083 C 280.544 69.450,280.578 69.580,280.618 69.373 C 280.658 69.166,280.656 68.866,280.615 68.706 C 280.573 68.547,280.540 68.717,280.542 69.083 M201.406 70.708 L 200.917 71.250 201.458 70.760 C 201.756 70.491,202.000 70.248,202.000 70.219 C 202.000 70.090,201.862 70.203,201.406 70.708 M198.294 71.785 C 198.501 71.824,198.801 71.823,198.960 71.781 C 199.120 71.739,198.950 71.707,198.583 71.709 C 198.217 71.711,198.086 71.745,198.294 71.785 M291.960 71.785 C 292.168 71.824,292.468 71.823,292.627 71.781 C 292.786 71.739,292.617 71.707,292.250 71.709 C 291.883 71.711,291.753 71.745,291.960 71.785 M189.417 74.833 C 189.868 75.292,190.275 75.667,190.321 75.667 C 190.367 75.667,190.035 75.292,189.583 74.833 C 189.132 74.375,188.725 74.000,188.679 74.000 C 188.633 74.000,188.965 74.375,189.417 74.833 M283.250 75.000 C 283.608 75.367,283.938 75.667,283.984 75.667 C 284.030 75.667,283.775 75.367,283.417 75.000 C 283.059 74.633,282.728 74.333,282.682 74.333 C 282.637 74.333,282.892 74.633,283.250 75.000 M132.292 77.458 C 133.323 77.487,135.010 77.487,136.042 77.458 C 137.073 77.429,136.229 77.405,134.167 77.405 C 132.104 77.405,131.260 77.429,132.292 77.458 M148.884 77.458 C 149.967 77.487,151.692 77.487,152.718 77.458 C 153.744 77.428,152.858 77.405,150.750 77.405 C 148.642 77.405,147.802 77.429,148.884 77.458 M168.292 77.458 C 169.323 77.487,171.010 77.487,172.042 77.458 C 173.073 77.429,172.229 77.405,170.167 77.405 C 168.104 77.405,167.260 77.429,168.292 77.458 M193.847 77.393 C 193.885 77.426,194.142 77.503,194.417 77.565 C 194.782 77.647,194.849 77.631,194.667 77.508 C 194.442 77.355,193.680 77.249,193.847 77.393 M202.000 77.508 C 201.817 77.631,201.885 77.647,202.250 77.565 C 202.863 77.428,202.996 77.332,202.569 77.336 C 202.394 77.337,202.137 77.415,202.000 77.508 M224.292 77.458 C 225.323 77.487,227.010 77.487,228.042 77.458 C 229.073 77.429,228.229 77.405,226.167 77.405 C 224.104 77.405,223.260 77.429,224.292 77.458 M262.218 77.458 C 263.300 77.487,265.025 77.487,266.051 77.458 C 267.077 77.428,266.192 77.405,264.083 77.405 C 261.975 77.405,261.135 77.429,262.218 77.458 M196.250 77.843 C 196.617 77.919,197.142 77.976,197.417 77.970 C 197.792 77.961,197.729 77.925,197.167 77.825 C 196.161 77.646,195.373 77.661,196.250 77.843 M199.417 77.833 C 198.850 77.935,198.825 77.955,199.250 77.967 C 199.525 77.974,200.050 77.919,200.417 77.843 C 201.289 77.662,200.417 77.654,199.417 77.833 M289.542 77.782 C 289.702 77.823,289.965 77.823,290.125 77.782 C 290.285 77.740,290.154 77.705,289.833 77.705 C 289.512 77.705,289.381 77.740,289.542 77.782 M294.042 77.782 C 294.202 77.823,294.465 77.823,294.625 77.782 C 294.785 77.740,294.654 77.705,294.333 77.705 C 294.012 77.705,293.881 77.740,294.042 77.782 M290.708 77.948 C 290.869 77.990,291.131 77.990,291.292 77.948 C 291.452 77.906,291.321 77.872,291.000 77.872 C 290.679 77.872,290.548 77.906,290.708 77.948 M292.794 77.951 C 293.001 77.991,293.301 77.990,293.460 77.948 C 293.620 77.906,293.450 77.874,293.083 77.875 C 292.717 77.877,292.586 77.911,292.794 77.951 " stroke="none" fill="#747474" fill-rule="evenodd"></path></g></svg>