<svg id="svg" version="1.1" xmlns="http://www.w3.org/2000/svg" xmlns:xlink="http://www.w3.org/1999/xlink" width="400" height="208.41683366733466" viewBox="0, 0, 400,208.41683366733466"><g id="svgg"><path id="path0" d="M0.000 104.221 L 0.000 208.442 200.000 208.442 L 400.000 208.442 400.000 104.221 L 400.000 0.000 200.000 0.000 L 0.000 0.000 0.000 104.221 M252.006 68.480 C 252.006 75.183,252.077 80.665,252.163 80.662 C 252.249 80.660,252.553 80.474,252.840 80.250 C 253.127 80.026,253.471 79.840,253.604 79.838 C 253.738 79.835,253.879 79.760,253.917 79.670 C 253.983 79.517,255.343 78.834,257.040 78.103 C 257.458 77.923,258.162 77.710,258.603 77.630 C 259.045 77.550,259.659 77.357,259.969 77.200 C 261.009 76.673,266.862 76.810,268.265 77.394 C 271.156 78.597,272.895 80.232,274.324 83.092 L 275.248 84.940 275.310 98.947 C 275.385 115.600,275.766 113.809,272.149 113.809 C 270.068 113.809,269.713 113.757,269.231 113.377 L 268.682 112.945 268.680 100.819 C 268.679 85.866,268.637 85.557,266.285 83.251 C 264.321 81.324,261.088 81.004,257.947 82.426 C 255.426 83.567,253.261 84.790,252.475 85.517 L 252.006 85.951 252.006 99.556 L 252.006 113.160 251.543 113.485 C 250.772 114.025,246.608 113.945,245.885 113.377 L 245.336 112.945 245.336 85.694 C 245.336 64.220,245.391 58.369,245.597 58.093 C 245.895 57.690,247.352 56.909,247.829 56.895 C 248.006 56.890,248.525 56.742,248.984 56.564 C 250.232 56.083,251.233 55.913,251.641 56.114 C 251.983 56.282,252.006 57.082,252.006 68.480 M97.030 58.899 C 99.055 59.255,101.650 60.007,102.015 60.344 C 102.139 60.459,102.498 60.685,102.812 60.847 C 104.269 61.599,106.492 64.319,106.842 65.777 C 106.922 66.114,107.092 66.520,107.220 66.681 C 107.562 67.113,107.544 86.463,107.201 87.149 C 107.063 87.424,106.862 87.995,106.753 88.417 C 106.319 90.103,104.292 92.435,102.417 93.404 C 100.409 94.442,99.806 94.494,88.266 94.619 C 78.405 94.726,77.366 94.770,76.861 95.102 C 76.555 95.302,76.184 95.467,76.037 95.468 C 75.593 95.470,73.272 97.177,72.429 98.121 C 71.630 99.017,71.546 99.144,70.539 100.990 L 69.970 102.032 69.881 107.384 C 69.769 114.098,70.302 113.446,65.000 113.356 L 60.969 113.288 59.579 112.625 C 57.422 111.597,56.300 110.444,54.884 107.806 C 54.620 107.312,54.403 106.796,54.402 106.659 C 54.401 106.522,54.265 106.149,54.099 105.831 C 53.933 105.513,53.701 104.733,53.584 104.099 C 53.467 103.465,53.326 102.874,53.272 102.786 C 53.104 102.515,52.527 98.385,52.389 96.477 C 52.248 94.521,52.761 89.630,53.280 87.977 C 53.439 87.470,53.570 86.812,53.570 86.515 C 53.570 86.219,53.757 85.626,53.986 85.198 C 54.216 84.770,54.404 84.303,54.405 84.159 C 54.409 83.313,57.120 79.983,58.484 79.147 C 61.730 77.160,62.053 77.123,76.290 77.120 C 89.103 77.117,89.078 77.119,88.969 76.163 L 88.900 75.560 80.308 75.506 C 71.757 75.452,71.715 75.449,71.476 75.003 C 70.769 73.682,71.553 64.386,72.458 63.350 C 72.617 63.169,72.746 62.943,72.746 62.847 C 72.746 62.262,76.596 59.823,77.519 59.823 C 77.660 59.823,78.214 59.693,78.752 59.533 C 82.572 58.402,92.284 58.065,97.030 58.899 M77.988 64.670 C 75.211 66.092,76.179 70.453,79.271 70.453 C 82.552 70.453,83.675 66.556,80.902 64.797 C 79.772 64.081,79.189 64.055,77.988 64.670 M360.713 65.039 C 361.222 65.601,360.948 65.828,359.666 65.907 L 358.624 65.972 358.520 69.245 C 358.407 72.805,358.251 73.311,357.499 72.559 C 357.097 72.157,357.061 71.887,357.061 69.322 C 357.061 66.308,356.866 65.703,355.987 65.982 C 355.255 66.214,354.446 65.505,354.887 65.018 C 355.447 64.399,360.149 64.416,360.713 65.039 M363.035 65.473 C 363.355 66.134,363.785 67.127,364.493 68.838 C 365.040 70.162,365.399 70.606,365.399 69.960 C 365.399 69.804,365.586 69.437,365.816 69.146 C 366.045 68.854,366.232 68.415,366.232 68.169 C 366.232 67.923,366.407 67.375,366.621 66.951 C 366.835 66.527,367.143 65.899,367.305 65.555 C 367.629 64.869,368.501 64.605,368.889 65.075 C 369.243 65.505,369.468 71.355,369.159 72.100 C 368.494 73.706,367.809 72.876,367.754 70.397 C 367.706 68.233,367.603 67.982,367.272 69.213 C 367.141 69.700,366.900 70.232,366.737 70.395 C 366.574 70.558,366.441 70.918,366.441 71.195 C 366.441 71.471,366.158 72.004,365.812 72.378 L 365.183 73.059 364.575 72.354 C 364.240 71.966,363.906 71.291,363.833 70.854 C 363.759 70.418,363.575 69.958,363.424 69.833 C 363.273 69.707,363.088 69.277,363.013 68.877 C 362.762 67.542,362.480 68.369,362.480 70.440 C 362.480 72.727,362.187 73.379,361.480 72.666 C 360.954 72.137,361.013 65.291,361.546 64.901 C 362.011 64.562,362.727 64.836,363.035 65.473 M232.207 65.455 C 232.357 65.736,232.412 67.690,232.370 71.290 C 232.321 75.649,232.363 76.723,232.586 76.809 C 232.739 76.867,234.166 76.915,235.757 76.915 C 239.162 76.915,239.083 76.860,239.083 79.257 C 239.083 81.319,239.127 81.292,235.718 81.292 C 233.159 81.292,232.824 81.334,232.581 81.681 C 232.361 81.994,232.329 84.504,232.413 94.674 L 232.517 107.280 233.084 108.095 C 233.926 109.307,235.411 110.057,237.624 110.387 C 238.950 110.585,239.083 110.753,239.080 112.219 C 239.075 114.140,239.098 114.126,236.108 114.100 C 231.484 114.060,228.327 112.415,226.753 109.224 C 226.611 108.937,226.350 108.529,226.171 108.316 C 225.887 107.977,225.838 106.321,225.779 94.883 C 225.702 79.929,225.926 81.310,223.570 81.299 C 221.666 81.290,221.365 81.028,221.365 79.374 C 221.365 77.220,221.645 76.942,223.884 76.871 L 225.774 76.811 225.751 72.171 L 225.728 67.531 226.247 67.012 C 226.532 66.726,226.983 66.493,227.247 66.493 C 227.512 66.493,228.056 66.318,228.455 66.104 C 228.855 65.890,229.486 65.648,229.857 65.567 C 230.228 65.485,230.585 65.332,230.651 65.226 C 230.880 64.856,231.972 65.016,232.207 65.455 M166.232 76.290 C 170.654 77.046,174.016 79.447,175.866 83.168 C 176.009 83.455,176.209 83.830,176.312 84.002 C 176.895 84.981,177.384 86.089,177.384 86.433 C 177.384 86.650,177.511 87.013,177.667 87.239 C 177.822 87.465,178.015 88.158,178.095 88.780 C 178.176 89.401,178.377 90.429,178.542 91.064 C 179.023 92.910,178.948 99.099,178.421 101.080 C 178.195 101.932,178.009 102.792,178.009 102.991 C 178.009 103.370,177.985 103.425,176.549 106.337 C 175.490 108.486,173.493 110.947,172.061 111.871 C 171.492 112.237,170.902 112.647,170.749 112.781 C 168.855 114.440,159.996 115.056,158.567 113.627 C 158.438 113.498,158.135 113.392,157.893 113.392 C 157.651 113.392,156.709 113.019,155.798 112.562 C 153.150 111.233,153.425 110.183,153.363 121.864 C 153.302 133.402,153.395 132.842,151.683 131.987 C 151.177 131.734,150.582 131.527,150.362 131.527 C 150.142 131.527,149.777 131.398,149.551 131.241 C 149.325 131.083,148.836 130.889,148.465 130.808 C 146.826 130.451,146.952 132.474,146.952 106.371 C 146.952 86.372,146.994 83.066,147.257 82.557 C 147.940 81.237,151.196 79.000,153.934 77.971 C 154.622 77.713,155.451 77.369,155.775 77.208 C 156.100 77.047,156.662 76.913,157.026 76.910 C 157.389 76.907,158.061 76.804,158.520 76.681 C 160.579 76.126,164.200 75.942,166.232 76.290 M191.147 76.717 C 191.272 76.950,191.350 81.754,191.350 89.184 C 191.350 101.890,191.457 103.831,192.251 105.472 C 192.686 106.370,194.371 108.181,194.772 108.181 C 194.878 108.181,195.113 108.310,195.294 108.468 C 196.904 109.872,203.945 109.843,205.362 108.426 C 205.497 108.292,205.816 108.181,206.072 108.181 C 206.327 108.181,206.660 108.061,206.812 107.914 C 206.963 107.767,207.533 107.387,208.077 107.071 L 209.067 106.496 209.067 91.956 C 209.067 80.924,209.128 77.355,209.317 77.165 C 209.830 76.652,215.032 76.834,215.413 77.378 C 215.778 77.899,215.882 110.537,215.530 113.913 C 215.435 114.831,215.256 116.636,215.133 117.925 C 215.010 119.215,214.768 120.610,214.594 121.025 C 214.420 121.441,214.277 121.981,214.275 122.225 C 214.274 122.468,214.138 122.903,213.975 123.189 C 213.812 123.476,213.530 124.029,213.350 124.420 C 212.846 125.510,210.183 127.994,208.444 128.996 C 206.977 129.842,206.494 130.060,204.690 130.698 C 204.289 130.840,203.652 131.084,203.276 131.241 C 202.899 131.398,202.384 131.528,202.129 131.530 C 201.875 131.532,200.786 131.719,199.708 131.947 C 195.827 132.766,195.145 132.469,194.722 129.771 C 194.433 127.931,194.562 127.844,198.304 127.359 C 202.928 126.761,207.016 124.542,208.099 122.043 C 208.775 120.482,209.035 118.863,209.141 115.535 C 209.262 111.769,209.197 111.464,208.396 112.025 C 208.141 112.204,207.807 112.350,207.655 112.350 C 207.502 112.350,206.983 112.529,206.502 112.748 C 206.021 112.967,205.253 113.207,204.794 113.280 C 204.336 113.354,203.491 113.540,202.918 113.693 C 200.068 114.454,194.077 114.434,192.472 113.658 C 188.666 111.817,186.929 110.235,185.543 107.348 L 184.992 106.201 184.933 92.407 L 184.874 78.612 185.316 78.200 C 185.559 77.974,186.097 77.725,186.511 77.647 C 186.925 77.570,187.454 77.373,187.686 77.210 C 187.918 77.048,188.299 76.915,188.533 76.915 C 188.767 76.915,189.286 76.740,189.685 76.525 C 190.484 76.097,190.840 76.143,191.147 76.717 M300.782 76.498 C 301.499 76.727,302.242 76.915,302.432 76.915 C 303.382 76.915,307.105 79.235,308.494 80.692 C 309.846 82.111,310.370 82.732,310.370 82.916 C 310.370 83.027,310.506 83.230,310.673 83.369 C 311.161 83.774,312.568 86.692,313.046 88.291 C 314.410 92.855,314.037 100.044,312.231 103.993 C 311.546 105.490,310.959 106.588,310.652 106.947 C 310.497 107.128,310.370 107.339,310.370 107.416 C 310.370 108.456,304.966 112.872,303.166 113.303 C 302.829 113.384,302.457 113.525,302.339 113.616 C 302.222 113.708,301.214 113.930,300.101 114.109 C 292.136 115.390,285.827 112.041,282.458 104.742 C 282.088 103.940,281.699 103.123,281.595 102.927 C 281.490 102.732,281.343 102.169,281.267 101.677 C 281.192 101.184,281.002 100.528,280.846 100.219 C 280.428 99.389,280.453 90.369,280.875 89.630 C 281.039 89.343,281.180 88.874,281.188 88.588 C 281.196 88.301,281.383 87.692,281.605 87.233 C 281.827 86.774,282.011 86.322,282.015 86.227 C 282.072 84.833,286.560 79.514,288.754 78.241 C 289.774 77.648,291.163 77.087,292.340 76.792 C 292.913 76.648,293.710 76.439,294.112 76.327 C 295.499 75.941,299.345 76.039,300.782 76.498 M338.927 76.285 C 339.328 76.392,340.172 76.613,340.803 76.777 C 343.644 77.514,346.261 79.580,347.614 82.153 L 348.202 83.273 348.263 98.150 C 348.336 115.771,348.738 113.809,345.055 113.809 C 341.475 113.809,341.845 115.322,341.844 100.683 C 341.844 85.472,341.755 84.817,339.416 82.748 C 336.647 80.299,330.657 80.107,327.045 82.350 C 326.873 82.457,326.527 82.633,326.276 82.742 C 325.381 83.131,325.378 83.178,325.378 98.239 C 325.378 115.633,325.770 113.809,322.028 113.809 C 318.294 113.809,318.707 115.778,318.711 98.020 C 318.712 89.794,318.771 82.850,318.841 82.588 C 319.205 81.229,326.627 77.397,329.859 76.898 C 330.547 76.792,331.344 76.615,331.631 76.505 C 332.680 76.102,337.672 75.951,338.927 76.285 M118.012 77.629 C 120.131 78.136,122.968 80.571,123.494 82.335 C 123.580 82.621,123.767 83.043,123.911 83.273 C 124.297 83.889,124.975 86.263,125.668 89.422 C 126.513 93.279,126.426 99.994,125.497 102.658 C 125.377 103.002,125.048 103.986,124.767 104.846 C 123.305 109.309,121.915 111.274,119.215 112.693 L 118.082 113.288 103.857 113.351 L 89.633 113.414 89.509 113.905 C 89.158 115.303,88.935 115.268,98.350 115.268 C 104.681 115.268,106.911 115.332,107.097 115.518 C 107.549 115.970,107.431 122.664,106.946 124.185 C 105.601 128.395,102.127 130.547,94.007 132.201 C 91.831 132.644,86.056 132.512,83.585 131.962 C 80.607 131.300,77.102 130.110,76.707 129.628 C 76.649 129.558,76.309 129.350,75.950 129.167 C 74.153 128.246,72.664 126.441,71.892 124.251 C 70.689 120.833,71.443 103.116,72.889 100.824 C 75.514 96.664,76.881 96.300,89.899 96.300 L 99.878 96.300 101.463 95.753 C 104.460 94.719,106.806 92.602,108.233 89.647 L 109.096 87.858 109.181 82.960 C 109.252 78.914,109.323 77.998,109.590 77.697 C 110.008 77.225,116.118 77.176,118.012 77.629 M159.346 81.068 C 158.768 81.161,158.018 81.378,157.678 81.552 C 157.339 81.725,156.765 81.931,156.404 82.009 C 155.525 82.198,154.443 82.764,153.876 83.331 L 153.413 83.794 153.413 95.013 L 153.413 106.233 153.882 106.656 C 154.627 107.327,157.389 108.674,158.520 108.916 C 158.864 108.990,159.499 109.183,159.931 109.346 C 161.556 109.955,165.403 109.441,166.561 108.460 C 166.742 108.307,166.985 108.181,167.101 108.181 C 167.393 108.181,168.787 106.646,169.080 106.001 C 169.213 105.710,169.388 105.472,169.470 105.472 C 169.551 105.472,169.736 105.047,169.882 104.528 C 170.027 104.009,170.218 103.540,170.306 103.486 C 170.394 103.431,170.529 102.894,170.606 102.293 C 170.682 101.691,170.885 100.682,171.056 100.050 C 171.667 97.789,171.156 88.934,170.304 87.024 C 170.201 86.795,170.006 86.244,169.870 85.800 C 169.302 83.950,167.686 82.192,165.711 81.277 C 165.070 80.981,160.779 80.840,159.346 81.068 M294.424 81.272 C 294.195 81.353,293.659 81.578,293.232 81.773 C 292.806 81.967,292.407 82.126,292.346 82.126 C 292.285 82.126,292.062 82.290,291.850 82.491 C 291.637 82.692,291.192 83.103,290.859 83.405 C 287.845 86.144,286.488 96.285,288.387 101.877 C 288.555 102.372,288.692 102.871,288.692 102.986 C 288.692 103.865,290.830 107.329,291.923 108.220 C 294.666 110.457,300.295 110.396,302.701 108.103 C 303.532 107.311,304.534 106.039,304.534 105.776 C 304.534 105.637,304.674 105.406,304.846 105.263 C 305.018 105.120,305.159 104.871,305.159 104.710 C 305.159 104.548,305.317 104.067,305.509 103.641 C 307.140 100.035,307.166 90.883,305.554 87.428 C 305.337 86.962,305.159 86.422,305.159 86.229 C 305.159 86.036,305.077 85.878,304.976 85.878 C 304.875 85.878,304.672 85.587,304.525 85.232 C 303.302 82.278,297.747 80.101,294.424 81.272 M98.302 120.268 C 95.768 121.071,95.468 124.778,97.837 126.007 C 100.713 127.499,103.829 124.174,101.963 121.605 C 100.964 120.230,99.783 119.799,98.302 120.268 " stroke="none" fill="#fbfbfb" fill-rule="evenodd"></path><path id="path1" d="M248.581 57.244 C 247.443 57.626,246.433 58.017,246.337 58.113 C 246.144 58.307,246.090 112.677,246.282 112.989 C 246.447 113.255,250.684 113.237,251.186 112.968 C 251.578 112.758,251.589 112.386,251.589 99.251 C 251.589 88.766,251.648 85.675,251.850 85.416 C 252.117 85.075,254.197 83.687,255.133 83.225 C 255.419 83.083,255.795 82.875,255.967 82.762 C 259.553 80.408,264.520 80.484,266.781 82.928 C 269.278 85.627,269.307 85.826,269.307 100.475 C 269.307 109.693,269.368 112.745,269.557 112.934 C 269.831 113.208,273.714 113.266,274.373 113.006 C 274.897 112.800,274.930 85.834,274.408 84.825 C 274.239 84.498,274.100 84.062,274.100 83.856 C 274.098 83.430,272.594 81.048,271.808 80.227 C 268.898 77.187,263.604 76.548,257.659 78.520 C 256.813 78.801,255.968 79.117,255.783 79.223 C 255.597 79.329,255.211 79.512,254.924 79.629 C 254.638 79.746,253.889 80.166,253.260 80.563 C 251.467 81.695,251.574 82.443,251.586 68.954 C 251.591 62.469,251.537 57.012,251.466 56.826 C 251.296 56.383,251.038 56.421,248.581 57.244 M361.848 65.110 C 361.700 65.258,361.787 71.914,361.939 72.066 C 362.008 72.134,362.064 71.108,362.064 69.784 C 362.064 67.899,362.131 67.322,362.376 67.118 C 362.548 66.976,362.689 66.646,362.689 66.386 C 362.689 65.905,362.039 64.919,361.848 65.110 M357.630 65.920 C 357.811 66.292,357.981 66.625,358.007 66.660 C 358.033 66.695,358.094 66.390,358.141 65.983 C 358.218 65.331,358.173 65.242,357.765 65.242 C 357.313 65.242,357.310 65.260,357.630 65.920 M367.789 65.803 C 367.466 66.297,367.456 66.426,367.713 66.881 C 368.154 67.663,368.460 67.637,368.616 66.806 C 368.882 65.386,368.425 64.832,367.789 65.803 M229.172 66.356 C 228.135 66.718,227.029 67.183,226.714 67.390 L 226.140 67.766 226.172 72.360 C 226.209 77.709,226.335 77.407,224.014 77.511 C 222.054 77.598,221.998 77.646,221.994 79.218 C 221.990 80.737,222.165 80.875,224.091 80.875 C 226.318 80.875,226.126 79.661,226.210 94.223 L 226.284 107.035 226.829 108.286 C 228.349 111.774,231.868 113.697,236.477 113.559 L 238.562 113.497 238.623 112.559 C 238.711 111.207,238.385 110.877,236.776 110.688 C 234.362 110.406,232.900 109.310,232.133 107.209 C 231.530 105.556,231.309 82.256,231.888 81.372 C 232.204 80.891,232.298 80.875,234.971 80.873 C 238.770 80.869,238.666 80.913,238.666 79.300 C 238.666 77.628,238.741 77.666,235.206 77.540 C 231.196 77.398,231.548 77.988,231.593 71.482 C 231.613 68.532,231.566 66.016,231.488 65.889 C 231.308 65.598,231.401 65.579,229.172 66.356 M368.275 70.297 C 368.232 71.128,368.272 71.897,368.362 72.006 C 368.452 72.115,368.525 71.435,368.525 70.495 C 368.525 68.380,368.377 68.263,368.275 70.297 M364.866 71.514 C 364.684 71.808,365.086 72.210,365.380 72.028 C 365.505 71.951,365.607 71.753,365.607 71.587 C 365.607 71.237,365.071 71.183,364.866 71.514 M161.126 76.835 C 156.048 77.281,149.925 79.817,148.076 82.240 L 147.577 82.895 147.577 106.241 C 147.577 128.215,147.598 129.605,147.942 129.902 C 148.381 130.281,152.596 131.749,152.831 131.604 C 152.922 131.548,152.996 126.970,152.996 121.431 C 152.996 109.830,152.874 110.502,154.805 111.483 C 158.625 113.426,159.725 113.699,163.731 113.702 C 167.354 113.705,168.271 113.508,170.610 112.225 C 171.814 111.565,174.937 108.491,175.411 107.500 C 175.588 107.130,175.931 106.451,176.173 105.993 C 178.815 100.992,178.961 91.326,176.481 85.565 C 173.577 78.821,168.887 76.155,161.126 76.835 M294.170 76.903 C 289.644 77.625,285.199 80.964,283.192 85.149 C 283.027 85.492,282.823 85.842,282.739 85.926 C 280.520 88.131,280.591 102.040,282.833 104.282 C 282.960 104.409,283.064 104.641,283.064 104.799 C 283.064 106.442,287.382 111.106,290.047 112.342 C 298.627 116.323,309.057 112.072,311.832 103.463 C 311.975 103.020,312.165 102.564,312.254 102.449 C 312.344 102.335,312.484 101.866,312.565 101.407 C 312.646 100.948,312.842 100.061,313.000 99.435 C 313.469 97.583,313.387 92.083,312.859 89.867 C 310.663 80.667,303.168 75.467,294.170 76.903 M332.770 76.904 C 329.314 77.303,325.724 78.554,322.355 80.533 C 320.767 81.466,320.747 81.479,319.902 82.173 L 319.325 82.647 319.321 97.742 C 319.318 109.836,319.370 112.871,319.585 113.007 C 320.021 113.284,324.215 113.221,324.502 112.934 C 324.692 112.744,324.752 109.129,324.752 97.937 L 324.752 83.190 325.430 82.686 C 329.346 79.776,336.001 79.346,339.096 81.803 C 342.353 84.390,342.459 84.994,342.447 100.859 C 342.441 107.792,342.517 112.898,342.627 113.008 C 342.732 113.112,343.935 113.171,345.301 113.139 L 347.785 113.080 347.785 98.593 L 347.785 84.106 347.270 82.754 C 345.614 78.406,339.860 76.084,332.770 76.904 M188.640 77.475 C 187.895 77.760,186.863 78.153,186.347 78.348 L 185.409 78.701 185.409 92.034 C 185.409 107.582,185.274 106.493,187.587 109.588 C 190.839 113.941,198.574 114.973,206.515 112.115 C 207.518 111.754,208.666 111.448,209.067 111.436 L 209.797 111.412 209.856 113.802 C 209.966 118.209,209.127 121.858,207.592 123.654 C 206.496 124.936,203.809 126.730,202.979 126.734 C 202.831 126.735,202.445 126.873,202.121 127.042 C 201.588 127.320,200.290 127.599,196.680 128.212 C 194.869 128.519,194.821 128.609,195.444 130.516 C 195.870 131.816,195.833 131.804,198.459 131.537 C 209.037 130.462,214.094 125.681,214.783 116.102 C 214.974 113.445,214.951 77.921,214.758 77.729 C 214.470 77.441,210.146 77.459,209.796 77.749 C 209.525 77.975,209.484 79.868,209.484 92.329 L 209.484 106.650 209.015 107.089 C 206.470 109.474,199.940 110.790,196.509 109.608 C 194.804 109.021,192.183 107.073,192.183 106.393 C 192.183 106.258,192.049 106.036,191.884 105.900 C 191.720 105.763,191.521 105.353,191.443 104.988 C 191.365 104.624,191.195 104.194,191.065 104.033 C 190.876 103.798,190.676 88.122,190.723 77.176 C 190.725 76.804,190.189 76.881,188.640 77.475 M165.414 80.595 C 168.400 81.596,170.383 84.410,171.327 88.986 C 171.832 91.433,171.971 98.520,171.556 100.658 C 171.077 103.130,170.178 105.620,169.534 106.264 C 169.381 106.418,169.254 106.607,169.254 106.685 C 169.252 106.867,168.083 108.034,167.275 108.660 C 164.366 110.914,158.932 110.462,154.190 107.571 C 152.960 106.822,152.996 107.211,152.996 94.873 L 152.996 83.414 153.674 82.841 C 154.046 82.526,154.773 82.090,155.289 81.871 C 155.805 81.653,156.415 81.386,156.644 81.278 C 158.681 80.320,163.481 79.946,165.414 80.595 M299.060 80.563 C 302.335 81.335,306.410 85.550,306.410 88.166 C 306.410 88.370,306.572 88.900,306.771 89.344 C 307.303 90.532,307.301 99.379,306.769 101.126 C 306.571 101.775,306.409 102.525,306.409 102.794 C 306.406 104.288,303.611 108.354,301.948 109.284 C 296.391 112.390,290.497 109.855,288.262 103.398 C 286.840 99.287,286.571 92.176,287.686 88.171 C 287.950 87.225,288.736 85.179,288.888 85.044 C 288.953 84.987,289.283 84.532,289.622 84.033 C 291.545 81.200,295.536 79.732,299.060 80.563 " stroke="none" fill="#626262" fill-rule="evenodd"></path><path id="path2" d="M83.377 59.129 C 73.457 60.361,71.707 62.190,71.705 71.324 C 71.704 75.717,70.621 75.248,80.744 75.248 C 89.734 75.248,89.630 75.235,89.630 76.316 C 89.630 77.754,90.011 77.714,75.962 77.740 C 61.313 77.766,60.260 77.903,57.738 80.108 C 56.182 81.470,53.986 85.219,53.986 86.516 C 53.986 86.744,53.805 87.656,53.584 88.541 C 52.402 93.265,52.830 102.324,54.372 105.205 C 54.504 105.451,54.612 105.851,54.612 106.093 C 54.612 106.615,56.249 109.506,56.996 110.304 C 58.924 112.360,60.769 112.978,65.242 113.065 C 69.598 113.151,69.203 113.618,69.203 108.381 C 69.203 103.796,69.409 102.327,70.296 100.580 C 71.704 97.809,74.048 95.731,76.969 94.663 L 78.478 94.112 89.526 94.007 L 100.573 93.903 102.092 93.092 C 106.468 90.754,107.103 88.739,107.121 77.124 C 107.139 65.339,106.541 63.414,102.077 60.889 C 98.940 59.115,90.153 58.288,83.377 59.129 M81.297 64.528 C 84.529 66.715,82.200 71.692,78.420 70.674 C 77.894 70.533,77.312 70.146,76.845 69.630 C 74.144 66.640,77.959 62.268,81.297 64.528 " stroke="none" fill="#3875a6" fill-rule="evenodd"></path><path id="path3" d="M109.821 77.917 C 109.464 78.167,109.432 78.522,109.432 82.204 C 109.432 89.049,108.223 91.991,104.315 94.655 C 101.782 96.382,101.125 96.469,90.255 96.521 C 77.123 96.583,76.947 96.622,73.553 100.214 C 72.075 101.779,71.884 103.176,71.771 113.288 C 71.640 124.897,71.838 125.801,75.039 128.214 C 84.256 135.164,104.126 132.662,106.679 124.231 C 107.175 122.594,107.276 116.092,106.811 115.752 C 106.513 115.535,104.674 115.477,98.058 115.477 C 88.838 115.477,89.131 115.519,89.168 114.198 C 89.178 113.846,89.247 113.497,89.321 113.423 C 89.395 113.349,95.850 113.240,103.665 113.182 C 117.873 113.075,117.874 113.075,118.892 112.604 C 121.949 111.189,123.441 108.744,125.404 101.928 C 125.978 99.939,125.976 91.756,125.402 89.317 C 123.573 81.543,121.449 78.310,117.874 77.857 C 115.750 77.588,110.232 77.629,109.821 77.917 M100.885 120.167 C 102.416 120.958,103.175 123.182,102.409 124.633 C 100.645 127.978,95.958 126.884,96.009 123.140 C 96.044 120.615,98.663 119.017,100.885 120.167 " stroke="none" fill="#fcd545" fill-rule="evenodd"></path><path id="path4" d="M250.547 56.089 C 250.146 56.173,249.442 56.387,248.984 56.564 C 248.525 56.742,248.006 56.890,247.829 56.895 C 247.352 56.909,245.895 57.690,245.597 58.093 C 245.391 58.369,245.336 64.220,245.336 85.694 L 245.336 112.945 245.885 113.377 C 246.608 113.945,250.772 114.025,251.543 113.485 L 252.006 113.160 252.006 99.556 L 252.006 85.951 252.475 85.517 C 253.261 84.790,255.426 83.567,257.947 82.426 C 261.088 81.004,264.321 81.324,266.285 83.251 C 268.637 85.557,268.679 85.866,268.680 100.819 L 268.682 112.945 269.231 113.377 C 269.713 113.757,270.068 113.809,272.149 113.809 C 275.766 113.809,275.385 115.600,275.310 98.947 L 275.248 84.940 274.324 83.092 C 272.895 80.232,271.156 78.597,268.265 77.394 C 266.862 76.810,261.009 76.673,259.969 77.200 C 259.659 77.357,259.045 77.550,258.603 77.630 C 258.162 77.710,257.458 77.923,257.040 78.103 C 255.343 78.834,253.983 79.517,253.917 79.670 C 253.879 79.760,253.738 79.835,253.604 79.838 C 253.471 79.840,253.127 80.026,252.840 80.250 C 252.553 80.474,252.249 80.660,252.163 80.662 C 252.077 80.665,252.006 75.183,252.006 68.480 C 252.006 54.862,252.112 55.758,250.547 56.089 M251.466 56.826 C 251.537 57.012,251.591 62.469,251.586 68.954 C 251.574 82.443,251.467 81.695,253.260 80.563 C 253.889 80.166,254.638 79.746,254.924 79.629 C 255.211 79.512,255.597 79.329,255.783 79.223 C 259.735 76.962,266.792 76.830,270.141 78.955 C 271.837 80.031,274.096 82.827,274.100 83.856 C 274.100 84.062,274.239 84.498,274.408 84.825 C 274.930 85.834,274.897 112.800,274.373 113.006 C 273.714 113.266,269.831 113.208,269.557 112.934 C 269.368 112.745,269.307 109.693,269.307 100.475 C 269.307 85.826,269.278 85.627,266.781 82.928 C 264.520 80.484,259.553 80.408,255.967 82.762 C 255.795 82.875,255.419 83.083,255.133 83.225 C 254.197 83.687,252.117 85.075,251.850 85.416 C 251.648 85.675,251.589 88.766,251.589 99.251 C 251.589 112.386,251.578 112.758,251.186 112.968 C 250.684 113.237,246.447 113.255,246.282 112.989 C 246.090 112.677,246.144 58.307,246.337 58.113 C 247.005 57.445,251.291 56.369,251.466 56.826 M84.836 58.555 C 82.582 58.724,80.183 59.110,78.752 59.533 C 78.214 59.693,77.660 59.823,77.519 59.823 C 76.596 59.823,72.746 62.262,72.746 62.847 C 72.746 62.943,72.617 63.169,72.458 63.350 C 71.553 64.386,70.769 73.682,71.476 75.003 C 71.715 75.449,71.757 75.452,80.308 75.506 L 88.900 75.560 88.969 76.163 C 89.078 77.119,89.103 77.117,76.290 77.120 C 62.053 77.123,61.730 77.160,58.484 79.147 C 57.120 79.983,54.409 83.313,54.405 84.159 C 54.404 84.303,54.216 84.770,53.986 85.198 C 53.757 85.626,53.570 86.219,53.570 86.515 C 53.570 86.812,53.439 87.470,53.280 87.977 C 52.761 89.630,52.248 94.521,52.389 96.477 C 52.527 98.385,53.104 102.515,53.272 102.786 C 53.326 102.874,53.467 103.465,53.584 104.099 C 53.701 104.733,53.933 105.513,54.099 105.831 C 54.265 106.149,54.401 106.522,54.402 106.659 C 54.403 106.796,54.620 107.312,54.884 107.806 C 56.300 110.444,57.422 111.597,59.579 112.625 L 60.969 113.288 65.000 113.356 C 70.302 113.446,69.769 114.098,69.881 107.384 L 69.970 102.032 70.539 100.990 C 71.546 99.144,71.630 99.017,72.429 98.121 C 73.272 97.177,75.593 95.470,76.037 95.468 C 76.184 95.467,76.555 95.302,76.861 95.102 C 77.366 94.770,78.405 94.726,88.266 94.619 C 99.806 94.494,100.409 94.442,102.417 93.404 C 104.292 92.435,106.319 90.103,106.753 88.417 C 106.862 87.995,107.063 87.424,107.201 87.149 C 107.544 86.463,107.562 67.113,107.220 66.681 C 107.092 66.520,106.922 66.114,106.842 65.777 C 106.492 64.319,104.269 61.599,102.812 60.847 C 102.498 60.685,102.139 60.459,102.015 60.344 C 100.591 59.031,91.347 58.069,84.836 58.555 M95.466 59.191 C 102.649 60.034,105.871 62.383,106.763 67.429 C 107.293 70.424,107.286 83.793,106.754 86.608 C 106.165 89.718,104.767 91.663,102.092 93.092 L 100.573 93.903 89.526 94.007 L 78.478 94.112 76.969 94.663 C 74.048 95.731,71.704 97.809,70.296 100.580 C 69.409 102.327,69.203 103.796,69.203 108.381 C 69.203 113.618,69.598 113.151,65.242 113.065 C 60.769 112.978,58.924 112.360,56.996 110.304 C 56.249 109.506,54.612 106.615,54.612 106.093 C 54.612 105.851,54.504 105.451,54.372 105.205 C 52.830 102.324,52.402 93.265,53.584 88.541 C 53.805 87.656,53.986 86.744,53.986 86.516 C 53.986 85.219,56.182 81.470,57.738 80.108 C 60.260 77.903,61.313 77.766,75.962 77.740 C 90.011 77.714,89.630 77.754,89.630 76.316 C 89.630 75.235,89.734 75.248,80.744 75.248 C 73.399 75.248,72.318 75.207,72.032 74.920 C 71.242 74.130,71.763 65.503,72.713 63.640 C 74.656 59.831,84.506 57.905,95.466 59.191 M78.647 63.931 C 76.250 64.237,75.141 67.744,76.845 69.630 C 79.262 72.305,83.152 70.308,82.755 66.597 C 82.582 64.989,80.574 63.685,78.647 63.931 M80.902 64.797 C 83.675 66.556,82.552 70.453,79.271 70.453 C 76.179 70.453,75.211 66.092,77.988 64.670 C 79.189 64.055,79.772 64.081,80.902 64.797 M354.887 65.018 C 354.446 65.505,355.255 66.214,355.987 65.982 C 356.866 65.703,357.061 66.308,357.061 69.322 C 357.061 71.887,357.097 72.157,357.499 72.559 C 358.251 73.311,358.407 72.805,358.520 69.245 L 358.624 65.972 359.666 65.907 C 360.948 65.828,361.222 65.601,360.713 65.039 C 360.149 64.416,355.447 64.399,354.887 65.018 M361.546 64.901 C 361.013 65.291,360.954 72.137,361.480 72.666 C 362.187 73.379,362.480 72.727,362.480 70.440 C 362.480 68.369,362.762 67.542,363.013 68.877 C 363.088 69.277,363.273 69.707,363.424 69.833 C 363.575 69.958,363.759 70.418,363.833 70.854 C 363.906 71.291,364.240 71.966,364.575 72.354 L 365.183 73.059 365.812 72.378 C 366.158 72.004,366.441 71.471,366.441 71.195 C 366.441 70.918,366.574 70.558,366.737 70.395 C 366.900 70.232,367.141 69.700,367.272 69.213 C 367.603 67.982,367.706 68.233,367.754 70.397 C 367.809 72.876,368.494 73.706,369.159 72.100 C 369.468 71.355,369.243 65.505,368.889 65.075 C 368.501 64.605,367.629 64.869,367.305 65.555 C 367.143 65.899,366.835 66.527,366.621 66.951 C 366.407 67.375,366.232 67.923,366.232 68.169 C 366.232 68.415,366.045 68.854,365.816 69.146 C 365.586 69.437,365.399 69.804,365.399 69.960 C 365.399 70.606,365.040 70.162,364.493 68.838 C 363.030 65.300,362.870 65.001,362.344 64.809 C 362.069 64.709,361.761 64.744,361.546 64.901 M230.651 65.226 C 230.585 65.332,230.228 65.485,229.857 65.567 C 229.486 65.648,228.855 65.890,228.455 66.104 C 228.056 66.318,227.512 66.493,227.247 66.493 C 226.983 66.493,226.532 66.726,226.247 67.012 L 225.728 67.531 225.751 72.171 L 225.774 76.811 223.884 76.871 C 221.645 76.942,221.365 77.220,221.365 79.374 C 221.365 81.028,221.666 81.290,223.570 81.299 C 225.926 81.310,225.702 79.929,225.779 94.883 C 225.838 106.321,225.887 107.977,226.171 108.316 C 226.350 108.529,226.611 108.937,226.753 109.224 C 228.327 112.415,231.484 114.060,236.108 114.100 C 239.098 114.126,239.075 114.140,239.080 112.219 C 239.083 110.753,238.950 110.585,237.624 110.387 C 235.411 110.057,233.926 109.307,233.084 108.095 L 232.517 107.280 232.413 94.674 C 232.329 84.504,232.361 81.994,232.581 81.681 C 232.824 81.334,233.159 81.292,235.718 81.292 C 239.127 81.292,239.083 81.319,239.083 79.257 C 239.083 76.860,239.162 76.915,235.757 76.915 C 234.166 76.915,232.739 76.867,232.586 76.809 C 232.363 76.723,232.321 75.649,232.370 71.290 C 232.412 67.690,232.357 65.736,232.207 65.455 C 231.972 65.016,230.880 64.856,230.651 65.226 M362.689 66.386 C 362.689 66.646,362.548 66.976,362.376 67.118 C 362.131 67.322,362.064 67.899,362.064 69.784 C 362.064 71.108,362.008 72.134,361.939 72.066 C 361.787 71.914,361.700 65.258,361.848 65.110 C 362.039 64.919,362.689 65.905,362.689 66.386 M358.141 65.983 C 358.094 66.390,358.033 66.695,358.007 66.660 C 357.453 65.936,357.334 65.242,357.765 65.242 C 358.173 65.242,358.218 65.331,358.141 65.983 M368.627 65.650 C 368.809 66.225,368.524 67.569,368.240 67.475 C 367.645 67.279,367.405 66.389,367.789 65.803 C 368.225 65.138,368.451 65.096,368.627 65.650 M231.488 65.889 C 231.566 66.016,231.613 68.532,231.593 71.482 C 231.548 77.988,231.196 77.398,235.206 77.540 C 238.741 77.666,238.666 77.628,238.666 79.300 C 238.666 80.913,238.770 80.869,234.971 80.873 C 232.298 80.875,232.204 80.891,231.888 81.372 C 231.309 82.256,231.530 105.556,232.133 107.209 C 232.900 109.310,234.362 110.406,236.776 110.688 C 238.385 110.877,238.711 111.207,238.623 112.559 L 238.562 113.497 236.477 113.559 C 231.868 113.697,228.349 111.774,226.829 108.286 L 226.284 107.035 226.210 94.223 C 226.126 79.661,226.318 80.875,224.091 80.875 C 222.165 80.875,221.990 80.737,221.994 79.218 C 221.998 77.646,222.054 77.598,224.014 77.511 C 226.335 77.407,226.209 77.709,226.172 72.360 L 226.140 67.766 226.714 67.390 C 227.181 67.083,230.674 65.752,231.202 65.679 C 231.281 65.668,231.410 65.763,231.488 65.889 M368.525 70.495 C 368.525 71.435,368.452 72.115,368.362 72.006 C 368.199 71.810,368.271 68.786,368.438 68.786 C 368.486 68.786,368.525 69.555,368.525 70.495 M365.607 71.587 C 365.607 71.753,365.505 71.951,365.380 72.028 C 365.086 72.210,364.684 71.808,364.866 71.514 C 365.071 71.183,365.607 71.237,365.607 71.587 M160.396 76.298 C 159.823 76.385,158.979 76.557,158.520 76.681 C 158.061 76.804,157.389 76.907,157.026 76.910 C 156.662 76.913,156.100 77.047,155.775 77.208 C 155.451 77.369,154.622 77.713,153.934 77.971 C 151.196 79.000,147.940 81.237,147.257 82.557 C 146.994 83.066,146.952 86.372,146.952 106.371 C 146.952 132.474,146.826 130.451,148.465 130.808 C 148.836 130.889,149.325 131.083,149.551 131.241 C 149.777 131.398,150.142 131.527,150.362 131.527 C 150.582 131.527,151.177 131.734,151.683 131.987 C 153.395 132.842,153.302 133.402,153.363 121.864 C 153.425 110.183,153.150 111.233,155.798 112.562 C 156.709 113.019,157.651 113.392,157.893 113.392 C 158.135 113.392,158.438 113.498,158.567 113.627 C 159.996 115.056,168.855 114.440,170.749 112.781 C 170.902 112.647,171.492 112.237,172.061 111.871 C 173.493 110.947,175.490 108.486,176.549 106.337 C 177.985 103.425,178.009 103.370,178.009 102.991 C 178.009 102.792,178.195 101.932,178.421 101.080 C 178.948 99.099,179.023 92.910,178.542 91.064 C 178.377 90.429,178.176 89.401,178.095 88.780 C 178.015 88.158,177.822 87.465,177.667 87.239 C 177.511 87.013,177.384 86.650,177.384 86.433 C 177.384 86.089,176.895 84.981,176.312 84.002 C 176.209 83.830,176.009 83.455,175.866 83.168 C 173.232 77.870,167.327 75.248,160.396 76.298 M189.685 76.525 C 189.286 76.740,188.767 76.915,188.533 76.915 C 188.299 76.915,187.918 77.048,187.686 77.210 C 187.454 77.373,186.925 77.570,186.511 77.647 C 186.097 77.725,185.559 77.974,185.316 78.200 L 184.874 78.612 184.933 92.407 L 184.992 106.201 185.543 107.348 C 186.929 110.235,188.666 111.817,192.472 113.658 C 194.077 114.434,200.068 114.454,202.918 113.693 C 203.491 113.540,204.336 113.354,204.794 113.280 C 205.253 113.207,206.021 112.967,206.502 112.748 C 206.983 112.529,207.502 112.350,207.655 112.350 C 207.807 112.350,208.141 112.204,208.396 112.025 C 209.197 111.464,209.262 111.769,209.141 115.535 C 209.035 118.863,208.775 120.482,208.099 122.043 C 207.016 124.542,202.928 126.761,198.304 127.359 C 194.562 127.844,194.433 127.931,194.722 129.771 C 195.145 132.469,195.827 132.766,199.708 131.947 C 200.786 131.719,201.875 131.532,202.129 131.530 C 202.384 131.528,202.899 131.398,203.276 131.241 C 203.652 131.084,204.289 130.840,204.690 130.698 C 206.494 130.060,206.977 129.842,208.444 128.996 C 210.183 127.994,212.846 125.510,213.350 124.420 C 213.530 124.029,213.812 123.476,213.975 123.189 C 214.138 122.903,214.274 122.468,214.275 122.225 C 214.277 121.981,214.420 121.441,214.594 121.025 C 214.768 120.610,215.010 119.215,215.133 117.925 C 215.256 116.636,215.435 114.831,215.530 113.913 C 215.882 110.537,215.778 77.899,215.413 77.378 C 215.032 76.834,209.830 76.652,209.317 77.165 C 209.128 77.355,209.067 80.924,209.067 91.956 L 209.067 106.496 208.077 107.071 C 207.533 107.387,206.963 107.767,206.812 107.914 C 206.660 108.061,206.327 108.181,206.072 108.181 C 205.816 108.181,205.497 108.292,205.362 108.426 C 203.945 109.843,196.904 109.872,195.294 108.468 C 195.113 108.310,194.878 108.181,194.772 108.181 C 194.371 108.181,192.686 106.370,192.251 105.472 C 191.457 103.831,191.350 101.890,191.350 89.184 C 191.350 75.459,191.371 75.620,189.685 76.525 M294.112 76.327 C 293.710 76.439,292.913 76.648,292.340 76.792 C 291.163 77.087,289.774 77.648,288.754 78.241 C 286.560 79.514,282.072 84.833,282.015 86.227 C 282.011 86.322,281.827 86.774,281.605 87.233 C 281.383 87.692,281.196 88.301,281.188 88.588 C 281.180 88.874,281.039 89.343,280.875 89.630 C 280.453 90.369,280.428 99.389,280.846 100.219 C 281.002 100.528,281.192 101.184,281.267 101.677 C 281.343 102.169,281.490 102.732,281.595 102.927 C 281.699 103.123,282.088 103.940,282.458 104.742 C 285.827 112.041,292.136 115.390,300.101 114.109 C 301.214 113.930,302.222 113.708,302.339 113.616 C 302.457 113.525,302.829 113.384,303.166 113.303 C 304.966 112.872,310.370 108.456,310.370 107.416 C 310.370 107.339,310.497 107.128,310.652 106.947 C 312.942 104.272,314.349 97.346,313.722 91.835 C 313.363 88.676,311.783 84.290,310.673 83.369 C 310.506 83.230,310.370 83.027,310.370 82.916 C 310.370 82.732,309.846 82.111,308.494 80.692 C 307.105 79.235,303.382 76.915,302.432 76.915 C 302.242 76.915,301.499 76.727,300.782 76.498 C 299.345 76.039,295.499 75.941,294.112 76.327 M332.882 76.226 C 332.480 76.269,331.918 76.395,331.631 76.505 C 331.344 76.615,330.547 76.792,329.859 76.898 C 326.627 77.397,319.205 81.229,318.841 82.588 C 318.771 82.850,318.712 89.794,318.711 98.020 C 318.707 115.778,318.294 113.809,322.028 113.809 C 325.770 113.809,325.378 115.633,325.378 98.239 C 325.378 83.178,325.381 83.131,326.276 82.742 C 326.527 82.633,326.873 82.457,327.045 82.350 C 330.657 80.107,336.647 80.299,339.416 82.748 C 341.755 84.817,341.844 85.472,341.844 100.683 C 341.845 115.322,341.475 113.809,345.055 113.809 C 348.738 113.809,348.336 115.771,348.263 98.150 L 348.202 83.273 347.614 82.153 C 346.851 80.701,346.681 80.502,344.732 78.763 C 343.870 77.994,342.156 77.128,340.803 76.777 C 340.172 76.613,339.328 76.392,338.927 76.285 C 338.228 76.100,334.410 76.062,332.882 76.226 M167.921 77.206 C 173.155 78.588,177.117 84.207,178.003 91.501 C 178.672 97.003,177.965 102.602,176.173 105.993 C 175.931 106.451,175.588 107.130,175.411 107.500 C 174.937 108.491,171.814 111.565,170.610 112.225 C 168.271 113.508,167.354 113.705,163.731 113.702 C 159.725 113.699,158.625 113.426,154.805 111.483 C 152.874 110.502,152.996 109.830,152.996 121.431 C 152.996 126.970,152.922 131.548,152.831 131.604 C 152.596 131.749,148.381 130.281,147.942 129.902 C 147.598 129.605,147.577 128.215,147.577 106.241 L 147.577 82.895 148.076 82.240 C 151.019 78.382,161.912 75.619,167.921 77.206 M301.407 77.195 C 307.037 78.616,311.299 83.333,312.859 89.867 C 313.387 92.083,313.469 97.583,313.000 99.435 C 312.842 100.061,312.646 100.948,312.565 101.407 C 312.484 101.866,312.344 102.335,312.254 102.449 C 312.165 102.564,311.975 103.020,311.832 103.463 C 308.136 114.931,292.357 117.574,284.906 107.973 C 284.016 106.826,283.064 105.186,283.064 104.799 C 283.064 104.641,282.960 104.409,282.833 104.282 C 280.591 102.040,280.520 88.131,282.739 85.926 C 282.823 85.842,283.027 85.492,283.192 85.149 C 286.278 78.713,294.022 75.332,301.407 77.195 M340.308 77.197 C 343.542 78.082,346.342 80.317,347.270 82.754 L 347.785 84.106 347.785 98.593 L 347.785 113.080 345.301 113.139 C 343.935 113.171,342.732 113.112,342.627 113.008 C 342.517 112.898,342.441 107.792,342.447 100.859 C 342.459 84.994,342.353 84.390,339.096 81.803 C 336.001 79.346,329.346 79.776,325.430 82.686 L 324.752 83.190 324.752 97.937 C 324.752 109.129,324.692 112.744,324.502 112.934 C 324.215 113.221,320.021 113.284,319.585 113.007 C 319.370 112.871,319.318 109.836,319.321 97.742 L 319.325 82.647 319.902 82.173 C 325.026 77.964,334.589 75.632,340.308 77.197 M190.723 77.176 C 190.676 88.122,190.876 103.798,191.065 104.033 C 191.195 104.194,191.365 104.624,191.443 104.988 C 191.521 105.353,191.720 105.763,191.884 105.900 C 192.049 106.036,192.183 106.258,192.183 106.393 C 192.183 107.073,194.804 109.021,196.509 109.608 C 199.940 110.790,206.470 109.474,209.015 107.089 L 209.484 106.650 209.484 92.329 C 209.484 79.868,209.525 77.975,209.796 77.749 C 210.146 77.459,214.470 77.441,214.758 77.729 C 214.951 77.921,214.974 113.445,214.783 116.102 C 214.094 125.681,209.037 130.462,198.459 131.537 C 195.833 131.804,195.870 131.816,195.444 130.516 C 194.821 128.609,194.869 128.519,196.680 128.212 C 200.290 127.599,201.588 127.320,202.121 127.042 C 202.445 126.873,202.831 126.735,202.979 126.734 C 203.809 126.730,206.496 124.936,207.592 123.654 C 209.127 121.858,209.966 118.209,209.856 113.802 L 209.797 111.412 209.067 111.436 C 208.666 111.448,207.518 111.754,206.515 112.115 C 198.574 114.973,190.839 113.941,187.587 109.588 C 185.274 106.493,185.409 107.582,185.409 92.034 L 185.409 78.701 186.347 78.348 C 186.863 78.153,187.895 77.760,188.640 77.475 C 190.189 76.881,190.725 76.804,190.723 77.176 M109.590 77.697 C 109.322 77.999,109.253 78.917,109.188 83.064 C 109.145 85.816,109.177 87.692,109.259 87.233 C 109.341 86.774,109.413 84.558,109.420 82.308 C 109.430 79.045,109.492 78.167,109.727 77.972 C 110.050 77.704,116.188 77.621,117.938 77.861 C 121.675 78.373,124.353 82.873,125.687 90.881 L 125.843 91.819 125.871 90.836 C 125.886 90.295,125.767 89.451,125.605 88.960 C 125.444 88.469,125.248 87.738,125.169 87.337 C 124.936 86.143,124.184 83.720,123.907 83.273 C 123.765 83.043,123.580 82.621,123.494 82.335 C 122.968 80.571,120.131 78.136,118.012 77.629 C 116.118 77.176,110.008 77.225,109.590 77.697 M158.624 80.684 C 157.764 80.903,156.873 81.170,156.644 81.278 C 156.415 81.386,155.805 81.653,155.289 81.871 C 154.773 82.090,154.046 82.526,153.674 82.841 L 152.996 83.414 152.996 94.873 C 152.996 107.211,152.960 106.822,154.190 107.571 C 158.932 110.462,164.366 110.914,167.275 108.660 C 168.083 108.034,169.252 106.867,169.254 106.685 C 169.254 106.607,169.381 106.418,169.534 106.264 C 169.893 105.905,170.840 103.741,171.121 102.639 C 172.336 97.859,171.959 89.393,170.362 85.582 C 168.446 81.010,164.239 79.254,158.624 80.684 M294.737 80.651 C 292.400 81.279,290.751 82.369,289.622 84.033 C 289.283 84.532,288.953 84.987,288.888 85.044 C 288.736 85.179,287.950 87.225,287.686 88.171 C 286.571 92.176,286.840 99.287,288.262 103.398 C 290.497 109.855,296.391 112.390,301.948 109.284 C 303.611 108.354,306.406 104.288,306.409 102.794 C 306.409 102.525,306.571 101.775,306.769 101.126 C 307.301 99.379,307.303 90.532,306.771 89.344 C 306.572 88.900,306.410 88.370,306.410 88.166 C 306.410 87.962,306.198 87.341,305.940 86.785 C 303.568 81.684,299.397 79.401,294.737 80.651 M165.711 81.277 C 167.686 82.192,169.302 83.950,169.870 85.800 C 170.006 86.244,170.201 86.795,170.304 87.024 C 171.156 88.934,171.667 97.789,171.056 100.050 C 170.885 100.682,170.682 101.691,170.606 102.293 C 170.529 102.894,170.394 103.431,170.306 103.486 C 170.218 103.540,170.027 104.009,169.882 104.528 C 169.736 105.047,169.551 105.472,169.470 105.472 C 169.388 105.472,169.213 105.710,169.080 106.001 C 168.787 106.646,167.393 108.181,167.101 108.181 C 166.985 108.181,166.742 108.307,166.561 108.460 C 165.403 109.441,161.556 109.955,159.931 109.346 C 159.499 109.183,158.864 108.990,158.520 108.916 C 157.389 108.674,154.627 107.327,153.882 106.656 L 153.413 106.233 153.413 95.013 L 153.413 83.794 153.876 83.331 C 154.443 82.764,155.525 82.198,156.404 82.009 C 156.765 81.931,157.339 81.725,157.678 81.552 C 158.974 80.889,164.468 80.702,165.711 81.277 M300.740 81.755 C 302.253 82.484,304.084 84.167,304.525 85.232 C 304.672 85.587,304.875 85.878,304.976 85.878 C 305.077 85.878,305.159 86.036,305.159 86.229 C 305.159 86.422,305.337 86.962,305.554 87.428 C 307.166 90.883,307.140 100.035,305.509 103.641 C 305.317 104.067,305.159 104.548,305.159 104.710 C 305.159 104.871,305.018 105.120,304.846 105.263 C 304.674 105.406,304.534 105.637,304.534 105.776 C 304.534 106.039,303.532 107.311,302.701 108.103 C 300.295 110.396,294.666 110.457,291.923 108.220 C 290.830 107.329,288.692 103.865,288.692 102.986 C 288.692 102.871,288.555 102.372,288.387 101.877 C 286.488 96.285,287.845 86.144,290.859 83.405 C 291.192 83.103,291.637 82.692,291.850 82.491 C 292.062 82.290,292.285 82.126,292.346 82.126 C 292.407 82.126,292.806 81.967,293.232 81.773 C 294.568 81.164,294.786 81.126,297.095 81.105 C 299.227 81.085,299.424 81.120,300.740 81.755 M108.146 89.799 C 106.841 92.568,104.407 94.737,101.463 95.753 L 99.878 96.300 89.899 96.300 C 76.881 96.300,75.514 96.664,72.889 100.824 C 71.443 103.116,70.689 120.833,71.892 124.251 C 72.664 126.441,74.153 128.246,75.950 129.167 C 76.309 129.350,76.649 129.558,76.707 129.628 C 77.102 130.110,80.607 131.300,83.585 131.962 C 86.056 132.512,91.831 132.644,94.007 132.201 C 102.127 130.547,105.601 128.395,106.946 124.185 C 107.431 122.664,107.549 115.970,107.097 115.518 C 106.911 115.332,104.681 115.268,98.350 115.268 C 88.935 115.268,89.158 115.303,89.509 113.905 L 89.633 113.414 103.857 113.351 L 118.082 113.288 119.215 112.693 C 121.914 111.274,123.300 109.317,124.768 104.846 C 125.051 103.986,125.421 102.861,125.591 102.345 C 125.762 101.829,125.890 101.079,125.876 100.677 C 125.862 100.276,125.812 100.135,125.766 100.365 C 124.774 105.251,122.639 109.971,120.741 111.474 C 118.610 113.162,119.607 113.062,103.665 113.182 C 95.850 113.240,89.395 113.349,89.321 113.423 C 89.247 113.497,89.178 113.846,89.168 114.198 C 89.131 115.519,88.838 115.477,98.058 115.477 C 104.674 115.477,106.513 115.535,106.811 115.752 C 107.625 116.348,107.047 123.954,106.045 125.821 C 102.514 132.405,84.696 134.426,76.394 129.184 C 71.875 126.331,71.633 125.502,71.771 113.288 C 71.884 103.176,72.075 101.779,73.553 100.214 C 76.947 96.622,77.123 96.583,90.255 96.521 C 101.125 96.469,101.782 96.382,104.315 94.655 C 106.292 93.308,109.282 89.274,108.976 88.368 C 108.940 88.263,108.567 88.907,108.146 89.799 M125.951 95.987 C 125.951 98.613,126.007 99.632,126.118 99.010 C 126.210 98.494,126.285 97.134,126.285 95.987 C 126.285 94.841,126.210 93.481,126.118 92.965 C 126.007 92.343,125.951 93.362,125.951 95.987 M97.549 120.323 C 96.390 121.112,96.028 121.774,96.009 123.140 C 95.949 127.562,102.367 127.858,102.674 123.447 C 102.742 122.464,102.742 122.463,102.588 123.302 C 101.821 127.473,96.148 127.334,96.211 123.147 C 96.259 120.009,100.063 118.989,101.963 121.605 C 102.288 122.052,102.553 122.295,102.553 122.146 C 102.553 120.428,99.193 119.204,97.549 120.323 " stroke="none" fill="#c7c0a2" fill-rule="evenodd"></path></g></svg>